<svg viewBox="176.79999999999995 114.39999999999998 717.6 795.6000000000001" xmlns="http://www.w3.org/2000/svg" xmlns:blush="http://design.blush" overflow="visible" xmlns:xlink="http://www.w3.org/1999/xlink" width="717.6px" height="795.6000000000001px"><g id="Master/Composition/Sticker" stroke="none" stroke-width="1" fill="none" fill-rule="evenodd" blush:i="0"><g id="Stickers" fill="#000" blush:width="1040" blush:height="1040" blush:component="Stickers" blush:i="0.0" transform="scale(1 1)"><g id="Stickers/Wave" stroke="none" stroke-width="1" fill="none" fill-rule="evenodd" blush:i="0.0.0"><g id="Ink" transform="translate(178.000000, 117.000000)" fill="#000" blush:i="0.0.0.0"><path d="M57.2491922,649.694321 C55.2489479,653.825959 60.7066678,657.517207 65.1849577,651.715599 C81.8352671,635.37223 101.714811,620.933454 117.384436,604.257597 C104.446179,596.255293 85.5310163,604.745665 70.9160651,598.105936 C59.6030847,602.133436 62.2805277,634.934349 57.2491922,649.694321 M44.3861792,715.632401 C74.7271889,676.151609 123.082938,648.45345 148.905528,607.233681 C146.413687,601.183648 128.382645,601.225053 125.774176,608.101915 C100.623769,645.661803 45.8584593,665.721513 44.3861792,715.632401 M339.726326,364.600018 C339.72758,364.710429 339.72758,364.819585 339.72758,364.929996 C317.747466,370.136889 269.786749,353.748352 312.050218,337.476499 C334.629779,327.080279 360.61916,321.449307 377.794925,302.286688 C388.957417,293.165216 394.941847,268.786922 374.634664,268.010279 C260.877824,273.085431 160.04043,359.551214 118.198329,462.616319 C100.88587,501.108429 88.0379055,541.274272 73.0279218,580.637125 C71.892987,583.872926 73.6863094,586.020926 77.3369121,585.847782 C202.078166,572.756525 204.985104,636.194041 226.382075,555.810912 C239.795625,528.191798 241.568883,474.301088 279.024241,470.66881 C305.345951,468.829459 363.153638,497.570251 363.934925,453.526214 C367.322173,421.874581 298.370805,433.524218 305.589241,409.6227 C312.541814,400.444768 323.284192,408.182335 331.982433,409.4483 C374.755055,418.736644 397.332107,353.014368 339.726326,364.600018 M184.621489,763.289896 C173.09657,780.659588 131.203052,806.709106 162.546065,766.913391 C172.695267,754.233667 191.627987,747.350532 192.012987,728.988394 C192.090739,717.358831 205.467922,672.306036 183.778752,699.245118 C171.132694,720.076452 44.2269121,849.370494 115.451912,757.246137 C132.681603,737.695824 149.955186,718.178132 167.57113,698.979127 C176.839974,685.929275 196.373394,678.778894 198.542938,661.821989 C196.867498,656.045475 207.114518,629.54302 197.448134,633.13013 C152.189941,678.73498 104.152726,722.514282 66.5832476,774.900639 C62.5978078,779.588097 60.0244528,786.689546 51.8253322,785.895338 C50.4859837,778.264417 56.1807231,772.953387 58.9660163,766.680022 C89.0236059,724.062548 123.07416,683.458824 161.794876,648.479798 C174.089795,641.096048 183.17429,629.90813 194.321733,621.170588 C198.827612,611.751758 177.053166,613.353975 171.323313,609.660218 C165.523231,608.019106 161.327107,609.439396 158.232059,614.919807 C144.729469,637.210326 125.339013,655.414375 106.776244,673.406384 C83.9044853,691.866387 65.2301042,715.151861 45.9826124,736.650681 C39.1366352,738.999429 38.4732313,744.346845 37.4436384,750.024239 C34.6382801,756.315169 36.2760977,779.463884 25.5751042,770.928345 C17.4123518,759.05412 24.3373355,741.632987 24.2783941,727.98591 C47.1852671,529.10269 142.115984,271.361511 373.006879,253.323078 C395.419648,253.876389 408.771749,272.944908 404.233264,291.393618 C398.385528,317.855924 371.978541,330.688718 351.914648,344.102426 C398.023101,348.723387 406.437922,387.701055 372.269485,417.857118 C368.839599,420.282401 361.352792,422.953599 365.936423,427.718847 C384.822743,445.463686 380.172645,484.029821 353.116049,490.1727 C329.185853,500.729518 286.716717,476.395137 272.400235,498.506237 C249.105853,551.322947 232.016619,608.246202 218.382352,664.239744 C216.143834,695.984223 208.818801,726.983426 205.820316,758.606202 C203.26828,780.359721 199.006945,777.527924 184.621489,763.289896" id="Fill-1" blush:i="0.0.0.0.0"/><path d="M36.7300592,22.082625 C27.2803959,22.837625 -5.18783878,47.348875 0.711140816,25.358875 C11.8037327,14.038875 67.4725286,-16.612375 66.6567122,15.218875 C66.0191204,22.156375 49.0626918,35.747625 57.4543041,40.015125 C81.8597633,38.116375 130.446018,26.818875 121.158263,67.175125 C119.57558,77.528875 124.651212,91.073875 110.375682,94.005125 C100.385069,96.493875 97.9915898,68.722625 99.7512429,61.597625 C97.2184469,50.467625 65.7442531,60.688875 56.3912327,61.667625 C22.5838041,73.223875 33.3237122,38.178875 36.7300592,22.082625" id="Fill-4" blush:i="0.0.0.0.1"/><path d="M155.117632,165.290027 C155.166464,174.735457 162.883236,202.164988 146.710946,198.699145 C142.2985,197.34404 139.595189,194.176673 138.654852,189.616419 C134.977396,178.386431 141.800159,166.822705 137.50416,155.907566 C115.49452,154.588984 81.1127523,202.821131 70.3520942,162.505514 C67.033995,150.674797 73.6501595,117.093143 52.7223448,128.726135 C45.3461479,130.071164 -3.64652493,165.438635 12.1000467,141.246998 C42.3072699,115.71285 85.0331177,86.6095893 84.8340318,150.848593 C89.5782875,173.845068 160.103545,92.3624863 156.190693,165.193054 C155.832588,165.225798 155.475736,165.258542 155.117632,165.290027" id="Fill-7" blush:i="0.0.0.0.2"/><path d="M14.630487,338.293309 C10.0357429,323.83974 31.804759,315.500659 39.4609872,305.45857 C51.2172378,295.501946 70.3615849,288.177129 79.6026852,305.095346 C85.3052031,326.667612 102.643124,300.08687 116.21713,300.830914 C143.561522,293.475933 132.891645,363.369624 116.677864,336.281121 C116.212095,330.867945 114.667506,322.154328 107.609224,328.007395 C50.7426573,379.891939 76.601625,319.044925 56.553435,320.80072 C49.1968092,326.950399 9.99797792,366.197496 14.630487,338.293309" id="Fill-9" blush:i="0.0.0.0.3"/><path d="M67.8107341,199.179134 C83.1473648,198.766083 84.2306863,217.935656 85.2314453,229.334385 C95.0714075,242.662762 140.983726,185.348128 138.933421,253.170694 C137.088271,258.297759 131.381444,261.10203 127.694898,256.175271 C111.735295,207.192583 80.0762858,304.971339 67.2453053,231.565112 C68.9753673,202.661457 40.1435024,232.914995 28.3020223,237.034313 C4.57652983,227.91732 54.531914,196.346248 67.8107341,199.179134" id="Fill-11" blush:i="0.0.0.0.4"/><path d="M280.819151,189.291044 C217.794151,225.452633 245.962148,172.940521 226.472696,173.065875 C219.028216,174.720807 210.631565,180.71756 203.842329,174.424515 C186.244692,159.327535 256.246856,131.855921 252.930542,175.879386 C253.737382,190.716792 267.474965,177.28994 275.475714,177.752105 C290.393489,172.342871 304.549526,203.1674 292.419359,201.256695 C289.289721,196.033593 287.069658,191.4284 280.819151,189.291044" id="Fill-13" blush:i="0.0.0.0.5"/><path d="M197.357458,267.406163 C186.053409,271.855549 183.646123,284.445727 171.914223,288 C151.627839,286.075133 176.138613,259.432425 181.285397,250.979963 C190.641471,238.358618 208.422416,233.728464 212.504608,252.927271 C216.304924,266.041053 223.210927,252.842497 230.688235,250.948796 C237.698684,246.877153 247.26365,257.114855 240.926435,263.036565 C223.791041,277.400763 213.900155,297.872425 197.357458,267.406163" id="Fill-15" blush:i="0.0.0.0.6"/><path d="M568.099749,707 C519.945539,693.42066 609.441188,664.012756 623.530301,661 C647.922685,681.616626 583.74158,704.694358 568.099749,707" id="Fill-17" blush:i="0.0.0.0.7"/><path d="M484.991647,624.241345 C482.495882,640.696009 479.783312,654.193418 470.844414,665.903447 C431.505289,686.772074 457.637922,621.745026 470.170321,609.279713 C477.767263,597.864032 485.285706,619.543055 484.991647,624.241345" id="Fill-19" blush:i="0.0.0.0.8"/><path d="M384.808004,600 C371.572035,595.031897 320.010065,574.102604 323.136287,558.153965 C331.485418,544.524946 361.767009,568.407738 373.114455,572.979195 C383.714516,578.992884 413.621161,595.940666 384.808004,600" id="Fill-21" blush:i="0.0.0.0.9"/><path d="M40.3253106,478.815122 C49.7420151,480.705065 59.9918027,491.400853 64.7051359,476.228286 C66.5269607,474.22977 69.1532275,470.639257 70.5242658,471.029365 C73.6785255,472.584749 80.3917566,475.277634 79.982064,479.657201 C73.3061909,502.710211 65.013962,510.301544 43.7610006,495.411774 C30.8363808,489.127115 28.0855873,508.744898 21.259037,515.835024 C-4.61635321,533.622202 19.398609,470.249149 40.3253106,478.815122" id="Fill-23" blush:i="0.0.0.0.10"/><path d="M369.380382,710.307581 C384.984536,714.427539 405.925756,720.25531 416.275012,736.093922 C419.543996,745.125263 411.250181,755.393601 401.577223,749.018017 C390.565575,740.043477 349.494692,733.458361 356.883406,715.750369 C359.354738,711.87781 362.221736,709.035242 369.380382,710.307581" id="Fill-25" blush:i="0.0.0.0.11"/><path d="M67,407.280805 C65.5037481,417.439175 53.2279114,417.68122 47.6788895,410.533991 C37.9140769,400.184995 29.5482091,419.370519 21.3529445,424.053402 C-21.0842464,451.501066 25.6382402,388.994485 41.8379468,385.412719 C54.6786692,378.580275 63.2859086,398.272463 67,407.280805" id="Fill-27" blush:i="0.0.0.0.12"/><path d="M276.816851,694.964139 C256.95255,686.683881 293.3717,655.132699 305.330226,652.200292 C358.213208,638.07418 295.082047,696.652801 276.816851,694.964139" id="Fill-29" blush:i="0.0.0.0.13"/><path d="M444,497.351169 C437.569834,512.528703 422.345453,545.274023 403.703303,542.874997 C400.1157,529.863355 411.147518,518.382125 416.624378,507.383458 C419.435949,494.736557 438.768595,476.786481 444,497.351169" id="Fill-31" blush:i="0.0.0.0.14"/><path d="M715.282412,756.99835 C708.084212,804.143112 667.238612,723.891017 694.988572,719.233326 C710.240572,720.603755 711.303252,745.114993 715.282412,756.99835" id="Fill-33" blush:i="0.0.0.0.15"/><path d="M507.048065,777.100898 C505.946458,763.50999 524.017499,716.234205 536.927147,741.119639 C538.480252,754.24775 514.769182,814.083209 507.048065,777.100898" id="Fill-36" blush:i="0.0.0.0.16"/><path d="M527.98069,591.695476 C525.517319,619.359489 492.088172,577.329415 487.00974,568.984506 C486.260073,537.069172 529.038749,577.40766 527.98069,591.695476" id="Fill-38" blush:i="0.0.0.0.17"/><path d="M488,392 C475.281466,391.041 461.888238,391.597245 453.444006,382.324048 C449.296442,376.939651 454.758602,368.868581 461.276913,371.520872 C472.629907,374.843604 484.133248,379.827701 488,392" id="Fill-40" blush:i="0.0.0.0.18"/></g></g></g></g></svg>