<svg viewBox="57.200000000000045 156 878.8000000000002 800.8000000000002" xmlns="http://www.w3.org/2000/svg" xmlns:blush="http://design.blush" overflow="visible" xmlns:xlink="http://www.w3.org/1999/xlink" width="878.8000000000002px" height="800.8000000000002px"><g id="Master/Composition/Sticker" stroke="none" stroke-width="1" fill="none" fill-rule="evenodd" blush:i="0"><g id="Stickers" fill="#000" blush:width="1040" blush:height="1040" blush:component="Stickers" blush:i="0.0" transform="scale(1 1)"><g id="Stickers/Coffee" stroke="none" stroke-width="1" fill="none" fill-rule="evenodd" blush:i="0.0.0"><g id="Ink" transform="translate(60.000000, 160.000000)" fill="#000" blush:i="0.0.0.0"><path d="M303.6804,69.0512 C301.1174,69.6652 302.0984,71.4142 302.7944,73.1232 C305.5034,75.2762 306.1914,69.8322 303.6804,69.0512 M679.4654,120.1002 C672.4444,121.9002 649.6584,129.9322 670.5184,135.0552 C683.6084,140.2702 680.8714,140.1122 694.0734,132.2272 C699.7634,126.4642 683.4594,122.2622 679.4654,120.1002 M741.0864,166.8432 C757.2524,156.8552 726.8624,150.0932 720.4254,143.8882 C716.1574,139.8592 707.2684,138.9572 704.5524,144.8212 C713.2774,154.7592 729.3274,159.9912 741.0864,166.8432 M690.6124,114.0062 C701.2114,121.2262 710.0174,127.9292 722.1014,121.3252 C738.4834,116.1152 755.0934,117.7472 771.6704,119.8872 C785.0744,121.6572 780.4764,102.3382 767.7084,101.1552 C740.5934,92.6262 714.7704,98.2582 690.6124,114.0062 M585.6364,233.8372 C591.1534,260.2482 603.6864,217.4922 608.1634,210.5332 C622.0734,186.7162 641.2844,167.7822 663.7514,151.8712 C668.3034,146.7462 639.4164,139.4252 637.9154,145.8412 C616.5574,172.7152 589.5544,197.6562 585.6364,233.8372 M631.3434,124.4282 C635.4884,123.0652 652.0144,114.0792 646.1764,109.8312 C633.2754,104.1052 620.4544,98.1852 607.4044,92.8242 C579.5894,82.8072 551.7544,68.6422 523.6214,60.9752 C520.0464,62.7112 523.9584,67.6552 522.5554,70.8312 C523.5904,78.4572 513.0254,103.8822 523.2414,104.4002 C560.5234,106.1902 594.9344,117.3842 631.3434,124.4282 M413.0364,72.3412 C413.0564,72.3422 413.0764,72.3432 413.0964,72.3432 C418.6394,37.6352 403.7724,51.1202 379.0224,51.3132 C363.3774,54.7172 323.7374,54.3832 315.8794,67.4442 C319.5084,76.8462 320.8184,107.4152 334.0904,105.2372 C358.2324,99.6282 382.8584,98.3012 407.4974,96.7972 C416.6074,94.5492 410.9784,79.5492 413.0364,72.3412 M160.0114,49.5102 C233.3004,96.0172 188.4124,102.3382 266.2054,70.8202 C303.9884,54.9562 306.3144,69.4522 295.2384,24.3572 C291.0274,16.6792 278.2934,23.7472 270.9984,22.9062 C232.7644,28.3032 196.2294,34.6472 160.0114,49.5102 M254.8434,142.5862 C247.6184,127.9052 226.7424,130.9212 221.4774,114.1712 C214.1324,89.6132 173.2634,134.7762 159.5774,140.0212 C155.9474,142.4262 155.1854,144.9872 155.7244,149.0932 C159.2554,180.6412 146.8384,211.4332 148.5964,243.2462 C147.7024,261.7522 163.9254,312.3952 188.1494,293.9322 C205.2964,275.5812 206.7914,249.5172 213.1494,226.3702 C221.2264,195.9542 234.0044,166.4002 254.8434,142.5862 M602.2224,256.2352 C652.9404,318.8802 796.2024,356.5132 815.7884,247.2502 C825.4494,209.4522 833.2854,165.6952 808.1034,132.3162 C804.8834,128.7952 797.6924,112.7592 793.2854,121.2082 C788.6024,134.8202 779.9314,146.1182 770.8704,157.0102 C764.7954,167.1262 769.6254,166.2092 757.5554,171.8332 C718.7784,218.3862 664.9014,256.2612 602.2224,256.2352 M334.1274,0.0002 C447.7484,1.9642 559.4404,41.1692 658.2984,96.4482 C677.3844,107.3272 693.3834,80.4442 713.5254,85.4392 C750.3544,74.7092 797.3304,80.0432 819.2934,115.4422 C846.2624,151.2752 846.8654,195.8642 836.4784,237.8182 C833.1994,251.8682 831.7184,271.0232 819.6664,280.0732 C815.2074,307.1872 788.0464,326.2552 761.2074,331.7032 C690.5234,345.0092 611.6814,308.3792 571.6554,249.6732 C560.8714,209.6762 593.3844,171.7732 617.0004,142.0382 C618.8544,139.8312 618.2394,137.7802 615.5724,137.1232 C588.0734,130.3522 560.6324,123.4182 532.2304,121.1812 C497.4544,118.6452 462.7914,114.5222 427.9964,112.3162 C421.9194,109.9232 417.7514,119.8692 414.9594,115.7452 C393.7594,105.3502 345.8414,119.4982 321.9564,125.1702 C257.9784,139.2492 232.1614,203.6732 221.2004,261.9102 C201.9844,338.4852 135.7804,312.2972 132.8154,244.9732 C132.0734,217.6182 137.0424,190.7212 139.2454,163.5552 C139.4804,160.6002 140.9564,156.3452 137.0994,154.9272 C90.1704,183.7302 105.7014,264.3052 60.2194,296.5992 C-21.8356,336.3742 -2.7686,206.5252 17.7584,165.1262 C66.3064,39.8162 211.3494,2.1972 334.1274,0.0002" id="Fill-1" blush:i="0.0.0.0.0"/><path d="M535.7935,579.4472 C536.3785,583.6112 538.2855,595.9832 543.8295,587.8822 C551.6735,575.2862 560.6175,563.2632 567.7785,550.2882 C567.5135,542.9482 553.8345,546.1622 549.5275,549.4682 C538.9805,556.2352 537.4115,567.8322 535.7935,579.4472 M596.8665,578.0432 C596.7965,571.8712 593.0595,551.7582 585.2605,558.8932 C580.6535,566.4412 547.4065,602.7942 562.1375,606.8872 C577.0645,606.7752 597.3515,594.1952 596.8665,578.0432 M735.5205,429.7332 C718.5875,437.7832 703.6555,448.8502 687.5535,458.3592 C677.2775,464.6352 695.9105,472.7432 702.0965,472.6432 C725.6285,473.8982 744.7145,452.5982 735.5205,429.7332 M516.7465,684.1382 C517.1085,659.0802 522.9405,635.8242 532.5915,613.3592 C540.4165,599.1412 507.7415,587.3842 535.3865,548.1472 C548.3535,528.9912 574.1945,545.6382 586.3645,528.0522 C593.6935,518.5682 601.1565,509.1552 609.0965,500.1842 C621.6555,485.9972 635.8775,473.5712 651.2705,462.5082 C659.4775,457.5192 666.5385,452.7662 663.4165,441.5332 C653.8895,398.7062 695.8615,371.2142 729.7605,400.7342 C736.5095,408.8812 741.4335,411.2812 750.5175,404.5102 C774.1175,392.0602 798.5315,378.3942 812.8645,355.1792 C822.3025,338.9212 825.3935,320.4992 830.2045,302.5992 C830.8795,300.3382 831.2805,296.6642 834.3975,297.3652 C839.0485,300.4982 835.6525,309.7852 836.3195,314.9102 C835.8165,366.5792 794.6755,399.5892 751.7075,420.0612 C742.7505,426.9252 751.2865,444.2932 745.1875,454.6422 C735.8505,478.9012 700.3045,494.6412 678.1745,472.3252 C676.3595,470.2132 673.8125,467.2642 671.0345,469.5912 C655.9585,481.4732 591.0275,532.4762 601.1165,550.7552 C619.4795,576.2532 602.8955,607.9712 573.9345,614.7852 C565.1565,619.0462 551.2655,608.5942 547.9325,620.9482 C540.8475,638.4162 534.5515,656.1102 531.7715,674.9032 C525.3975,717.9872 552.6015,768.8842 595.3565,780.8662 C600.5205,781.4522 601.0995,782.6422 600.6525,788.2062 C598.2785,799.9262 576.9545,787.5382 571.0135,783.3802 C540.5315,760.2122 516.9665,722.8572 516.7465,684.1382" id="Fill-3" blush:i="0.0.0.0.1"/><path d="M796.5842,672.6464 C826.7732,674.5394 830.7662,631.5244 806.1032,621.3624 C794.4342,614.0744 766.8562,613.4814 771.5272,594.0434 C785.6842,572.8924 833.0152,596.8584 852.1812,573.8674 C867.0002,554.3564 826.8632,537.9434 811.3802,537.4824 C740.3382,527.8484 673.2432,618.0934 654.6932,678.9764 C715.3552,635.4964 733.1112,646.4954 796.5842,672.6464 L796.5842,672.6464 Z M813.7952,600.6404 C808.3062,601.5544 801.6922,598.3954 797.2012,602.0984 C860.2612,621.8984 832.2332,703.3364 778.3762,682.5634 C760.0592,674.9804 741.9512,665.5544 721.6972,666.1924 C716.2232,665.3304 711.1352,664.8214 706.5862,669.4124 C683.7432,677.6094 663.8632,691.1414 648.8212,710.4344 C645.3872,714.2944 643.6592,719.0994 641.5972,723.6744 C637.9992,729.5734 630.7812,733.7354 630.1792,741.4154 C625.9302,753.8644 617.7072,734.0084 622.1522,727.9874 C641.6832,688.6414 647.2902,643.7184 675.0812,608.1104 C707.0262,561.4944 756.2362,511.2964 817.8662,521.6674 C839.6982,526.6374 869.0322,538.6084 871.5512,564.0344 C872.8512,575.2564 861.2792,589.9134 850.2552,591.8614 C847.8282,591.6614 845.1352,592.4924 843.6212,594.8924 C836.5212,603.8574 823.6702,599.7244 813.7952,600.5614 L813.7952,600.6404 Z" id="Fill-6" blush:i="0.0.0.0.2"/></g></g></g></g></svg>