<svg viewBox="169 169 702 702" xmlns="http://www.w3.org/2000/svg" xmlns:blush="http://design.blush" overflow="visible" xmlns:xlink="http://www.w3.org/1999/xlink" width="702px" height="702px"><g id="Master/Composition/Sticker" stroke="none" stroke-width="1" fill="none" fill-rule="evenodd" blush:i="0"><g id="Stickers" fill="#000" blush:width="1040" blush:height="1040" blush:component="Stickers" blush:i="0.0" blush:value="Bird" transform="scale(1 1)"><g id="Stickers/Bird" stroke="none" stroke-width="1" fill="none" fill-rule="evenodd" blush:i="0.0.0"><g id="Ink" transform="translate(177.000000, 172.000000)" fill="#000" blush:i="0.0.0.0"><path d="M124.749201,228.63989 C114.716307,234.539225 30.9186589,259.68389 80.1418978,260.542839 C138.65675,261.649117 127.500962,279.345902 124.749201,228.63989 L124.749201,228.63989 Z M142.408265,243.500317 C137.309521,257.262994 170.311147,279.466521 180.647624,272.490149 C184.477169,266.306935 175.523277,264.171137 174.889287,258.431409 C172.847107,236.806607 168.684718,212.396617 179.218708,192.341072 C179.986812,190.763286 178.127514,188.883345 176.420617,189.217178 C153.455543,195.885302 143.63723,219.258462 142.408265,243.500317 L142.408265,243.500317 Z M209.328363,216.952092 C214.091824,252.21408 181.69127,298.809321 239.60627,263.102629 C275.960728,234.250472 201.980174,156.072713 209.328363,216.952092 L209.328363,216.952092 Z M261.956861,297.441094 C264.752514,362.443429 298.89776,422.59057 357.083425,453.133821 C384.062144,469.127329 422.021085,504.433178 453.35239,481.736213 C466.543043,468.915333 479.571541,455.761839 487.375716,438.833843 C495.282304,424.0453 471.955124,416.97877 463.71691,408.268662 C421.624841,377.863086 377.829533,350.354788 332.861344,324.480321 C311.706799,311.577811 289.757329,299.90707 269.722021,285.194066 C260.059767,277.380676 261.892243,291.327327 261.956861,297.441094 L261.956861,297.441094 Z M155.412378,329.641325 C155.685482,329.63767 155.957366,329.634015 156.22925,329.631578 C147.441171,447.07488 275.379164,556.183331 389.713191,517.464835 C405.391036,510.548164 437.803782,502.633649 400.803142,496.201888 C380.99095,487.585594 361.433573,478.546527 343.028351,467.17916 C273.895383,433.525417 237.016664,368.220927 242.280001,291.622172 C242.839619,287.691719 242.66893,281.764362 236.903277,283.639429 C162.882489,316.49636 151.502366,248.958602 155.412378,329.641325 L155.412378,329.641325 Z M267.693252,224.538866 C270.180445,235.149627 260.922969,257.091204 267.627415,261.666174 C296.373991,280.719002 328.379521,294.191709 357.104151,313.429729 C398.429336,334.893707 436.763794,360.92047 474.660555,387.937766 C485.082378,394.873931 491.473486,407.287876 505.060383,407.385345 C511.978191,408.316178 514.818954,411.326764 515.745555,417.531909 C522.019619,433.576588 508.185223,445.123056 500.683413,457.94759 C482.226984,488.727204 458.827871,515.776178 425.837218,531.097147 C405.375186,542.382884 382.950223,547.386719 360.072932,550.71408 C355.275334,552.015296 344.730371,549.231327 346.350703,557.44556 C351.817649,569.223517 354.640124,640.238494 363.447711,636.706447 C376.826122,630.453786 460.934669,657.244466 421.760174,671.482307 C406.899201,674.366182 361.270198,642.399878 371.648129,672.059813 C373.480605,678.798602 375.244804,700.395382 363.733006,693.328851 C355.131467,684.744235 356.501861,670.004427 348.600149,661.993662 C333.730642,668.581374 329.4634,701.560141 308.961134,695.186862 C300.077957,688.08378 312.155469,678.597572 315.953314,671.937976 C322.755297,659.728717 339.782809,650.212049 335.414373,634.655935 C330.893536,608.509772 323.235666,582.330713 325.897206,555.54247 C325.855752,542.866576 303.054053,547.867974 294.55005,542.298817 C263.624743,534.394049 236.180284,517.952182 209.634385,501.555394 C206.769238,502.701878 207.728757,505.345735 207.964065,507.332892 C209.918462,523.765013 209.823363,540.331153 211.953326,556.802262 C217.220321,568.860443 204.753881,617.879017 219.066208,617.074894 C228.557772,614.325039 285.493745,650.755441 262.52989,657.125066 C250.24877,660.80819 225.831615,627.812366 220.909656,640.382262 C218.248117,651.865374 226.38026,671.1436 214.702649,677.766645 C198.813881,673.694862 208.90042,648.305304 200.74877,638.044215 C185.95973,642.22687 172.0534,668.580156 155.462366,660.38298 C149.052969,657.725721 148.0776,649.484684 153.084903,644.630709 C164.791775,630.367282 193.457883,626.975347 196.625395,607.769004 C196.775358,568.654539 189.684422,529.81908 192.285001,490.64857 C192.156984,471.922264 175.301381,458.628658 165.436738,443.993629 C132.820383,407.345139 134.283437,356.114011 137.379016,310.143792 C134.878413,302.013627 149.910075,278.932876 139.749164,277.827817 C106.476873,284.472792 71.04292,273.866904 36.9062081,274.589396 C32.4487697,274.111796 26.8538067,274.672245 24.5714421,270.038794 C17.9035727,239.116631 101.390321,222.424998 124.088388,212.185839 C137.905716,203.532994 140.624558,183.819811 159.471134,177.138284 C181.160913,169.456478 147.650876,153.83579 142.23026,128.524209 C148.304373,100.626033 172.710555,153.170562 176.724201,161.674766 C177.369164,166.402031 207.010642,169.289562 205.016011,160.807288 C207.193523,140.731031 206.230346,116.938753 217.232514,99.7463718 C237.017883,92.3764678 222.009385,150.501119 223.818696,161.546837 C222.881122,174.672309 220.3476,171.912707 233.261491,177.352717 C237.818905,179.271645 238.458991,179.191233 241.076639,175.057313 C249.003954,163.414594 260.792514,153.400833 273.839299,149.202339 C275.474262,163.370733 260.537698,175.157219 249.792784,183.027872 C242.108092,184.867607 266.538659,217.433347 268.02122,224.917778 L267.693252,224.538866 Z" id="Fill-1" blush:i="0.0.0.0.0"/><path d="M138.927858,482.80732 C138.93757,487.643692 137.781792,489.707373 132.675483,489.656208 C112.369228,490.19832 120.735269,533.172589 92.9516603,518.68662 C75.4935742,507.341248 69.1792832,497.778145 58.7566358,522.500898 C52.9850265,529.837077 52.4520572,546.346525 41.008391,545.994457 C37.2096183,545.760557 33.7180011,541.480916 35.4613816,538.301336 C43.4777754,509.506042 57.6979814,465.502368 93.5161951,495.69619 C99.0704888,499.828425 102.084983,494.03087 103.676607,489.060493 C104.343122,471.078205 140.833921,457.743463 138.927858,482.80732" id="Fill-4" blush:i="0.0.0.0.1"/><path d="M623.914083,504.001347 C602.93287,516.794596 585.660813,526.589446 575.545262,496.36007 C574.807328,492.720727 571.855589,491.668358 567.96621,493.090644 C554.956153,497.810436 542.010634,506.505303 527.644044,504.100236 C521.165805,502.351984 515.32443,490.401119 525.541051,488.994704 C544.657945,484.097889 575.463676,458.339253 590.09451,481.560971 C596.128283,499.655134 601.321834,496.672607 615.955104,488.955637 C654.361806,469.408666 644.330278,561.10033 623.914083,504.001347" id="Fill-6" blush:i="0.0.0.0.2"/><path d="M452.493174,267.001057 C469.47404,261.770754 480.325269,289.372973 487.438825,274.871983 C496.081429,250.991139 526.826171,255.073978 532,280.310916 C530.27539,301.519599 511.763032,268.628855 505.016154,278.929349 C500.292117,287.067128 495.484966,300.123477 484.479732,300.437635 C451.011794,294.836165 462.400818,267.899864 438.423733,310.336637 C404.619673,330.950968 429.922911,257.410147 452.493174,267.001057" id="Fill-8" blush:i="0.0.0.0.3"/><path d="M61.8945014,120.953551 C86.0147205,114.675083 94.7964603,148.736044 83.5263781,163.882252 C62.5845562,176.173057 78.1217616,139.199317 65.5556932,138.034694 C56.0009945,138.85994 46.4255699,140.636174 36.814789,140.360278 C11.4022411,139.441031 45.5404466,95.8164857 26.6517205,92.9623039 C20.0157342,92.6619922 2.18159726,105.86594 -0.000731506849,97.6806156 C5.59285753,76.5525896 45.7257616,60.6470571 49.5698301,90.4194208 C52.7189671,103.948096 38.4765288,125.588849 61.8945014,120.953551" id="Fill-10" blush:i="0.0.0.0.4"/><path d="M581,571.143799 C572.527094,603.171956 573.392246,563.375817 559.338377,571.857587 C550.460842,575.3773 542.237031,581.046991 533.193027,584.079359 C507.821698,591.004333 522.609489,556.405309 503.79971,562.104536 C491.53204,563.690868 479.3713,566.630936 467.005207,567.203197 C456.120323,569.734683 459.211543,554.261484 467.493678,552.792065 C486.52096,548.088449 531.248864,523.451689 532.1529,558.522059 C536.512686,575.964329 576.309706,534.238501 581,571.143799" id="Fill-13" blush:i="0.0.0.0.5"/><path d="M92.2846892,47.7535288 C120.513068,39.1412548 124.98023,102.532419 104.019959,87.6279671 C96.1765811,61.7996795 108.724284,56.059789 75.3063108,66.0363233 C34.4815811,63.8162 92.6215811,0.38480274 35.8303649,18.2518575 C26.2563108,19.9379808 25.953473,11.4951726 32.4602297,8.73129589 C49.5565811,-3.64701918 81.5467162,-2.60218356 82.4880676,23.7637616 C82.7896892,33.9012274 74.4111757,52.0072411 92.2846892,47.7535288" id="Fill-15" blush:i="0.0.0.0.6"/><path d="M392.737698,268.942205 C384.644458,268.659358 380.575266,265.620277 375.353034,271.972715 C366.567971,280.109175 359.04454,261.595515 363.153997,254.514529 C371.138644,235.080083 391.695691,259.801698 400.464893,251.226885 C400.750407,237.480002 369.642743,222.394797 393.080559,208.774032 C399.433868,206.551658 447.051351,194.210442 442.722267,206.088817 C438.239444,216.114601 425.689005,217.941478 417.262666,223.648632 C405.462618,227.73829 414.350173,235.538027 415.105445,243.87897 C416.97105,259.182127 408.204289,271.167028 392.737698,268.942205" id="Fill-18" blush:i="0.0.0.0.7"/><path d="M76.4819224,408.527535 C97.7584662,370.68394 135.023199,425.188414 101.713151,416.374935 C91.596034,414.265234 93.8671737,435.046335 80.2939749,430.667758 C68.3275191,431.627715 52.6440988,408.975678 46.6072315,425.634108 C42.8207796,436.379745 33.1535022,455.656016 19.4961872,446.688258 C13.1764942,437.06053 28.7904271,423.912553 30.8835816,413.399559 C43.6558471,392.128684 58.4859138,397.88475 76.4819224,408.527535" id="Fill-20" blush:i="0.0.0.0.8"/><path d="M593.938462,375.519754 C594.534465,380.069778 590.741052,389.019331 585.1694,382.965578 C580.886238,376.006433 578.940678,365.525237 567.685013,373.497791 C537.497698,388.237732 532.912871,358.057566 524.34044,365.169633 C514.551577,371.629963 504.280294,380.836813 491.954753,375.040357 C478.081803,363.317583 517.16764,350.65422 524.341662,343.599195 C535.089259,336.863364 545.141927,344.191463 549.404326,354.46755 C561.149741,375.545241 590.075434,321.718059 593.938462,375.519754" id="Fill-22" blush:i="0.0.0.0.9"/><path d="M69.6848357,368.135555 C60.4256208,367.295858 45.3386045,349.341812 36.8794034,355.60762 C30.8458145,361.481816 28.0804704,378.944811 17.6133201,375.571292 C14.1758183,374.260186 8.62321179,374.681263 9.02017445,369.363182 C11.8110898,348.202574 34.8324886,321.494319 55.4136629,340.581465 C60.4037026,343.543729 66.9657633,356.146549 72.5695122,348.294646 C90.6008711,311.36885 112.329097,352.53487 100.752643,355.455395 C84.7438454,340.168982 87.6236512,372.757571 69.6848357,368.135555" id="Fill-24" blush:i="0.0.0.0.10"/><path d="M475.927948,631.175523 C468.826292,631.80664 443.624787,628.068579 456.70576,618.261339 C472.215221,617.430794 497.436203,604.448513 505.813576,622.645109 C508.211632,626.478019 506.901831,636.609938 514.377194,633.608789 C532.460001,624.326871 553.859917,617.665487 566.64022,638.423031 C569.509367,641.801148 567.578748,645.387205 563.274419,645.029694 C525.28896,623.298114 512.896972,676.969803 491.081961,636.240266 C488.98214,628.671728 481.808665,631.096481 475.947425,630.75113 C475.940121,630.892189 475.934035,631.034464 475.927948,631.175523" id="Fill-26" blush:i="0.0.0.0.11"/><path d="M155,552.695927 C142.945261,603.466771 118.895197,562.856731 107.964452,570.859793 C100.890689,577.564031 97.2022447,589.18463 88.0841965,593 C73.2431181,591.562324 101.523618,523.635215 129.938705,553.322606 C137.324082,563.757429 151.957821,530.765841 155,552.695927" id="Fill-28" blush:i="0.0.0.0.12"/><path d="M346,46.4148556 C339.083634,93.4170675 315.394205,60.3517578 307.207684,75.3763105 C304.127164,82.4362175 303.341625,95.465926 293.283105,94.9871634 C283.008259,87.9370771 290.376612,66.8261014 293.290356,56.2503582 C298.456783,43.8614551 312.683493,45.9152239 322.384291,50.9716936 C331.078391,53.759565 331.254835,39.423694 339.175482,37.6178997 C349.001966,34.7686484 344.419255,42.4767263 346,46.4148556" id="Fill-30" blush:i="0.0.0.0.13"/><path d="M655.027598,582.973716 C648.19446,582.806663 642.739702,577.398032 641.622064,570.274084 C640.934098,560.449453 631.464167,564.925979 624.818322,564.619716 C601.57684,557.170137 632.938029,544.396663 642.17415,540.633137 C659.516512,531.454926 656.852788,554.876189 662.268374,563.943032 C675.282184,558.542874 685.125478,557.467926 686.005633,574.393505 C686.698495,578.157032 659.537322,582.665032 655.027598,582.973716" id="Fill-32" blush:i="0.0.0.0.14"/><path d="M190.198903,70.3121385 C188.763384,125.107678 156.928626,34.9670036 189.893705,36.3479309 C196.146056,34.5976147 207.766527,40.8172919 207.121146,30.0414107 C202.777192,17.6448663 221.915442,-0.538362926 225,17.7635111 C219.121608,27.6880855 223.065064,39.7482658 217.231306,49.4245423 C206.227264,65.8501164 183.740272,34.6465404 190.198903,70.3121385" id="Fill-35" blush:i="0.0.0.0.15"/><path d="M645.938911,640 C635.632834,636.389779 628.459785,625.844622 616.582318,629.09518 C593.92821,623.315861 636.15338,593.557803 646.97025,619.392943 C654.652873,625.140128 664.618828,613.218119 673.733867,614.067219 C675.93552,613.681601 678.24689,616.246205 677.978693,618.431371 C677.569083,633.890681 657.58963,634.796635 645.938911,640" id="Fill-37" blush:i="0.0.0.0.16"/><path d="M267.33073,224.383247 C268.260215,212.463839 268.239314,212.37145 279.828378,209.996927 C289.077744,208.59789 298.933242,204.409179 307.77688,209.327405 C316.579946,222.55466 275.259636,229.741821 267,224.01009 L267.33073,224.383247 Z" id="Fill-39" blush:i="0.0.0.0.17"/></g></g></g></g></svg>