<svg viewBox="156 223.60000000000002 728.0000000000001 592.8" xmlns="http://www.w3.org/2000/svg" xmlns:blush="http://design.blush" overflow="visible" xmlns:xlink="http://www.w3.org/1999/xlink" width="728.0000000000001px" height="592.8px"><g id="Master/Composition/Sticker" stroke="none" stroke-width="1" fill="none" fill-rule="evenodd" blush:i="0"><g id="Stickers" fill="#000" blush:width="1040" blush:height="1040" blush:component="Stickers" blush:i="0.0" transform="scale(1 1)"><g id="Stickers/Whisper" stroke="none" stroke-width="1" fill="none" fill-rule="evenodd" blush:i="0.0.0"><g id="Ink" transform="translate(156.000000, 225.000000)" fill="#000" blush:i="0.0.0.0"><path d="M181.8696,261.1899 C179.2306,256.1929 175.5056,256.6139 170.7376,257.0969 C158.4466,258.0939 146.1576,259.1349 133.8806,260.2979 C121.3576,264.3629 109.1436,271.8219 96.4816,276.6019 C91.4266,279.0939 88.5356,274.3709 83.7126,279.2719 C64.5986,294.6489 35.0076,311.5479 30.4206,336.3179 C50.8956,318.2299 73.6636,299.9589 100.8936,291.1549 C122.1906,282.7979 144.0146,275.9549 166.1556,270.1459 C172.4176,268.3169 178.3896,267.6599 181.8696,261.1899 M150.5996,288.4869 C112.2836,301.1909 64.8976,314.6279 40.2126,347.6579 C59.1616,353.6669 79.1836,338.5789 97.6556,348.3959 C111.9316,357.0079 118.9546,325.1909 128.0546,317.5749 C134.2936,307.1539 147.1686,299.5789 150.5996,288.4869 M251.1606,186.0059 C215.4486,188.5799 181.7776,196.8619 151.0726,215.3579 C141.7076,220.7189 146.2646,234.3329 140.0926,242.5799 C137.7136,249.7979 149.0356,245.4589 152.7516,246.0529 C172.7976,243.6519 181.4406,260.5599 185.1596,232.8659 C207.2706,176.9749 242.1566,219.9899 260.6216,205.8139 C290.6496,185.6779 276.2866,188.2609 251.1606,186.0059 M76.4806,485.4099 C95.4286,480.5969 112.5396,474.1929 130.4316,467.0929 C137.7746,458.0699 149.2406,453.0419 155.4206,443.2459 C168.1066,409.0169 184.1336,377.1759 205.9526,347.6579 C212.4366,335.5949 224.8976,328.5259 233.6486,319.2529 C231.6836,315.9199 226.0226,317.6909 222.8986,316.1609 C217.6416,314.3419 213.4176,313.9449 210.3676,319.9309 C192.9156,330.2529 179.9416,344.9969 169.8806,362.7829 C139.2906,404.6039 116.2406,450.8049 76.4806,485.4099 M265.2076,357.7959 C263.4856,323.7469 253.4346,315.2709 250.5636,355.6399 C249.0426,380.2259 244.4096,404.9339 233.0186,426.9179 C215.3906,459.0719 192.7706,487.9709 173.3676,518.9819 C171.8806,528.8309 118.1166,571.3379 148.5256,564.3599 C228.9716,532.5259 250.2376,433.9659 265.2076,357.7959 M277.9306,132.2169 C232.9826,131.2739 191.5166,147.1159 154.3406,171.3399 C142.1696,177.7989 142.1756,174.1659 143.4076,190.9989 C139.6436,213.5929 177.9096,175.4959 195.4376,176.4749 C219.2726,171.7989 243.4146,166.0769 267.4446,172.6399 C277.8246,173.1429 290.4926,183.5589 298.9996,174.3109 C349.5906,124.2939 334.7646,140.9039 277.9306,132.2169 M409.3126,31.8159 C369.0956,12.8269 317.8006,20.9639 275.4156,30.5839 C234.8036,44.8219 192.3756,68.1189 168.6296,105.0649 C164.6336,113.9979 177.3386,104.2769 180.0026,102.3319 C235.7986,68.2469 306.1796,40.0459 371.7286,59.0269 C378.8916,59.3719 387.1286,70.7369 392.9636,65.3539 C398.3866,54.2829 406.0076,43.5989 409.3126,31.8159 M116.0396,552.2809 C111.8966,583.0429 143.6496,534.4289 151.7546,529.8779 C168.5066,510.4309 181.0776,487.6109 195.2526,466.2509 C207.1996,443.9179 223.0286,423.4459 229.2086,398.4599 C232.9256,377.9899 242.8756,357.0439 241.9646,336.4599 C203.2866,364.6069 191.8486,417.3139 168.3936,457.2409 C142.4686,498.4689 123.3666,478.8969 116.0396,552.2809 M28.8806,490.8579 C101.6366,476.6389 134.9846,331.9169 199.7496,306.1249 C199.3566,299.8369 193.1556,297.0149 191.1186,291.6669 C189.7856,288.6069 187.8466,283.0329 183.7486,283.9249 C149.0256,304.2479 132.6126,343.7319 105.7976,372.1409 C92.2606,407.7809 13.0756,452.6219 28.8806,490.8579 M386.5336,73.2319 C314.5126,59.9979 230.5226,82.9709 171.0076,125.4409 C165.5226,129.1269 137.3086,152.6519 148.6296,156.0559 C202.6616,112.6229 274.5026,105.5039 339.2576,126.6359 C354.9606,125.3289 378.9196,87.5809 386.5336,73.2319 M204.8296,272.8239 C216.7626,320.2889 264.1286,281.7319 285.1026,307.9259 C302.7546,340.2439 289.4206,380.5459 278.6006,413.2259 C278.4106,418.9609 270.2966,432.8079 278.1826,434.4319 C287.8296,428.5139 294.0886,437.5129 301.7516,442.3069 C322.2116,456.3149 345.6866,466.2829 369.9786,471.5269 C408.1586,476.5539 445.1616,449.1539 468.7576,421.3899 C478.5206,410.6159 412.4166,419.8939 399.8096,404.6059 C367.7256,384.7449 370.5226,361.7299 407.5156,389.4729 C428.6206,403.2859 454.1606,396.8989 477.7056,396.4739 C494.5286,388.4519 500.0246,364.1479 508.9826,348.4679 C517.3346,329.9079 519.1276,309.2659 524.2916,289.7209 C527.8936,274.0369 528.3886,274.5779 512.4806,276.0599 C499.7956,274.8809 477.8116,285.5149 471.8826,269.6699 C458.8986,233.1549 455.6476,194.6919 447.4556,157.0939 C441.2426,127.8329 427.1496,101.2139 419.6956,72.3429 C418.9476,64.8529 413.5426,62.9869 411.2556,71.7149 C406.8546,77.9029 402.2516,84.0239 398.3176,90.5039 C375.6966,128.8599 340.9756,157.8199 309.2676,188.4459 C296.1016,205.0919 263.9666,209.3169 258.8776,227.0859 C258.7836,227.5449 257.7566,227.8049 256.8486,228.3419 C249.0176,223.3949 239.7566,223.3619 230.8276,222.2479 C215.0056,219.8999 206.6256,238.0839 203.8156,251.0549 C198.5886,264.4919 214.4566,257.1949 219.3846,265.6309 C222.7016,272.8679 209.0336,271.1139 204.8296,272.8239 M268.9006,450.1329 C248.7776,502.9479 221.4796,557.8279 165.7166,579.7949 C147.6666,588.5389 127.4236,579.3709 109.7446,588.9969 C107.5016,589.1489 105.2716,588.5599 104.5406,586.0519 C95.5996,570.3899 91.3856,562.3329 95.7856,543.3109 C98.5286,528.6269 102.2236,514.2349 108.4386,500.5829 C111.8256,495.5199 106.5236,495.1439 103.0916,496.8049 C22.8696,535.9619 -36.7764,516.1439 26.6026,427.2599 C31.6646,417.2219 89.1336,371.4199 77.0956,366.3809 C55.4846,370.7879 33.0236,370.7359 14.2376,357.8839 C-18.9744,319.0869 63.7116,260.6489 95.4576,246.5789 C112.6056,240.9299 123.4816,228.2559 118.2946,209.6659 C103.7976,128.0309 159.7486,52.4639 233.5086,22.6429 C285.8386,-0.0181 351.6126,-8.2091 405.0036,14.4129 C433.3386,43.2709 441.2026,88.5359 458.5416,124.8179 C472.6326,158.3479 474.5746,194.6979 482.6286,229.7249 C487.8496,242.0489 483.1866,269.4279 503.7836,263.1029 C517.5256,264.7319 547.1616,251.5019 548.7426,272.0689 C534.3026,309.3189 532.1766,351.5359 508.7146,385.3619 C493.3276,406.4769 486.0656,433.2379 465.3556,450.1969 C429.7626,481.6789 381.6936,503.9949 334.8016,485.2099 C321.6066,480.3489 270.2106,464.8629 271.0266,449.8379 C270.3186,449.9369 269.6096,450.0349 268.9006,450.1329" id="Fill-1" blush:i="0.0.0.0.0"/><path d="M588.8228,396.6738 C604.8708,407.6658 626.5428,410.3608 643.6638,420.7688 C655.7808,427.2568 669.9128,425.2178 683.1428,426.0398 C706.7808,421.3508 713.3108,379.6968 711.4768,359.1948 C707.9348,348.2948 699.3278,366.2518 693.3878,365.7658 C686.2968,364.2888 682.5988,357.7798 684.9328,350.8518 C689.6958,337.9808 695.8028,325.2338 695.1998,311.1258 C695.8488,295.5678 677.1518,268.4888 664.8438,290.4018 C658.2928,299.0178 665.9248,330.4138 648.0028,324.6278 C635.8398,314.1118 648.7388,294.9028 644.7548,280.9968 C644.6938,265.8898 622.2378,241.0848 613.2498,263.0868 C607.6058,300.3478 601.6918,337.9368 605.4068,375.6588 C607.4898,386.9378 597.9928,393.0828 588.8228,396.6738 M671.9828,446.4728 C642.8108,449.4578 619.7388,434.4358 593.7108,425.3228 C574.4948,413.4308 548.5768,424.7248 533.1108,406.9228 C531.3738,402.5128 542.4688,393.6668 546.8968,393.2918 C559.5148,392.8398 570.7038,387.1368 582.5118,383.7628 C589.6378,381.7258 589.6538,380.9998 589.5498,373.8388 C588.4408,345.8288 590.8938,318.0248 595.6018,290.4438 C595.4628,261.8498 612.1478,219.1368 644.8138,248.2778 C650.9788,253.6578 654.2648,262.4298 659.2848,268.3598 C662.7348,270.8748 665.5988,266.2288 668.9848,265.3818 C691.5408,259.6788 708.3188,284.1128 711.6688,303.7968 C713.5678,313.9198 712.1588,324.0588 710.1138,333.9788 C715.6288,342.9278 725.0098,333.9338 727.2858,354.0768 C730.4258,386.6288 714.8658,454.0958 671.9828,446.4728" id="Fill-4" blush:i="0.0.0.0.1"/><path d="M415.2661,251.9199 C417.7171,240.1479 408.5671,232.0339 409.3391,220.7969 C429.7811,183.1479 448.5171,266.4869 426.4061,278.8089 C392.2621,320.7929 365.5501,273.1859 363.2911,237.5009 C362.3551,231.5369 363.3921,222.3939 370.7931,221.9699 C382.5611,224.5429 378.5861,247.9529 385.5541,257.1209 C392.3571,282.6639 417.6001,277.6919 415.2661,251.9199" id="Fill-7" blush:i="0.0.0.0.2"/><path d="M273.9277,274.8486 C265.5187,272.7746 221.2017,262.8076 221.7967,255.2816 C229.8347,242.4306 244.3987,250.2106 256.2117,252.5146 C269.0317,255.2106 306.2637,266.0546 273.9277,274.8486" id="Fill-9" blush:i="0.0.0.0.3"/></g></g></g></g></svg>