<svg viewBox="187.20000000000005 145.5999999999999 603.1999999999999 691.6" xmlns="http://www.w3.org/2000/svg" xmlns:blush="http://design.blush" overflow="visible" xmlns:xlink="http://www.w3.org/1999/xlink" width="603.1999999999999px" height="691.6px"><g id="Master/Composition/Sticker" stroke="none" stroke-width="1" fill="none" fill-rule="evenodd" blush:i="0"><g id="Stickers" fill="#000" blush:width="1040" blush:height="1040" blush:component="Stickers" blush:i="0.0" transform="scale(1 1)"><g id="Stickers/Box" stroke="none" stroke-width="1" fill="none" fill-rule="evenodd" blush:i="0.0.0"><g id="Ink" transform="translate(190.000000, 147.000000)" fill="#000" blush:i="0.0.0.0"><path d="M119.6626,337.3125 C103.5436,339.9435 116.3656,346.2335 123.8226,350.4375 C135.9486,357.6775 147.5036,365.8755 160.3476,371.9195 C179.5926,380.6745 197.2066,392.6565 211.0926,408.7235 C214.4876,412.5275 215.5786,412.3045 218.5446,408.4605 C222.0086,400.6795 254.4776,369.6785 247.4276,365.6125 C203.7356,359.6525 164.4166,339.1955 119.6626,337.3125 M154.6746,326.7005 C156.1756,330.0015 158.9996,329.9605 161.3736,330.0415 C177.4906,331.3965 195.2076,334.2235 210.1006,339.5635 C213.8666,343.7055 218.1326,343.4535 222.7786,343.5025 C234.3056,344.5775 245.2776,348.6645 257.0106,349.0415 C282.0846,351.7385 307.1746,357.1205 331.8926,362.4195 C345.3496,367.0155 344.7626,369.5835 353.4956,353.8365 C362.8756,336.9225 373.9766,321.3125 387.9676,307.8105 C468.3846,229.3935 372.9096,264.8885 325.5916,275.7375 C267.7456,289.7235 211.3506,308.9475 154.6746,326.7005 M277.5796,573.1335 C277.7626,573.1365 277.9456,573.1395 278.1296,573.1425 C278.5896,547.3825 278.9466,521.6175 279.8506,495.8685 C280.5586,485.4735 266.8766,483.4615 262.8536,474.8425 C250.4786,457.4115 226.5766,455.4155 212.2546,440.0095 C189.4236,413.2365 158.3376,398.7765 128.3286,382.2125 C119.5396,377.8545 112.5016,368.1755 103.0226,366.6395 C100.2936,387.2365 105.4356,408.3695 104.6756,429.2605 C103.9246,457.1505 101.5666,485.0175 101.2036,512.9355 C102.6566,529.0155 95.6716,554.6305 111.7366,564.1985 C147.6656,581.2375 182.4716,601.4055 215.2876,623.8855 C232.9466,637.2975 253.7846,645.4665 272.9076,656.5275 C277.9286,657.8735 275.9466,650.0515 276.4456,647.1535 C276.8326,622.4795 277.2036,597.8065 277.5796,573.1335 M299.5476,580.5675 C299.1726,580.5695 298.7986,580.5705 298.4246,580.5725 C301.3166,590.7215 289.2066,680.6245 304.9286,665.4455 C360.4256,626.4475 428.2766,611.2025 487.8656,581.8045 C511.7846,573.3135 531.9236,554.4085 557.7026,550.4145 C562.6756,550.4315 562.7036,550.1065 563.4936,544.6755 C567.4446,503.8515 596.5316,381.7065 545.9206,367.5285 C497.0266,356.8075 448.6616,343.4955 399.6226,333.4935 C390.8216,317.3005 449.2636,325.8215 457.3516,328.9755 C478.8656,334.1285 500.1736,340.2615 521.7486,345.0795 C522.9866,345.2415 522.9576,343.5785 522.5756,342.9575 C510.2956,333.4735 496.5156,325.8155 483.8166,316.8285 C428.0026,284.8335 442.1876,264.7845 415.9366,302.9135 C400.8956,319.6615 385.3806,336.0945 373.7436,355.5445 C364.4776,368.2385 356.0586,389.8365 336.8376,381.2005 C316.0526,371.9765 292.9016,372.3525 270.7566,368.7155 C257.8586,371.8855 253.5196,391.0025 243.9136,399.9525 C235.4536,407.1875 237.7206,416.2205 229.1016,422.9435 C225.0416,432.2785 270.2226,445.3565 275.3796,461.8575 C281.2706,470.0245 292.3936,480.3365 303.1786,476.5575 C361.4886,453.8245 422.9516,438.8105 482.3496,418.7035 C503.5926,412.4665 525.1936,407.2945 544.8906,396.6665 C549.1756,393.4315 562.1806,395.3525 557.9846,402.4945 C542.1986,415.4705 521.0026,418.8825 502.2666,426.0285 C435.9206,449.5205 367.8356,468.3995 302.0256,493.0635 C296.4596,494.9455 298.2736,500.8555 298.3426,505.4015 C298.7556,530.4575 299.1486,555.5125 299.5476,580.5675 M563.0406,562.9615 C555.2746,574.9825 544.4506,577.3555 535.3876,582.3745 C503.5116,599.7595 470.2156,614.5995 435.6856,625.9025 C388.9986,642.5965 343.5916,663.5425 299.3266,685.7155 C293.5746,687.8915 281.2656,691.0865 284.1776,680.4745 C249.5086,669.9435 211.6126,646.9195 178.4736,626.3125 C150.7466,613.6335 126.9416,592.8025 97.4076,584.3215 C93.5086,583.3905 87.7966,581.2125 88.1916,576.5285 C78.1736,506.0335 87.6406,434.6575 83.8156,363.5705 C85.0156,348.5845 77.8816,341.3055 96.7206,335.3735 C193.4666,297.6575 291.6566,263.3335 393.5866,242.6055 C396.7706,241.8645 399.8876,241.2485 402.0216,238.2255 C412.1716,231.3485 424.0546,246.8065 432.4116,251.9435 C436.2846,256.3895 445.2306,254.2945 445.4926,261.1875 C449.0726,270.3245 460.7616,274.5765 467.8256,281.1335 C482.3386,291.4165 497.5846,300.6055 511.1576,312.2905 C530.3916,326.5255 552.3006,337.3695 565.1906,358.5735 C567.6766,361.3565 570.4366,363.7005 574.6446,361.8615 C580.9896,364.6925 588.2296,370.7535 591.3196,378.5925 C610.7726,436.9615 593.5206,496.4445 590.2556,555.5035 C592.3816,584.5925 564.2766,586.1995 563.0406,562.9615" id="Fill-1" blush:i="0.0.0.0.0"/><path d="M85.6137,300.9922 C71.6897,282.4332 58.2247,262.6202 41.4637,247.1202 C26.8657,242.7372 26.4147,251.4122 35.7267,260.1842 C86.8147,308.7742 41.2327,283.1672 17.5217,315.4932 C16.7187,318.4072 19.7317,318.2452 21.7387,317.5182 C43.5367,312.3232 64.0377,308.1522 85.6137,300.9922 M37.6527,288.7942 C25.3527,272.5592 -1.9853,251.6752 22.5747,231.5392 C48.9647,224.5642 65.7667,250.8712 81.8517,267.6332 C88.3267,274.6752 128.7597,322.1482 100.9977,317.1752 C95.5057,314.4022 90.7327,314.7882 85.4237,316.6432 C61.3457,324.0212 36.3307,331.1142 11.1107,331.9572 C-18.7393,322.5312 18.9587,287.8672 37.6527,288.7942" id="Fill-4" blush:i="0.0.0.0.1"/><path d="M198.0727,161.354 C186.2277,160.715 188.5017,168.979 195.8577,173.523 C204.3497,176.708 229.9087,201.904 235.6687,194.917 C247.8787,164.539 254.7977,146.117 215.3737,167.898 C209.0187,171.912 204.1927,159.169 198.0727,161.354 M262.2057,160.397 C260.6637,179.753 249.6707,198.4 247.0567,217.649 C247.0357,222.266 242.6847,225.311 237.8907,224.8 C228.9457,221.524 230.9257,209.781 216.6417,204.987 C201.3667,194.861 175.8277,185.623 174.2227,164.934 C174.5407,155.461 182.3117,148.794 191.7337,149.933 C200.0847,148.879 207.5357,160.441 214.8627,154.113 C229.1107,139.461 265.4897,128.098 262.2057,160.397" id="Fill-7" blush:i="0.0.0.0.2"/><path d="M338.1831,16.2022 C336.9191,28.4682 314.7411,103.3192 298.4151,87.2092 C298.8141,69.0502 282.9651,63.8062 269.5971,55.9562 C255.1651,49.3382 231.6531,20.7262 258.2091,14.6472 C264.9681,14.0392 277.3321,13.6612 280.3411,20.9342 C275.7641,25.0582 255.9411,20.3142 262.8391,31.7372 C267.9121,37.0872 302.6201,65.6182 306.9061,57.4132 C319.5121,27.3212 336.7921,2.3592 290.0691,28.4232 C285.3451,30.9542 284.9481,22.7542 287.1941,20.3492 C297.1501,5.4232 338.4441,-14.6798 338.1831,16.2022" id="Fill-9" blush:i="0.0.0.0.3"/><path d="M489.4467,162.1035 C485.0537,174.8735 495.9267,189.9895 498.1287,203.1765 C500.1347,213.0665 526.5477,176.3655 526.6777,172.4015 C522.4407,171.2875 518.2417,171.0315 514.6367,174.2055 C505.2037,180.3515 499.4757,162.4075 489.4467,162.1035 M477.1517,179.0595 C464.1267,160.2085 478.7807,134.9085 499.3097,154.7945 C506.6127,166.6005 517.8067,159.7315 528.4137,157.2985 C540.7767,153.3435 552.2387,166.5765 546.0647,178.1085 C538.9647,188.8125 531.2247,199.3795 523.6907,209.9005 C483.1507,266.0915 485.9477,211.0935 476.6557,175.1825 C475.1367,176.4995 476.5397,177.6945 477.1517,179.0595" id="Fill-11" blush:i="0.0.0.0.4"/><path d="M482.979,492.2266 C481.218,460.5326 448.092,512.1916 439.127,504.5176 C432.235,494.6866 406.884,499.5086 419.005,512.5006 C431.333,519.4186 445.552,522.2746 457.596,529.6826 C461.346,531.8216 467.327,536.1486 469.384,530.0626 C474.039,517.8136 481.611,505.2666 482.979,492.2266 M501.356,491.6596 C503.125,511.1376 491.327,528.4586 485.542,546.4296 C482.427,555.5316 472.676,559.7996 464.963,552.9066 C448.681,537.3296 424.257,537.5406 407.73,522.7936 C383.669,502.2636 412.631,471.9716 436.766,487.5436 C444.472,492.4246 449.107,478.3086 455.746,475.4086 C472.017,460.3926 506.618,464.0336 501.356,491.6596" id="Fill-13" blush:i="0.0.0.0.5"/><path d="M193.9174,514.9053 C196.3754,506.3383 194.7994,489.9293 205.1864,484.3853 C226.9504,472.8623 215.0834,552.3333 202.5144,535.9643 C194.3294,530.2983 193.7824,525.6833 193.9174,514.9053" id="Fill-15" blush:i="0.0.0.0.6"/><path d="M156.5678,479.5815 C155.8388,488.4735 154.1598,518.7165 140.1738,508.6285 C133.4958,497.8975 137.1788,484.4775 139.8648,472.9635 C145.7928,458.9455 158.6678,466.2335 156.5678,479.5815" id="Fill-17" blush:i="0.0.0.0.7"/><path d="M162.6831,554.0117 C171.8091,555.2337 180.0741,557.2457 186.0911,564.3627 C184.6471,583.2067 126.8201,560.4177 162.6831,554.0117" id="Fill-19" blush:i="0.0.0.0.8"/></g></g></g></g></svg>