<svg viewBox="67.60000000000002 78 858.0000000000002 884.0000000000002" xmlns="http://www.w3.org/2000/svg" xmlns:blush="http://design.blush" overflow="visible" xmlns:xlink="http://www.w3.org/1999/xlink" width="858.0000000000002px" height="884.0000000000002px"><g id="Master/Composition/Sticker" stroke="none" stroke-width="1" fill="none" fill-rule="evenodd" blush:i="0"><g id="Stickers" fill="#000" blush:width="1040" blush:height="1040" blush:component="Stickers" blush:i="0.0" transform="scale(1 1)"><g id="Stickers/Desert" stroke="none" stroke-width="1" fill="none" fill-rule="evenodd" blush:i="0.0.0"><g id="Ink" transform="translate(67.000000, 79.000000)" fill="#000" blush:i="0.0.0.0"><path d="M705.792813,251.635559 C710.257797,282.233355 692.670313,408.595165 719.677418,413.783425 C734.067871,418.622566 761.416018,427.530316 766.377324,406.899991 C773.568739,375.732381 775.051034,340.238367 810.837592,329.004747 C860.423018,312.451592 846.619387,416.513587 855.867534,445.045211 C858.631118,477.529387 862.64265,515.033448 839.062161,541.176418 C813.439229,568.266858 770.442203,559.056603 737.184882,569.248575 C724.608239,574.791661 734.520371,593.678297 733.702061,604.471476 C739.101576,628.667183 732.207382,652.182729 731.230934,676.444074 C728.655971,738.599503 735.740692,800.615095 733.077134,862.723912 C735.094808,874.830803 719.991787,892.749039 713.645355,873.594144 C712.544113,850.848181 712.311671,828.029921 711.685792,805.254469 C708.30395,761.007763 704.909724,714.766232 707.429434,669.672891 C705.330787,659.937531 707.599955,650.342961 709.195613,640.925327 C713.223339,620.147555 706.400592,599.706534 708.127713,579.022937 C714.090234,537.444561 774.141271,549.168088 804.737892,538.906673 C845.778213,530.231035 837.768487,477.008088 834.801039,445.460919 C828.259318,413.252613 830.503718,379.930362 823.500924,347.947508 C822.602592,344.457276 820.297224,343.266278 817.264045,344.599968 C778.207103,356.406255 797.728429,405.758459 773.562071,429.41955 C750.123524,447.077137 707.177939,436.320107 689.781934,413.356302 C670.161534,384.322404 683.201155,345.675861 679.310608,313.609295 C674.866582,270.870362 694.427918,140.819503 664.928729,119.023865 C641.778829,99.7824037 618.388866,68.6090858 585.186797,85.2754432 C565.832182,93.2985058 548.803892,109.272334 543.39485,129.796116 C533.945697,162.922404 523.407687,196.264631 525.633987,231.204051 C531.212597,284.612497 535.890971,337.370269 534.34485,391.176348 C531.414555,406.236 542.83375,446.012659 525.129092,450.789968 C509.275397,476.949109 479.007434,485.251847 449.633039,482.339039 C417.410276,486.62549 403.399924,451.80593 396.137061,426.470594 C390.555592,407.506905 379.893739,390.712125 371.687771,372.811012 C364.159124,359.218227 346.821229,365.724005 341.855161,376.795907 C332.751813,400.728111 338.876282,428.454956 338.117034,453.708483 C346.268703,479.434794 326.835018,561.327299 365.68905,560.043077 C415.564076,563.092868 466.549871,561.703053 515.23125,573.454167 C544.785692,579.325443 530.722945,629.333077 540.583634,651.924933 C551.779913,711.978993 547.318739,773.079457 548.792461,833.824144 C547.528318,846.170756 559.137087,873.894747 538.970829,873.021476 C524.637534,865.074515 530.071345,842.183007 526.884792,828.154538 C526.885745,760.619643 523.642034,693.523285 511.149224,627.025281 C507.921708,617.309898 515.613255,598.346209 506.969076,592.601452 C461.313255,579.21129 413.064371,583.484422 366.017708,579.768738 C322.220471,581.489596 319.812218,529.912357 319.284461,497.418668 C320.603855,448.636278 293.552929,355.630965 363.723771,346.479689 C391.653976,347.776278 412.787155,421.23477 423.429955,444.405954 C433.185855,470.04665 468.496097,460.468251 489.261561,455.689991 C517.038392,447.636487 512.80585,402.943633 511.762718,379.321545 C513.119266,319.173309 499.363266,259.939248 503.835871,199.826209 C512.667718,141.388367 534.640166,62.5370905 606.868692,62.8708768 C638.537024,64.998993 660.090313,94.3991323 683.197345,113.154492 C717.93315,148.324121 700.654318,207.245211 705.792813,251.635559" id="Fill-1" blush:i="0.0.0.0.0"/><path d="M207.71145,265.8792 C285.28756,265.742405 291.919414,203.180493 244.283807,154.546034 C228.953004,133.774077 199.554518,135.615111 176.249679,134.552099 C172.612733,135.332971 171.078128,139.164184 167.080155,138.225618 C144.934604,141.211361 133.731325,165.087806 125.900175,183.558946 C113.466164,228.377392 166.609581,267.28135 207.71145,265.8792 M108.588961,174.77556 C89.4687999,202.008235 111.801057,139.782612 117.658463,135.011883 C129.912437,122.79817 143.956306,111.673118 162.544928,111.022391 C188.162629,110.811499 215.204435,111.88211 238.519753,123.34915 C271.611387,147.874422 300.39927,191.54246 291.296427,234.192134 C282.17358,268.927641 241.975709,281.410194 209.565169,281.940275 C151.036824,284.034 99.3565675,230.744707 108.588961,174.77556" id="Fill-4" blush:i="0.0.0.0.1"/><path d="M418,127.118405 C400.109609,150.422833 366.083975,155.827436 346.534051,177 C324.442286,153.876967 412.945666,88.0689295 418,127.118405" id="Fill-6" blush:i="0.0.0.0.2"/><path d="M79.2832871,322.823011 C86.5673966,304.328752 94.995142,277.180324 115.960842,271 C143.012558,275.779908 112.525158,312.772239 107.021948,326.505656 C103.123841,332.377107 90.7053136,350.158288 85.1763075,337.623184 C83.6505044,331.686909 77.6351904,330.275053 79.2832871,322.823011" id="Fill-8" blush:i="0.0.0.0.3"/><path d="M176.046629,341.552522 C175.564586,333.985481 178.936974,325.838637 180.764524,317.432937 C183.638577,309.533489 197.926427,310.353044 199.995477,319.208641 C212.721237,352.174271 181.2274,411.085815 176.046629,341.552522" id="Fill-10" blush:i="0.0.0.0.4"/><path d="M385,290.892998 C380.191194,307.517772 348.688669,285.659255 340.714874,278.933411 C333.720334,269.578356 326.222857,255.317973 343.982542,255 C360.024254,261.445838 378.71851,274.454261 385,290.892998" id="Fill-12" blush:i="0.0.0.0.5"/><path d="M146.032628,38.1117072 C145.448476,25.3490358 152.784742,28.6623491 161.869648,26 C168.960608,30.5492017 175.057937,75.582714 170.329357,81.2479891 C154.930452,87.8170666 146.352385,49.5016932 146.032628,38.1117072" id="Fill-14" blush:i="0.0.0.0.6"/><path d="M291.867664,31.7728375 C293.43945,21.7302839 291.034521,3.28628393 304.05045,0.676980357 C308.974093,0.195248214 316.2612,2.59917679 317.025879,8.53706964 C322.529057,29.2676411 286.373164,82.3424089 292.11645,31.7927125 C292.033521,31.7860875 291.950593,31.7794625 291.867664,31.7728375" id="Fill-16" blush:i="0.0.0.0.7"/><path d="M28.3684312,192.946095 C22.1016344,192.537524 -10.7830844,185.682286 3.60815,175.053714 C31.2840406,167.378476 100.197837,192.073714 28.3684312,192.946095" id="Fill-19" blush:i="0.0.0.0.8"/><path d="M263.22784,329.249601 C264.725624,324.220013 272.216413,323.672537 273.858933,318.484768 C273.913093,318.220502 275.131677,317.848256 275.470639,318.065163 C283.714989,320.954097 289.023532,344.284372 281.104138,348.963499 C274.136266,349.738302 261.121231,338.015859 263.22784,329.249601" id="Fill-22" blush:i="0.0.0.0.9"/></g></g></g></g></svg>