<svg viewBox="182 52 676 792.9999999999999" xmlns="http://www.w3.org/2000/svg" xmlns:blush="http://design.blush" overflow="visible" xmlns:xlink="http://www.w3.org/1999/xlink" width="676px" height="792.9999999999999px"><g id="Master/Composition/Sticker" stroke="none" stroke-width="1" fill="none" fill-rule="evenodd" blush:i="0"><g id="Stickers" fill="#000" blush:width="1040" blush:height="1040" blush:component="Stickers" blush:i="0.0" blush:value="Boot" transform="scale(1 1)"><g id="Stickers/Boot" stroke="none" stroke-width="1" fill="none" fill-rule="evenodd" blush:i="0.0.0"><g id="Ink" transform="translate(190.000000, 53.000000)" fill="#000" blush:i="0.0.0.0"><path d="M163.855348,267.509848 C144.923771,266.736965 112.95192,265.081881 90.938278,265.137633 C80.52092,263.941687 95.5253314,292.605037 92.5674805,299.727147 C93.9837443,410.171777 103.11238,520.320153 106.415147,630.570196 C107.213667,640.536777 105.74195,683.49026 119.002927,680.739803 C149.694928,677.430727 180.107447,681.961985 210.618672,684.229254 C221.542868,682.510765 209.295569,620.400282 212.482994,607.184751 C227.352101,569.790121 251.886626,631.413043 261.800473,644.094006 C272.061454,655.463145 288.291372,662.140328 302.436265,668.610899 C346.360407,689.992533 383.840936,687.719799 431.058973,683.413737 C468.960944,681.937935 506.514671,676.897252 544.202594,673.231798 C547.784843,672.883072 548.981514,671.131787 548.398151,667.53411 C540.633653,628.556546 541.699456,570.227395 494.948331,556.699213 C459.902179,546.719513 423.572849,554.314973 387.977713,549.626296 C373.083098,549.727963 366.862406,569.491681 355.551149,577.356064 C348.182585,586.577092 325.94935,591.285447 336.498686,573.180092 C355.144126,535.061773 360.374432,547.08901 325.769683,520.967319 C304.453637,492.458109 304.564542,513.575192 283.448126,528.687402 C254.477379,548.064133 243.916953,527.23893 267.241499,504.901851 C275.155719,494.304501 299.637009,483.578155 292.913915,468.657253 C279.341294,417.472076 278.655898,449.92441 241.366126,460.356688 C232.474828,462.406413 232.034533,449.037836 237.565392,444.865143 C246.838205,431.767676 279.781589,425.766082 274.882891,407.801748 C228.516609,250.72397 316.266187,270.857185 163.855348,267.509848 M401.309669,500.576112 C408.078235,509.652839 401.533698,517.160844 398.634627,526.044077 C445.385751,532.169201 501.454051,520.338737 538.70057,557.593439 C558.885379,577.349505 568.748209,606.135292 573.360771,633.451835 C573.150051,654.250801 593.500109,685.897457 572.453564,700.459794 C569.100889,702.341168 565.519749,702.793747 561.793323,698.835319 C548.136413,691.38088 528.593747,699.715334 513.288782,699.580872 C480.440777,703.932847 447.440831,704.518795 414.374342,704.234567 C377.287528,704.77788 339.714946,708.465198 304.937185,692.894943 C242.401983,681.718205 232.493682,630.099032 236.568352,682.392701 C236.891087,689.432822 240.636367,701.653553 229.502559,701.277497 C193.800955,703.544766 157.555913,694.034044 122.271313,699.808255 C71.7749086,717.146192 84.6222071,615.480943 78.3338626,586.251323 C68.9678892,479.086252 56.0152304,368.123452 70.4795318,261.678791 C69.0865581,256.441335 69.9183497,254.917433 74.5508744,254.335858 C126.972599,247.560288 179.978796,249.484296 232.699966,248.51136 C251.132468,247.39959 271.083267,246.781939 284.368642,261.404401 C293.153471,273.270941 288.585271,291.320543 290.780092,305.428114 C291.117245,333.331699 297.214832,360.507222 302.92314,387.698049 C304.128684,402.685636 316.1331,387.429125 323.134567,394.946969 C329.745647,401.018526 318.374501,407.088991 314.961937,411.756897 C305.94088,422.125771 317.723486,438.03382 318.385592,450.210825 C324.255822,459.020814 335.914213,434.984923 346.805138,441.544042 C369.900109,455.10502 325.055451,472.608029 332.40738,488.03617 C340.13306,501.353368 349.795152,512.848223 364.16962,519.689384 C378.383274,522.466078 376.190672,498.475008 401.309669,500.576112" id="Fill-1" blush:i="0.0.0.0.0"/><path d="M651.623382,610.910341 C638.681732,610.41644 632.484571,610.66883 629.266814,597.237779 C628.023189,593.334441 631.312672,587.459853 635.283004,587.674166 C652.082431,582.110713 682.727261,612.866361 651.623382,610.910341" id="Fill-3" blush:i="0.0.0.0.1"/><path d="M267.44679,103.131208 C282.466065,101.402011 279.837172,117.176252 276.109441,126.195611 C260.946792,142.617475 239.80073,100.390926 267.44679,103.131208" id="Fill-5" blush:i="0.0.0.0.2"/><path d="M93.041165,179 C88.6344777,178.17902 84.0773455,177.560009 85.0294145,172.332811 C72.8445031,147.561479 100.707117,150.570285 110.469192,165.543348 C114.075378,174.393995 98.3168398,175.18004 93.041165,179" id="Fill-7" blush:i="0.0.0.0.3"/><path d="M21.7064058,463.164557 C33.5863966,461.987252 26.5290955,487.523192 17.9211361,483.587193 C14.0461318,481.165963 8.28560572,477.027922 10.486293,471.780288 C12.2131377,466.601457 14.7125756,462.070253 21.7064058,463.164557" id="Fill-9" blush:i="0.0.0.0.4"/><path d="M349.841084,304.667593 C350.42364,315.849043 338.278284,309.649162 333.614476,305.530797 C325.238407,291.233772 352.302134,289.426963 349.841084,304.667593" id="Fill-11" blush:i="0.0.0.0.5"/><path d="M17,653.243178 C13.199001,660.005523 4.60519544,659.264794 0.888985359,652.876007 C-4.33892231,636.329866 15.1179086,634.970799 17,653.243178" id="Fill-13" blush:i="0.0.0.0.6"/><path d="M399.390555,377.220141 C405.018864,376.897127 412.227352,384.283377 404.884288,387.511362 C398.819693,388.579461 392.774634,401.810108 388.947906,390.371111 C388.374873,388.539623 387.499045,385.418232 388.362935,383.767632 C393.666742,384.518101 393.322705,375.493094 399.390555,377.220141" id="Fill-15" blush:i="0.0.0.0.7"/><path d="M99.9986965,11.4242926 C98.1194935,25.4352608 73.413664,9.52074704 83.3454892,2.05055782 C90.9407393,-3.54335723 100.125744,3.21450232 99.9986965,11.4242926" id="Fill-17" blush:i="0.0.0.0.8"/><path d="M360,771.725383 C358.686525,774.933728 353.637163,776.549339 351.059965,778.818603 C349.290975,780.325273 348.13118,783.00198 345.263205,781.611879 C342.192901,780.113925 340.273546,775.710485 341.260864,772.547896 C344.86297,766.210733 359.84853,759.717784 360,771.725383" id="Fill-19" blush:i="0.0.0.0.9"/><path d="M466.132314,449.947931 C455.632481,450.679041 453.747981,437.30265 462.775792,433.256878 C471.313299,430.479334 479.048086,451.169063 466.132314,449.947931" id="Fill-21" blush:i="0.0.0.0.10"/><path d="M108,751.583006 C107.457322,770.379867 79.2944113,748.134272 94.4993545,743 C98.7004149,745.643702 106.931222,746.305447 108,751.583006" id="Fill-23" blush:i="0.0.0.0.11"/></g></g></g></g></svg>