<svg viewBox="114.39999999999998 150.79999999999995 780.0000000000001 722.8000000000001" xmlns="http://www.w3.org/2000/svg" xmlns:blush="http://design.blush" overflow="visible" xmlns:xlink="http://www.w3.org/1999/xlink" width="780.0000000000001px" height="722.8000000000001px"><g id="Master/Composition/Sticker" stroke="none" stroke-width="1" fill="none" fill-rule="evenodd" blush:i="0"><g id="Stickers" fill="#000" blush:width="1040" blush:height="1040" blush:component="Stickers" blush:i="0.0" transform="scale(1 1)"><g id="Stickers/User Interface" stroke="none" stroke-width="1" fill="none" fill-rule="evenodd" blush:i="0.0.0"><g id="Ink" transform="translate(111.000000, 152.000000)" fill="#000" blush:i="0.0.0.0"><path d="M145.019252,327.307536 C148.395242,341.009716 139.931194,420.137134 153.592505,417.382832 C163.893091,413.001096 181.85923,416.132586 185.279842,402.967401 C196.903816,365.192108 214.085551,328.332174 240.231567,299.152323 C271.79678,262.798832 316.985729,240.926576 356.053273,280.720593 C467.064048,383.003415 393.521479,332.223917 478.655143,294.426298 C504.924456,287.743827 541.679887,337.539813 562.203559,353.339446 C584.876121,370.329397 571.621103,380.918888 551.446186,365.53522 C540.652412,356.505012 529.632006,347.743889 518.893422,338.647879 C505.842725,331.061799 490.649008,301.422506 474.89517,317.882513 C455.873374,332.769137 442.977679,377.222201 413.038812,360.857373 C375.191321,338.154361 351.41026,289.142129 307.516517,278.312929 C248.404398,289.325435 222.2302,354.39581 197.867881,402.698316 C195.723687,407.127054 197.126925,409.212756 201.975434,408.993023 C330.549576,400.545636 459.028604,392.599993 587.924493,391.403799 C662.653062,390.768101 631.100765,381.152721 627.487574,305.356551 C622.02258,266.021976 619.665846,226.421841 615.646363,186.970936 C617.65082,170.721262 605.258881,178.972416 595.256557,178.722132 C532.14844,180.179186 469.073202,179.406007 406.016753,183.632638 C320.203194,191.178766 233.925804,189.580707 148.156868,197.444097 C143.715826,198.19965 142.425317,199.648479 142.545091,204.383903 C143.731091,245.398791 146.962648,286.251522 145.019252,327.307536 M256.631246,420.097182 C251.903685,426.826655 242.199622,420.309865 236.383525,423.393179 C210.190539,429.021636 182.250258,428.331886 155.355066,431.634933 C141.045565,433.619581 149.993406,456.482399 146.70666,466.734652 C143.205024,516.16285 147.017838,565.719127 149.4098,615.117948 C298.75186,615.075647 461.371248,612.073411 614.992301,619.955602 C692.000103,621.472583 660.744893,622.176434 656.360216,526.187144 C651.267462,488.64216 648.657087,450.623633 642.525115,413.224354 C638.897834,394.081723 641.14184,396.020545 622.808159,396.891252 C611.321572,397.436472 599.833812,397.978167 588.343703,398.444659 C498.106717,401.295314 406.488804,409.914257 318.042561,417.393408 C313.430077,419.613064 306.795523,417.829349 301.767353,417.274728 C288.04498,420.251113 269.968462,428.109803 256.502077,420.041955 C257.864216,420.918538 259.200521,421.307477 260.792814,420.85391 C259.457683,420.305165 258.062666,420.151234 256.631246,420.097182 M611.353277,163.861359 C615.372761,154.1132 607.623836,111.95852 606.373252,98.6335289 C571.61758,99.6182153 536.666982,102.020004 501.90544,103.775519 C380.469608,109.52148 259.125369,117.256791 137.556846,119.709106 C123.746404,117.588153 103.611412,123.953363 93.475222,113.448475 C91.0973507,108.400489 98.2485784,107.454579 101.604606,106.560371 C231.469258,90.8065653 362.85105,88.437678 493.431998,80.8856745 C524.104776,79.3733938 554.775206,77.8235116 585.447984,76.2947802 C604.578986,75.3288946 631.57399,69.6828114 637.197509,94.5443782 C664.052776,265.227647 666.310873,436.411484 684.882929,607.833855 C686.403592,620.772257 683.729808,639.934863 666.784099,638.987779 C639.210186,636.003168 611.53881,634.503813 583.774668,634.767023 C523.202947,633.495626 462.590127,634.712971 401.996095,634.710621 C315.226691,633.767061 227.490873,639.192236 141.562238,625.74739 C126.158329,629.889418 133.903731,595.76381 130.302283,586.712451 C128.557337,560.331553 125.811923,533.963581 125.46082,507.518056 C127.107129,421.731668 120.71682,336.075709 120.41621,250.282271 C117.629697,216.122586 121.29338,180.501148 112.818765,147.253297 C108.855646,125.893359 136.731343,133.059948 136.566947,150.463515 C143.276654,218.613678 145.700321,173.951456 244.678479,175.590642 C310.348826,174.252267 376.724901,164.545234 441.492244,166.823643 C495.555056,159.792184 555.08521,166.615661 611.353277,163.861359" id="Fill-1" blush:i="0.0.0.0.0"/><path d="M37.2625987,686.148816 C57.0422081,687.900548 83.0360208,689.80808 101.713998,701.163855 C113.372178,706.681878 127.976341,724.027141 104.39014,719.143155 C74.6814281,711.323358 44.0217235,710.631065 13.9554072,705.595344 C-21.0191341,689.413839 18.5086471,685.097506 37.2625987,686.148816" id="Fill-3" blush:i="0.0.0.0.1"/><path d="M782,556.414957 C761.636005,562.515407 748.378103,519.205094 736.642206,505.627264 C732.170599,494.737723 716.475958,481.218905 724.019643,469.408789 C727.561207,467.276517 733.684949,463.59815 736.838676,468.237744 C756.270076,494.985571 768.620899,526.147438 782,556.414957" id="Fill-10" blush:i="0.0.0.0.2"/><path d="M245.342522,28 C232.167194,24.8366571 131.751296,25.2235408 145.244165,4.20063055 C154.811427,-6.85165848 306.995859,27.2851354 245.342522,28" id="Fill-20" blush:i="0.0.0.0.3"/><path d="M328.0571,0 C339.541121,1.20925122 401.646442,7.44174773 386.689078,27.1530672 C373.622815,32.9907865 273.725577,6.98663909 328.0571,0" id="Fill-22" blush:i="0.0.0.0.4"/><path d="M541.742174,120.895877 C550.627676,114.060257 557.664192,127.464058 565.789594,119.967496 C568.966691,117.040974 573.057086,115.616592 577.371386,116.089029 C587.759409,120.412836 565.568046,129.58237 574.145972,135.411851 C577.630645,139.302099 586.051837,141.883424 584.891066,148.054568 C579.95808,154.331746 571.687729,143.601165 566.517875,141.403917 C560.63506,136.274257 556.285407,144.295095 551.213365,146.461711 C547.908995,148.173562 539.189655,148.861601 541.335609,142.880138 C549.605961,132.865871 555.138777,130.220927 541.742174,120.895877" id="Fill-4" blush:i="0.0.0.0.5"/><path d="M204.062588,151.341641 C202.675927,136.105514 224.721542,133.809329 231.413896,145.018413 C241.045826,162.727539 203.644542,171.671712 204.062588,151.341641" id="Fill-6" blush:i="0.0.0.0.6"/><path d="M179.522237,138.269033 C195.75515,138.752454 182.449875,172.303322 169.023862,160.47595 C158.104691,152.220047 166.531364,135.696065 179.522237,138.269033" id="Fill-8" blush:i="0.0.0.0.7"/><path d="M268,147.557097 C267.765976,155.415912 255.82492,160.877715 250.722034,153.551319 C242.682151,137.939721 265.251392,128.644955 268,147.557097" id="Fill-10" blush:i="0.0.0.0.8"/><path d="M536.618403,267.71341 C570.988409,266.407416 539.632776,234.637635 523.79282,229.244231 C499.928738,225.766286 513.575669,271.110172 536.618403,267.71341 M540.397316,287.784542 C511.685621,289.932962 488.840532,268.98999 492.484526,241.32056 C485.778819,194.648325 550.571861,207.324706 569.665257,232.951608 C589.420229,257.591366 571.812125,290.997759 540.397316,287.784542" id="Fill-12" blush:i="0.0.0.0.9"/><path d="M568.014278,540.454321 C568.029535,540.673983 568.044793,540.893645 568.06005,541.114481 C591.0433,539.613263 606.879126,549.474554 594.980837,517.992426 C577.085286,430.000812 571.430723,450.847546 492.084935,459.181776 C480.582161,465.561368 487.681465,516.672105 485.506724,531.72423 C486.791852,541.248393 488.272976,548.742739 499.306297,547.061797 C522.233213,545.324472 545.109662,542.568714 568.014278,540.454321 M460.085839,482.48473 C459.373444,459.602305 462.606802,441.988242 488.506529,440.636206 C514.362832,439.327632 543.443103,432.163365 567.960291,442.494522 C572.015192,446.508343 576.511379,447.141486 581.953514,446.856043 C604.365205,440.632682 617.816209,535.961237 611.394091,550.177002 C609.443513,555.87529 602.83244,554.686531 598.038151,554.801648 C574.040882,553.843124 550.460253,558.034319 526.739962,560.499936 C455.765697,575.932651 462.2864,538.603053 460.085839,482.48473" id="Fill-14" blush:i="0.0.0.0.10"/><path d="M229,497.801799 C232.638435,478.838831 243.448944,458.541867 262.165101,451.109607 C281.697256,441.170518 286.699221,486.734578 303.8399,475.596775 C348.567924,413.395416 338.51454,476.2226 359.031074,468.145693 C368.567542,460.078197 387.226002,434.622882 398.475713,451.87189 C399.225773,461.068694 407.20207,472.744095 402.553351,481.018631 C395.924099,482.712593 391.28009,475.381501 388.574225,470.358431 C377.628305,464.008425 361.758134,503.610678 344.13233,484.882983 C338.953742,481.806794 335.110424,466.802287 328.01371,472.822911 C288.352413,535.138378 275.66499,456.74909 260.329398,475.508548 C252.097586,482.586723 239.566769,518.118761 229,497.801799" id="Fill-16" blush:i="0.0.0.0.11"/><path d="M356.916542,525.69348 C366.926624,527.482815 390.067302,520.407522 392,533.35323 C391.67338,535.952936 389.808826,537.387102 385.326612,537.597282 C341.098968,537.483762 297.009961,543.032725 252.784666,541.82897 C235.742854,526.919714 346.091085,527.0692 356.909493,525 L356.916542,525.69348 Z" id="Fill-18" blush:i="0.0.0.0.12"/><path d="M324.848418,562 C404.215681,563.636354 286.169042,580.536624 267.50551,573.133801 C261.143075,562.896071 316.7909,562.311578 324.848418,562.076189 C324.848418,562.050034 324.848418,562.025017 324.848418,562" id="Fill-20" blush:i="0.0.0.0.13"/><path d="M565.978219,512.660083 C567.336689,538.626708 504.624752,517.224748 525.119426,506.358573 C537.83024,513.215322 549.734205,514.211082 561.192404,504.197269 C566.440452,502.804581 565.354851,509.119857 565.978219,512.660083" id="Fill-22" blush:i="0.0.0.0.14"/><path d="M544.005859,478.416148 C545.043494,455.087645 577.933463,481.595455 564.985475,488.549623 C554.90694,493.120442 543.706859,492.121814 544.005859,478.416148" id="Fill-24" blush:i="0.0.0.0.15"/><path d="M507.093799,481.407482 C505.612585,470.711063 522.138407,472.664035 523.897642,480.512322 C525.586787,492.18807 505.79248,493.774789 507.093799,481.407482" id="Fill-26" blush:i="0.0.0.0.16"/></g></g></g></g></svg>