<svg viewBox="187.20000000000005 124.79999999999995 743.6000000000001 712.4000000000001" xmlns="http://www.w3.org/2000/svg" xmlns:blush="http://design.blush" overflow="visible" xmlns:xlink="http://www.w3.org/1999/xlink" width="743.6000000000001px" height="712.4000000000001px"><g id="Master/Composition/Sticker" stroke="none" stroke-width="1" fill="none" fill-rule="evenodd" blush:i="0"><g id="Stickers" fill="#000" blush:width="1040" blush:height="1040" blush:component="Stickers" blush:i="0.0" transform="scale(1 1)"><g id="Stickers/Flower" stroke="none" stroke-width="1" fill="none" fill-rule="evenodd" blush:i="0.0.0"><g id="Ink" transform="translate(190.000000, 125.000000)" fill="#000" blush:i="0.0.0.0"><path d="M96.6525,636.4621 C90.5565,642.0491 66.4585,662.7021 69.1325,669.4971 C72.9685,670.8571 76.4385,667.0231 78.5005,664.0811 C83.2675,655.3571 96.6075,645.9141 96.6525,636.4621 M159.0135,470.8921 C157.2465,462.6461 161.1685,449.7461 155.6675,443.7731 C140.9575,454.7971 132.0495,474.2571 122.0795,489.7321 C96.1575,534.3171 70.0835,579.4581 61.4985,631.0781 C57.0895,650.3141 53.0815,676.7591 72.5705,644.5521 C84.7985,625.3111 101.5485,610.2791 118.7355,595.8421 C140.0595,577.9291 137.3435,583.8031 145.0865,555.4491 C150.7685,527.5241 160.3045,499.6831 159.0135,470.8921 M323.3335,509.4921 C251.9275,524.9491 174.3685,558.5181 131.3855,619.4621 C128.6345,626.6721 87.5665,668.0851 100.2155,668.1701 C124.3605,660.9161 150.9145,659.7551 173.0385,647.1051 C203.9265,628.1291 237.2085,612.9011 264.8605,589.1611 C276.6085,581.8011 337.3985,516.4581 323.3335,509.4921 M152.6545,418.6461 C140.6265,363.1041 111.3235,313.1231 89.9215,260.8361 C83.9115,252.1221 68.5235,291.4861 63.3905,296.0051 C45.3065,336.9701 32.7325,379.6091 26.3615,423.9751 C15.0105,495.9921 28.2365,569.7211 40.9875,640.6791 C44.0615,644.0111 44.9435,637.2361 45.2155,635.1031 C48.9945,603.7641 58.8245,574.2631 72.9355,546.2021 C95.1865,500.9751 120.6945,457.4691 152.6545,418.6461 M380.7175,342.1561 C378.3435,318.1881 393.4485,301.9531 360.7345,313.6691 C294.6715,331.6921 228.8775,363.1601 181.0855,413.1561 C171.3135,420.7811 176.0355,431.7811 176.3795,442.3761 C179.8575,469.7551 177.4325,496.6661 170.3215,523.2621 C146.9295,600.5271 176.7355,537.0981 244.7365,515.4351 C265.4015,507.7781 285.8175,499.1841 307.5275,494.7811 C318.4695,489.9371 335.9185,495.8051 342.5775,484.7451 C361.7665,439.1951 383.3385,392.7721 380.7175,342.1561 M223.8745,687.7901 C339.8425,697.8811 474.2425,666.2941 529.9485,552.6291 C526.8815,525.4981 444.4085,503.2171 418.9885,504.1791 C401.0375,507.4841 358.1845,499.8081 347.2265,512.4501 C310.9885,585.9411 240.3335,632.3681 169.1195,667.9401 C157.2565,672.3171 145.5065,677.5131 132.3035,674.7751 C108.3135,688.8781 213.3445,685.6021 223.8745,687.7901 M275.7395,708.5551 C222.0265,706.6251 162.6735,707.3661 109.3085,695.2811 C91.5485,690.1361 73.8545,686.9981 55.9215,693.2861 C43.8355,694.5511 45.2915,684.4541 39.8025,677.9171 C14.0745,643.3401 13.7145,595.5731 6.1335,554.3731 C-11.6425,458.6881 10.4255,357.3131 56.7245,272.6001 C64.0775,261.3511 87.8795,219.5761 97.2485,247.7971 C116.9825,265.6151 122.5115,293.1341 136.4895,315.0301 C141.7785,323.0101 144.3005,332.0911 146.9155,341.1051 C153.9855,348.5331 156.1565,358.3271 159.2135,367.5251 C170.4915,389.0761 160.9195,415.8021 188.4535,385.4681 C243.5365,336.5121 315.7825,312.1081 385.4295,291.9221 C402.7245,288.2241 390.5275,300.2901 393.9125,309.0361 C401.9185,349.3671 400.5705,391.6601 385.0325,430.0781 C384.6625,438.5361 354.7825,490.4091 366.4705,488.1941 C401.5285,487.5421 437.5305,480.9271 471.3105,493.4101 C500.6705,501.3981 527.1055,513.4951 548.9665,535.1191 C568.1265,549.4761 542.4945,560.1041 538.5325,574.6581 C487.5355,668.2071 378.6695,709.7571 275.7395,708.5551" id="Fill-1" blush:i="0.0.0.0.0"/><path d="M683.1207,653.0001 C655.3717,693.9491 676.1247,723.0631 692.0887,672.9201 C694.3457,663.9391 688.9707,660.6451 683.1207,653.0001 M651.4337,635.5661 C637.7677,637.9161 622.2257,641.4451 610.5167,648.4281 C593.3027,664.3351 576.5797,681.5951 568.1827,703.1331 C559.5977,701.5591 564.1507,689.9581 566.6037,684.6971 C582.8767,650.4241 614.5727,620.9771 654.2947,620.9711 C667.9377,618.7541 676.0597,636.2391 684.0537,619.6241 C699.4857,590.6941 756.6757,603.3181 730.6987,618.7631 C716.9427,620.5431 702.8647,623.6201 694.2427,635.4791 C687.1147,641.9201 697.6607,647.4181 700.3677,653.5371 C711.9357,672.8751 695.4347,702.9911 675.1727,709.0581 C655.1627,713.2751 652.8407,683.4881 659.0457,670.3611 C664.3677,653.2601 680.7237,636.1001 651.4337,635.5661" id="Fill-4" blush:i="0.0.0.0.1"/><path d="M187.1027,217.862 C186.0587,210.668 184.5187,187.847 175.7177,188.279 C148.8027,216.258 174.8837,271.083 187.1027,217.862 M162.1157,175.484 C141.0657,162.338 129.6987,168.575 109.4127,170.945 C138.1957,139.141 158.3537,167.917 176.7787,160.793 C217.1397,124.694 245.6657,161.478 216.3477,162.871 C160.6587,171.624 222.0127,196.27 195.1297,241.651 C184.3077,261.441 154.9387,258.016 152.3797,234.506 C146.1427,213.524 155.6557,195.183 162.1157,175.484" id="Fill-7" blush:i="0.0.0.0.2"/><path d="M490.0304,427.5158 C491.3164,435.5418 491.2424,448.6168 499.8064,452.1558 C506.2584,452.4918 511.4974,446.9748 510.9684,440.6128 C513.6444,425.3278 488.7774,398.5868 490.0304,427.5158 L490.0304,427.5158 Z M479.6364,421.1728 C481.1754,392.7958 438.7504,437.4228 431.6614,443.9518 C408.4294,442.7748 453.8024,386.0328 481.6954,392.9008 C495.1654,391.8448 498.3794,372.9788 511.6554,368.3268 C522.3264,361.0358 549.6184,356.8008 549.2574,375.3528 C541.7924,373.6868 538.5094,370.5618 529.8314,374.1998 C521.7684,376.3398 495.5844,390.4428 504.9064,399.9258 C520.3384,411.9198 525.7434,428.0048 524.3914,446.9828 C523.2994,457.4598 511.5574,461.5208 502.7934,464.1178 C481.4524,466.7108 480.1964,436.3478 478.9964,421.2178 L479.6364,421.1728 Z" id="Fill-9" blush:i="0.0.0.0.3"/><path d="M66.6754,82.7657 C83.5954,86.0077 87.0854,65.2807 74.0024,58.3147 C63.8504,53.0247 51.2684,40.5527 49.6304,60.0237 C47.8824,72.1067 56.4264,82.3987 66.6754,82.7657 M67.6124,94.3697 C16.5284,87.6727 49.8364,36.0197 36.3344,37.4727 C-26.4476,36.9547 15.9244,-0.1093 50.6754,22.1597 C64.3454,17.1077 74.9024,-3.6793 93.0084,0.5687 C97.7464,2.0897 93.4744,6.6227 90.3544,6.9417 C83.4684,10.1857 57.7094,27.7927 67.4204,35.2737 C80.8144,44.2567 96.2814,55.0277 92.3534,73.4117 C90.2184,86.9347 81.3654,94.3087 67.6124,94.3697" id="Fill-11" blush:i="0.0.0.0.4"/></g></g></g></g></svg>