<svg viewBox="187.20000000000005 161.19999999999993 681.2 717.6" xmlns="http://www.w3.org/2000/svg" xmlns:blush="http://design.blush" overflow="visible" xmlns:xlink="http://www.w3.org/1999/xlink" width="681.2px" height="717.6px"><g id="Master/Composition/Sticker" stroke="none" stroke-width="1" fill="none" fill-rule="evenodd" blush:i="0"><g id="Stickers" fill="#000" blush:width="1040" blush:height="1040" blush:component="Stickers" blush:i="0.0" transform="scale(1 1)"><g id="Stickers/Dreamer" stroke="none" stroke-width="1" fill="none" fill-rule="evenodd" blush:i="0.0.0"><g id="Ink" transform="translate(190.000000, 161.000000)" fill="#000" blush:i="0.0.0.0"><path d="M401.2371,295.2467 C396.3211,155.8767 392.4891,265.8297 197.8861,288.8457 C190.3031,286.7427 173.7381,316.0327 184.3501,317.5277 C189.2231,319.4247 189.9041,322.5327 189.6971,326.7787 C185.0441,362.6117 198.7071,380.2647 214.2071,337.1757 C218.3831,330.1687 225.0291,303.0247 234.5691,318.6907 C234.5791,333.7077 228.7141,349.7897 220.8711,362.6107 C210.6751,379.4107 178.6171,380.2947 177.1471,357.1177 C175.9301,347.2187 178.5831,335.1647 175.7331,326.2947 C158.7891,360.6907 148.5731,401.5447 140.8771,439.8587 C134.2581,492.7097 130.2161,584.5317 194.4041,601.4667 C262.2481,614.9137 313.3741,555.2447 347.9521,504.9127 C393.1701,441.7577 397.8771,370.0567 401.2371,295.2467 M442.8941,310.3397 C444.1231,362.6627 443.6541,416.5807 442.8071,469.1267 C442.6191,496.5457 431.6121,522.1947 429.2061,549.3777 C429.2581,556.2447 422.9861,559.7197 422.8511,566.0787 C405.7301,620.0477 380.9691,678.3957 330.1171,708.1437 C307.8281,722.4817 264.7731,724.4477 258.2511,692.1527 C246.9751,669.1217 284.2711,606.6007 269.0701,607.4347 C252.6741,613.3437 236.0911,619.5307 218.3301,618.2307 C177.0271,627.4917 157.6681,593.6537 146.9691,599.9637 C121.7111,627.2507 90.8791,648.3757 65.8351,675.8187 C48.9001,692.9647 33.0691,715.5007 7.0891,698.5997 C-20.8049,671.5537 41.7241,524.2007 54.8681,486.7577 C89.1861,407.9157 126.2581,328.2217 178.5351,260.4767 C231.9281,202.5437 332.0001,127.0537 405.7601,192.0437 C427.8301,226.2997 443.7711,269.0077 442.8941,310.3397" id="Fill-1" blush:i="0.0.0.0.0"/><path d="M130.8504,29.5368 C96.2644,45.5628 62.9284,76.2658 69.0214,116.6698 C70.6394,126.2538 75.4164,133.6398 85.5104,136.1388 C94.3544,136.9778 106.2074,144.3458 113.1164,135.8798 C116.6334,130.3698 127.5964,125.8558 131.0534,133.6828 C137.7574,149.9168 120.7834,148.1628 119.0144,157.8338 C117.5304,185.6838 142.9594,208.3548 170.1244,196.7598 C194.5924,187.6398 220.3834,175.3878 233.8794,151.9488 C236.7814,146.2758 243.3144,134.6938 235.4794,130.6148 C226.0884,126.6478 216.0824,122.1068 213.7944,111.1898 C210.8594,102.9608 220.3484,95.4648 227.4424,100.3418 C237.4214,104.3908 242.6304,122.9448 254.5454,118.8478 C277.7154,110.4238 279.5614,78.9378 274.2144,58.5018 C272.2114,50.5678 264.4604,48.3468 257.3304,46.9288 C246.7674,43.3368 246.0434,62.8598 234.2114,56.7968 C223.7674,54.6538 207.7014,35.2718 225.3654,31.2098 C227.2874,30.8018 230.2774,32.1078 230.6734,29.1508 C217.3124,6.3288 186.6374,11.1448 166.8604,22.6068 C152.8244,26.8018 137.0034,34.5108 131.0824,48.6538 C121.9774,61.5098 129.1924,34.8278 130.8504,29.5368 M53.2674,106.3538 C55.5344,52.2688 108.5474,19.9818 156.9354,13.0678 C179.0974,0.8688 209.2754,-8.0902 230.1624,11.2488 C235.6104,16.0708 240.8444,21.0218 244.5444,27.3998 C267.5044,45.8848 284.4954,27.7568 288.8594,75.7228 C291.0774,98.5318 280.8514,126.6808 255.8414,131.2908 C251.9654,132.0348 250.2824,133.9348 249.7094,137.6598 C246.0854,187.1658 142.1104,246.7558 116.3264,186.4428 C105.1224,173.8168 110.6114,151.4098 100.8064,153.2538 C75.4764,152.1968 50.1174,133.7608 53.2674,106.3538" id="Fill-4" blush:i="0.0.0.0.1"/><path d="M579.674465,391.938869 C570.431465,394.720869 564.931465,393.102869 565.092465,404.726869 C560.093465,408.542869 560.179465,397.814869 555.358465,400.727869 C538.788465,410.192869 525.576465,422.822869 519.211465,441.261869 C513.221465,464.692869 500.956465,500.438869 524.570465,517.368869 C538.839465,528.972869 578.645465,537.000869 581.963465,511.987869 C578.501465,501.915869 593.676465,505.241869 595.479465,511.173869 C597.896465,518.077869 604.459465,518.359869 610.789465,518.390869 C642.634465,519.320869 668.242465,483.669869 661.852465,453.496869 C660.381465,444.048869 624.177465,463.621869 613.988465,435.993869 C611.667465,420.193869 635.202465,426.076869 644.617465,427.751869 C655.544465,430.980869 657.377465,429.272869 656.019465,417.849869 C650.144465,376.025869 623.291465,356.326869 583.117465,374.808869 C579.064465,376.367869 565.008465,385.285869 573.485465,388.640869 C575.883465,389.077869 578.768465,388.389869 579.674465,391.938869 M499.226465,486.025869 C500.724465,458.706869 505.360465,428.169869 527.435465,409.567869 C535.864465,399.027869 552.778465,397.363869 558.821465,385.847869 C571.180465,349.845869 636.201465,345.540869 655.047465,377.695869 C659.928465,386.984869 664.185465,396.698869 667.647465,406.597869 C673.372465,417.507869 665.827465,430.035869 670.716465,440.676869 C676.793465,450.422869 677.364465,461.034869 675.835465,472.209869 C671.726465,508.585869 633.560465,540.243869 597.391465,526.142869 C587.198465,524.157869 580.809465,538.516869 569.425465,537.938869 C536.695465,545.243869 495.580465,523.157869 499.226465,486.025869" id="Fill-6" blush:i="0.0.0.0.2"/><path d="M262.1964,465.5812 C254.7254,465.8422 215.8944,456.2432 238.3674,449.0282 C250.4164,442.9722 277.7314,459.9172 283.0444,446.4722 C274.0334,415.6472 267.6204,383.3062 269.8674,351.1342 C270.1604,347.0392 273.6274,347.2742 277.1774,346.8712 C285.2694,347.2052 282.7884,361.4192 284.9304,367.2962 C286.7744,392.6352 289.1684,417.8242 295.8174,442.4382 C300.7074,462.3632 277.9984,464.1402 262.1964,465.5812" id="Fill-8" blush:i="0.0.0.0.3"/><path d="M314.5381,350.9396 C314.1781,346.6786 313.7771,332.4616 320.9191,338.3146 C322.3881,347.3136 328.5581,393.3826 340.9711,368.7056 C346.1681,360.4896 345.9381,303.1666 359.5491,336.0356 C365.6391,382.7516 318.0811,415.3426 314.5571,350.9396 C314.5501,350.9396 314.5441,350.9396 314.5381,350.9396" id="Fill-10" blush:i="0.0.0.0.4"/><path d="M236.0794,538.4201 C221.4244,545.3451 185.4494,499.8981 208.9784,498.3121 C220.3234,508.6181 227.5314,529.8561 246.9074,519.8241 C269.7884,513.7341 251.0554,544.3411 236.0794,538.4201" id="Fill-12" blush:i="0.0.0.0.5"/></g></g></g></g></svg>