<?xml version="1.0" encoding="utf-8"?>
<!-- Generator: Adobe Illustrator 25.0.1, SVG Export Plug-In . SVG Version: 6.00 Build 0)  -->
<svg version="1.1" id="Layer_1" xmlns:blush="http://design.blush"
	 xmlns="http://www.w3.org/2000/svg" xmlns:xlink="http://www.w3.org/1999/xlink" x="0px" y="0px" viewBox="0 0 1198.2 1004.7"
	 style="enable-background:new 0 0 1198.2 1004.7;" xml:space="preserve">
<style type="text/css">
	.st0{opacity:0.5;fill-rule:evenodd;clip-rule:evenodd;fill:#C9C9C9;enable-background:new    ;}
	.st1{fill-rule:evenodd;clip-rule:evenodd;fill:#FFD372;}
	.st2{fill-rule:evenodd;clip-rule:evenodd;}
	.st3{fill-rule:evenodd;clip-rule:evenodd;fill:#D08F52;}
	.st4{fill-rule:evenodd;clip-rule:evenodd;fill:#A1483A;}
	.st5{fill-rule:evenodd;clip-rule:evenodd;fill:#FFFFFF;}
	.st6{fill-rule:evenodd;clip-rule:evenodd;fill:#BD8CE9;}
</style>
<ellipse id="Oval" blush:i="0.0" class="st0" cx="604.2" cy="975.3" rx="520" ry="23.5">
</ellipse>
<g id="Background" transform="translate(36.000000, 63.000000) scale(1 1)" blush:component="Background" blush:height="871" blush:i="0.1" blush:width="1242">
	<g id="Background_x2F_Blob_2" blush:i="0.1.0">
		<path id="Fill-1" blush:i="0.1.0.0" class="st1" d="M588.6,807.4c-36.7,1.1-73.3,0-109.8-3.6c-35.3-3.5-70.2-8.7-104.1-19.2
			c-66.8-20.8-131-47.2-191.2-82C108.2,659.2,52.2,598.4,14.1,522.5c-16.1-32.1-29.5-65.2-37.9-100c-5.5-22.6-7.5-45.5-4.5-68.6
			c0.7-5.1,1.7-10.2,3.3-15.1c7.2-21.1,17.6-40.7,32.6-57.8c12-13.7,26.4-24.1,43.7-30.7c29.1-11,59.2-18.8,85.2-35.9
			c32.2-21.3,57.2-50.1,86.4-74.7c30.7-25.7,62.1-50.3,95.6-72.7c63.4-42.3,130.9-76.9,205-98.9c37.2-11,74.9-20.1,113.6-25.3
			c23.6-3.2,47.3-4.6,71.2-5.5c67.6-2.4,134,4.5,198.6,24.3c42.6,13,83.1,30.6,119.5,55.9c32.4,22.5,60,49.4,80.2,82.8
			c9.3,15.4,16.4,31.6,19.3,49.4c5.4,32.3-3.6,60.5-25.7,85.2c-13.9,15.4-30.7,27.1-49.3,36.7c-19.8,10.2-40.9,17.1-62.1,23.9
			c-25.5,8.2-50.9,16.6-75.4,27.5c-13.7,6.1-27.2,12.8-39,22c-4.9,3.8-9.6,8.3-13.4,13.1c-6.4,8.2-6.2,16.7,0.3,24.8
			c3.5,4.3,7.7,8.5,12.5,11.5c12.1,7.5,24.5,14.8,37.3,21.3c25,12.8,50.6,24.7,75.6,37.5c21.8,11.1,42.8,23.6,61.2,39.6
			c19.1,16.6,34.8,35.7,45.1,58.5c9.2,20.4,12.7,41.5,8.1,63.5c-2.8,13.4-8.8,25.6-16.7,36.9c-12,17.2-27.3,31.4-44,44.3
			c-22.1,17.1-46.8,29.9-72.6,41c-53.3,23-108.8,39.1-166.1,50.1c-32.7,6.3-65.6,11.5-98.7,15c-29.2,3.2-58.6,4.9-88,5.3
			C606,807.5,597.3,807.4,588.6,807.4"/>
	</g>
</g>
<g id="Decoration" transform="translate(77.000000, 235.000000) scale(1 1)" blush:component="Decoration" blush:height="804" blush:i="0.2" blush:width="1119">
	<g id="Decoration_x2F_Scribbles" blush:i="0.2.0">
		<path id="Fill-1_1_" blush:i="0.2.0.0" class="st2" d="M784.3,517.7c-1.8-3.8-1.8-3.8-5.7-3.6c-1.1,0-2.1-0.2-3.2-0.3
			c-2.8-0.3-5.3-1.6-8.3-1.4c-3.1,0.2-6.4-0.8-9.2-2.1c-1.8-0.8-3.2-1-5-0.9c-6.5,0.3-12.7,3.9-19.5,1.9c-0.6-0.2-1.4,0.3-2.1,0.5
			c-4.1,0.8-8.4,0.9-12.1,3.3c-4.9-1.4-8.9,1.8-13.5,2.3c-4.6,0.5-8.6,2.5-12,5.7c-1,0.9-2.5,1.7-3.9,1.8c-5.2,0.2-8.9,3.3-12.6,6.2
			c-1.7,1.3-3.5,2.5-4.8,4.2c-1.7,2.2-2.9,4.9-4.4,7.3c-2.2,3.6-0.2,8.2,4.1,8.9c3.2,0.5,6.3,0.9,9.5,1.6c3.5,0.8,6.8,2.6,10.4,0.1
			c0.5-0.3,1.7,0.3,2.5,0.5c0.9,0.2,2.1,0.8,2.5,0.4c3.3-3.1,6.8-1.1,10.3-0.7c2.1,0.3,5.5,1,6,0.1c1.4-2.2,2.6-1,4-1
			c3.6-0.2,7.3-0.2,10.6-1.2c3.1-0.9,6.4-2.2,9.4-2.1c1,0.1,2.3,0,3.1-0.5c2.7-1.8,5.5-2.6,8.7-1.6c0.6,0.2,1.7,0.3,2.1-0.1
			c2.6-2.9,6.5-1.9,9.6-3.1c2.7-1,6.2-0.4,8.6-1.8c2.8-1.6,5.4-2.3,8.5-2.4c1.5-0.1,3.7-0.6,4.3-1.6c1.4-2.5,3.7-1.8,5.6-2.3
			c3.7-1,7.6-1.4,11.3-2.3c1.6-0.4,3-1.5,4.4-2.2c-3.5-1.9-4.1-6.5-8.1-6.6c-0.3,0-0.9-0.7-1-1.2
			C793.2,517.8,788.9,517.9,784.3,517.7 M854.6,405.1c2.2-0.9,4.1-1.6,5.8-2.4c1.1-0.5,2.6-1.3,2.8-2.2c1.2-4.8,3.8-8.7,6.9-12.5
			c1.5-1.9,0.9-4.7-0.8-5.3c-4.4-1.5-8.5-5.9-13.8-2.2c-0.6,0.4-1.7,0.1-2.5-0.1c-1.9-0.5-4.1-0.8-5.7-1.9c-1.9-1.3-4.2,1.8-5.7-0.9
			c-2.7,1.2-5.1-1.1-7.7-0.9c-6,0.5-11.9,2-17.9,1.4c-1-0.1-2.3,0.2-3,0.9c-4.2,3.6-9.4,3.7-14.5,4.5c-4,0.7-8,1.7-11.9,3.1
			c-3.2,1.1-4.9,5.5-9.2,4.4c-1.5,4.4-7.4,2.6-9.3,6.6c-6.3,1-8.6,5.6-9.8,10.5c-1.3,1.4-2.8-0.6-3.9,1.7c-1.2,2.6-5.5,3.6-3.9,7.7
			c0,0.1-0.3,0.2-0.4,0.3c-3.3,4.1-3.7,9.1-4.7,13.9c-0.2,1,0,2.2,0.5,3.1c2.2,4.2,4.5,8.3,6.8,12.4c0.2,0.4,0.8,0.9,1.2,1
			c6.4,1.4,11.8,6.3,18.9,5.3c1.7-0.2,3.5-0.3,5.3-0.6c3-0.5,5.7-1.6,8.9,0c2.1,1.1,4.6,1.7,6.8-1c1.3-1.6,3.8-2.4,5.9-3.2
			c4.8-1.8,9.9-3.2,14.7-5.3c3.5-1.5,6.7-3.7,9.9-5.7c2.2-1.4,4.3-3,6.3-4.7c3.2-2.6,6.3-5.3,9.3-8.1c1.9-1.8,3.2-4.7,5.4-5.7
			c3.4-1.5,4.5-3.8,4.5-6.8C856.8,410.7,856.6,409.6,854.6,405.1 M932.2,403.3c1.6,3.9,3.1,8.5,5.3,12.6c1.3,2.5,3.5,4.4,2.2,7.6
			c-0.3,0.7,0,1.9,0.4,2.6c2.8,4.8,1.6,10.1,2,15.2c0.5,7.7-3,14.4-5,21.4c-0.1,0.5-0.5,1.1-0.9,1.3c-2.7,1.4-2.6,3.9-2.6,5.3
			c-2,2.1-3.6,3.6-5,5.3c-3.1,3.7-6.1,7.5-9.2,11.2c-0.3,0.4-0.8,0.8-1.2,0.8c-4.5-0.2-4.8,2.9-4.8,6.4c-3.3,0.8-5.4,4.4-9.3,3.4
			c-1.5,2.1-3,4.1-4.5,6.2c-0.3,0.4-0.5,0.9-0.8,1.6c-2.9,0.8-6.2,0.1-8.7,3.2c-1.9,2.3-6.3,1.4-8.1,4.7c-0.3,0.5-1.2,0.7-1.9,1
			c-4.1,1.8-8,3.6-11.4,6.7c-2.3,2.1-5.9,3.3-9.1,3.7c-1.8,0.2-2.5,0.2-3.5,2c-1.4,2.5-2.3,2.4-5.3,1.8c-9.7,4.4-18.5,8.5-27.9,12.8
			c-1,6-1.9,12.3-3,18.6c-0.6,3.3-1.4,6.6-2,9.9c-0.3,2-2.7,2-3.4,4.2c-0.9,2.6-1.5,6.3-5,7.6c-0.3,0.1-0.5,0.5-0.6,0.9
			c-2.1,6.6-7.4,10.7-12,15.5c-0.5,0.5-0.8,1.4-1.3,1.5c-5.3,0.3-7.9,4.4-11.3,7.4c-1.2,1.1-3.3,1.3-4.5,2.3c-3.4,3-7,5.5-10.9,7.5
			c-3.6,1.9-7.6,3.2-11.3,5c-3.7,1.8-7.2,3.9-10.9,5.8c-1.2,0.6-2.6,0.7-3.9,1c-0.7,0.2-1.6,0-2.1,0.4c-4.3,4-10.2,4.4-15.1,7
			c-1.5,0.8-3,2.3-4.9,0.6c-0.3-0.3-1.4,0-2,0.3c-6.1,2.9-12.2,4.9-19.3,5.1c-5.8,0.1-11.5,2.9-17.2,4.3c-3.6,0.8-7.4,1.2-11.1,1.9
			c-1.9,0.4-3.8,1-5.7,1.5c-3.8,0.9-7.4,2.7-11.7,1.2c-2.3-0.8-5.4,0-8,0.6c-3.8,0.9-7.5,0.9-11.3,1.1c-3.9,0.2-8,0.2-11.7,1.4
			c-6.1,2.1-12.4,0.2-18.5,1.6c-0.6,0.1-1.4-0.7-2.2-0.9c-0.9-0.2-1.8-0.3-2.7-0.3c-0.3,0-0.7,0.6-0.9,0.5
			c-7.8-3.2-16.3-3.1-24.4-5.1c-0.2-0.1-0.4-0.5-0.7-1.1c1.6-2.2,4.2-2.2,6.6-2.6c2.9-0.5,6-0.2,8.7-2.1c0.8-0.6,2.4-0.1,3.6-0.2
			c3.4-0.3,6.9-0.1,10-1.2c5.5-1.9,10.8-3.2,16.6-2c2.3,0.5,6.2-0.8,8.3-2.4c2.8,2.3,5.5,2.2,9,1.2c6.3-1.9,12.9-3.6,19.4-3.7
			c3.7,0,7.3,0.1,10.9-0.9c1.9-0.6,3.7-1.8,5.6-2.2c2.6-0.5,4.9-1.5,8.1-0.6c3.3,0.9,8-0.7,11.1-2.7c2.2-1.4,4,0.3,5.3-0.7
			c2.5-1.9,5.4-1.8,8-2.7c1.7-0.6,3.2-0.9,5-0.9c2.3,0,4.6-0.9,6.8-1.8c4.3-1.8,8.4-4.1,12.7-5.8c2.1-0.9,4.5-0.9,6.7-1.7
			c3.7-1.3,7.5-2.6,10.9-4.4c4-2.1,7.6-4.9,11.6-7.1c2.4-1.3,5.3-1.9,7.9-2.9c5-1.9,10.2-3.4,13.4-8.3c0.7-1,2.5-1.1,3.7-1.8
			c2.8-1.9,5.8-6.8,7.1-10c0.6-1.4,2.5-2.2,4.6-3.9c0.1-0.2-2.4-2.6,1.1-3c2.9-0.3,6.1-4.7,6.5-7.6c0.2-1.4,0.3-3.1,1.2-4
			c3.7-4.3,2.8-9.8,4.2-14.7c0.1-0.4-0.4-1-0.7-1.7c-3.2,1-6.7,1.6-9.5,3.1c-6.8,3.7-14.3,4.4-21.5,6.2c-2.9,0.7-6.1,1.6-8.5,3.3
			c-2.9,2.2-7,0.5-9.4,3.5c-5.2-1.3-9.8,1.2-14.7,2c-5.1,0.9-10.2,1.2-15.2,3.1c-2.9,1.1-6.3,1.8-9.4,1.4c-3.4-0.5-6.4,0.7-9.5,0.7
			c-6.4,0.1-12.9,1.1-19.2-1c-0.5-0.2-1.1-0.2-1.6-0.2c-10.8,1.1-10.8,1.1-20.8-2.8c-5.8,1-7.9-5.9-13.2-6.2c-0.7,0-1.3-1.6-1.9-2.5
			c-0.7-1.1-1.3-2.3-2-3.4c-0.3-0.5-0.8-1-0.7-1.4c1.9-4.7,0.3-10.3,4-14.5c0.4-0.4,0.8-0.9,0.9-1.3c0.6-3.2,2.3-5.4,4.9-7.5
			c4.1-3.3,7.8-7.1,11.7-10.6c1.9-1.8,5.3-1.5,6.3-4.5c4.6,1.6,6.5-4.8,11-3.8c2.7-4.1,7.7-3.1,11.4-5.2c2.7-1.5,6.4-1.2,9.5-2.1
			c2.7-0.7,5.3-1.8,8.8-3c0.4,0.2,1.7,0.8,2.9,1.3c0-0.3-0.1-0.6-0.1-0.9c2.4-0.7,4.9-1.9,7.3-2c3.2-0.2,6.4-0.5,9.6-1
			c3.3-0.5,6.8,0.6,10.2,0.8c4,0.2,8-0.1,12,0.3c5,0.4,9.9,0.6,14.8,2.6c2,0.8,4.7,0.6,6.9,1.6c1,0.4,2,0.7,3,1.2
			c6.2,3.2,13,4.9,19,8.6c2.2,1.4,2.4,2.6,2.5,4.5c6-0.6,5.7,7,13,7.8c3.5-0.6,9.3-2,14.5-5.1c0.3-0.2,0.7-0.3,1-0.3
			c2.9-0.7,6.2-0.7,8.7-2.2c2.5-1.4,4.5-3.4,7.6-3.7c1.1-0.1,2.2-1.1,3.2-1.9c1.9-1.6,3.6-2.7,6.5-3c2.9-0.3,5.6-2.6,8.3-4.2
			c2.2-1.4,4.3-3,6.4-4.6c0.3-0.2,0.5-0.9,0.6-0.8c4,1.1,5.4-3.4,8.6-4.3c1.7-0.4,2.8-3.1,4.5-5.1c2.7,1.9,4.6-0.5,6.7-2.4
			c1.5-1.3,3-2.5,4.4-3.9c1-1,1.6-2.2,2.5-3.2c0.6-0.8,1.3-1.7,2.1-2.2c4.5-2.3,8.9-4.5,9.7-10.4c0.2-1.4,2-2.9,3.4-3.9
			c5.8-4.6,8.8-10.4,7.8-18c-0.2-1.3-0.2-3.1,0.6-4.1c2.8-3.6,0.6-7.6,0.6-11.2c0-3-2.8-6-4.3-9c-0.5-1-1.2-2-1.3-3
			c-0.1-2.6-1.9-3.7-3.5-5.2c-1.2-1.2-1.8-3-2.9-4.2c-3.1-3.4-6.2-6.9-9.8-9.7c-1.2-1-3.2-1.2-4.3-2.8c-0.2-0.3-0.6-0.7-0.8-0.7
			c-5.2,0.8-7.8-4.2-12-5.6c-0.3-0.1-0.7-0.1-1.6-0.2c-2.6,4.2-5.3,8.5-8.1,12.9c-1.6,2.5-3.5,4.8-5.1,7.3c-1.4,2.3-2.3,5-4,7
			c-3,3.6-6.5,6.7-9.8,10c-0.6,0.6-1.8,1.1-2,1.8c-0.8,4.1-4.7,4.9-7.3,7c-0.7,0.5-1.6,1.2-1.8,1.9c-0.8,4.1-4.5,5.5-7.2,7.8
			c-2.7,2.3-5.3,4.7-9.1,5.6c-2.1,0.5-4,2.3-5.8,3.6c-2.8,2.1-5.3,4.7-9.1,4.9c-0.8,0-1.6,0.8-2.4,1.2c-4.2,1.8-7.9,5.1-13,4.3
			c-5.6,3.9-13.2,2-18.6,6.6c-0.6,0.5-1.8,0.8-2.6,0.6c-1.7-0.5-3.3-1.8-5-2.1c-1.8-0.3-3.8,0.4-5.7,0.1c-2.6-0.5-5.1-2.1-7.7-2.1
			c-5-0.2-9-1.5-13-4.7c-3.7-2.9-7.7-5.5-11.2-8.8c-3.3-3.1-3.1-7.2-5-10.6c-0.9-1.7-1.6-3.6-2.1-5.5c-0.7-2.2-2.1-4.1-0.1-6.9
			c1.3-1.8,0.5-4.9,0.8-7.4c0.2-2.1,0.7-4,1.7-6c2.8-5.6,5.1-11.4,9.4-16.1c0.5-0.5,0.3-1.7,0.6-2.4c0.3-0.8,1.1-2.3,1.3-2.3
			c3,0.9,3.7-1.3,4.8-3.2c0.4-0.7,1.3-1.5,2-1.5c2.9-0.1,4.3-2.2,6.2-3.9c2.3-2.1,4.1-5.2,7.9-5.2c0.4,0,1.1-0.4,1.3-0.9
			c1.8-3.4,5.2-3.4,8.3-4.4c2.6-0.8,5.3-1.8,7.3-3.4c2.1-1.7,3.7-4,7-2.9c0.3,0.1,0.8,0,1-0.2c3.4-4.1,8.4-3.1,12.7-4
			c5.9-1.2,11.9-2,17.9-2.8c1.9-0.3,3.9,0.1,5.9,0c1.5-0.1,2.9,0.9,4.5-0.6c0.8-0.7,3,0.1,4.6,0.2c3.2,0.2,5.9,2,9.7,0.5
			c2.9-1.2,7,0.8,10.6,1.4c3.5,0.6,7,1.3,10.6,1.7c3.5,0.5,7.2,0.4,10,3.1c2.3-0.4,3.4-1.8,3.9-4c1.2-5.1,2.6-10.1,3.8-15.2
			c0.7-3,0.5-6.3,2.6-8.9c0.4-0.5,0.4-1.6,0.1-2.1c-1.9-3.2,1-5.5,1.7-8.1c0.5-1.9,1.2-3.1,0.5-5.2c-0.7-2-0.6-4.6-0.1-6.8
			c1.3-5.3,1.3-10.5,0.1-15.8c-0.4-1.9-0.1-3.9-0.2-5.9c-0.2-4.9-1.1-9.6-2.4-14.3c-1.5-5.3,1.3-9.9,6.4-11.4
			c0.6-0.2,1.7-0.3,2.1,0.1c3.5,3.5,8.5,5.6,7.6,12.5c-0.7,4.9,1.2,10.2,2,15.3c0.1,0.5,0.5,1.3,0.3,1.5c-2.6,3-1.1,6.6-0.8,9.7
			c0.7,6.2-1.2,12.5,0.4,18.7c0.3,1,0,2.1-0.3,3.1c-1.2,4.5-2.7,8.9-3.8,13.4c-0.8,3.2-1.6,6.5-1.9,9.8c-0.5,4.7-1.4,9-4.4,12.9
			c-2.4,3.1-0.7,7.6,3.2,8.7c3.9,1.2,7.5,2.4,10.2,5.7c0.2,0.3,0.6,0.4,1,0.5c2.6,0.6,4.6,1.8,6.3,4c1.7,2.2,4,3.8,6.1,5.6
			c0.9,0.8,1.8,1.7,2.9,2.2c1.9,0.9,3.3,1.7,3.9,4C929,401.1,930.9,402,932.2,403.3"/>
		<path id="Combined-Shape" blush:i="0.2.0.1" class="st3" d="M118.1,205c2.1-0.9,4.7-0.8,7.1-0.8c5.3,0.1,10.5,0.4,15.8,0.8
			c1.2,0.1,2.3,0.9,3.5,1.1c1.4,0.3,2.9,0.6,4.2,0.3c4.1-1.1,8-0.8,12,0.8c1.6,0.6,3.5,0.9,5.3,1.1c2.3,0.3,4.7,0.1,6.8,0.8
			c6.1,2.1,12.8,3.1,17,8.7c-0.2,0.7-0.2,1.2-0.4,1.3c-5.9,2.3-11.7,5.5-18.5,4c-1.1-0.3-2.5,0.3-3.7,0.4c-1,0.1-2,0.1-3-0.1
			c-2.7-0.7-5.3-1.8-8-2.2c-1-0.1-2.2,1.2-3.8,2.2c-3.2-1.5-6.7-3.7-11.2-1.9c-2.1,0.9-5,0-7.6-0.4c-0.6-0.1-1.1-1-1.1-1.1l0,0
			l-15.9-2c-0.9-1.7-2.2-4.1-3.6-6.7C113.3,207.9,115.5,206,118.1,205z M129,145.9c1.1-0.2,2.6,0.1,3.5,0.8c3.6,3,7.8,3.6,12.1,4.7
			c2.5,0.7,5,1.6,7.6,1.9c0.5,0.1,1.3,0.2,1.5,0.6c1.7,4,5.5,4.3,9,5.3c1.9,0.6,3.5,2.2,5.3,3.3c1.6,1,3.1,3.4,5-0.6
			c2.5,5.1,6.2,6.7,10.5,8c3.5,1,6.7,2.8,9.4,5.7c3.1,3.3,4.8,4.7,6.2,9.4c-5,1.8-9.8,4-15.4,1.4c-3.3-1.5-7-2.3-11.2-3.7
			c-0.1-0.4-0.4-1.8-0.7-3.1c-4.2,0.2-7.2-2.1-10.4-4c-3.2-1.9-6.2-4.2-10.2-4.5c-1.5-0.1-3.1-1-4.4-1.9c-3-2.2-6.1-3.5-10-3.8
			c-2.3-0.2-4.5-2.5-6.8-3.6c-2.4-1.1-4.9-1.9-7.6-2.9c-0.2-0.8-0.3-2.2-1-3.1c-2.5-3.1-0.6-5.9,1.1-7.8
			C123.8,146.5,126.7,146.3,129,145.9z M141,99.1c3.2-1.8,6.2-1.4,9.5,0.3c4,2.1,8.4,3.5,12.1,6.4c1.2,0.9,3.4,0.5,5.1,0.8
			c-0.1,0.2-0.2,0.4-0.3,0.6c1.9,1,3.8,2,5.8,3.1c1.4,0.7,3.7,1.1,4.1,2.2c1.5,4.1,5.9,4.2,8.4,6.8c0.9,1,2.5,1.4,3.9,1.7
			c4.1,0.9,6.1,2,8.1,4.9c0.5,0.7,1.1,1.6,1.9,1.9c4.8,2,4.9,6.8,7,10.9c-3.9,0.6-7.3,0.7-10.8,0.1c-2.1-0.4-4.3-0.1-7.4-0.2
			c-0.6-0.7-1.2-3.4-4.1-3.1c-4-6-11.2-7.6-16.8-11c-6-3.6-10.6-9-17.1-11.9c-2.4-1.1-5-1.8-7.2-4.1
			C139.9,105.3,139.5,102.7,141,99.1z"/>
		<path id="Combined-Shape_1_" blush:i="0.2.0.2" class="st4" d="M646.5,444.5c3.4,0.8,5.1,3,6.1,6.2c-2.7,4.1-3.2,8.8-3.3,13.7
			c0,4.7-1.4,6.6-6.9,9.2c-0.6-2.2-1.6-4-1.5-5.8c0-3.2,0.4-6.5,1.1-9.6c0.8-3.5,1.6-7,1.1-10.7
			C642.6,444.7,643.9,443.9,646.5,444.5z M676.3,439.4c0.8,1.5,1.6,3.1,2.8,5.4c-0.2,2.4-0.2,6.4-1.1,10.1c-0.5,2.3-1.9,4.7-3.7,6.2
			c-1.9,1.8-6.5-1.8-5.7-5C670,450.6,668.4,443.5,676.3,439.4z M723.7,434c2.3,5.4-0.3,18.4-8.6,19.6c-2.9-5.9,1.5-11.6,0.5-17.2
			c1.2-1.3,2.2-2.6,3.4-3.6C720.9,431.2,722.7,431.6,723.7,434z M585,426.2c-0.5,5.6,1.1,11.4-1.6,16.8c-1.3,2.6-2.3,5.5-3.7,8.7
			c-5.2-2.8-4.4-7.3-4.4-11.3c0-3.7,1.1-7.4,1.6-11.1c0.2-1.3,0-2.7,0-4.7c0.4-0.3,1.3-1.2,2.4-1.7C582.4,421.5,585.3,423,585,426.2
			z M629.4,398.7c6.1,0.1,7.6,1.5,7.1,7c-0.5,5.6-0.6,11.5-5.4,16.1c-0.7-0.5-1.7-0.8-1.9-1.5C627.4,416.3,627.5,408.2,629.4,398.7z
			 M524.2,387.4c2.7,4.5,3,9.3,1.6,14.3c-1.3,4.8,1,10.2-2.5,14.7c-4.2-1.4-7.6-6.9-6-11c1-2.6,0.5-4.4-0.2-6.6
			C515.1,392.3,517,389.3,524.2,387.4z M752.2,391.4c4,1.3,3.7,4.8,3.3,8c-0.5,3.5-1.4,6.8-2.3,10.7c-1.5,0.6-3.4,1.5-5.2,2.2
			c-4.7-3.8-2.2-8.3-2-12.5C746.3,395.8,747.8,392.6,752.2,391.4z M677.4,377.5l0.4,0.3c3.2,2.6,5.7,5.1,3,9.7
			c-0.9,1.5-1.2,4-0.6,5.6c2,5.3-2.5,7.6-4.4,12.4c-1.7-4.6-4.7-7.4-3.6-11.8c0.3-1.4,0.2-2.9-0.1-4.3
			C670.7,384,673.2,380.5,677.4,377.5z M785,384.3c1.5,0.3,4.2,3.8,3.6,5.6c-1.8,5.1-1.5,11.2-7.4,14.9c-3.3-3.6-4-7.3-2.2-11.6
			c0.6-1.5,1.1-3,1.5-4.5C781.1,386,783.2,383.9,785,384.3z M716.2,372.2c1.8,3.6,2.9,6.8,1.3,10.6c-1,2.6-1.3,5.6-1.4,8.4
			c-0.2,4-3.1,5.7-5.4,8.9c-3.1-6-4.8-11.2-1.7-17c0.7-1.2,0.8-2.8,0.8-4.2C710.1,375.1,712.1,372.9,716.2,372.2z M590,369.2
			c0.5,1.1,0.6,2.4,1,3.9c-1.8,1.9-3,4.2-2,7.3c1.2,4.1-1.8,6.7-4.1,9.3c-0.6,0.7-2.2,0.3-4.6,0.6c1.4-6.2-1-11.8,2.1-16.9
			c0.4-0.6,0.1-1.7,0-2.6c0-2.3,0.6-4.4,3.1-4.9C587.9,365.5,589.1,367.4,590,369.2z M539.1,350.8c1.4,2.2,2.6,4.2,3.8,6.1
			c-0.5,3-0.9,5.8-1.5,8.6c-0.3,1.3-0.9,2.7-1.8,3.8c-2.1,2.6-3.6,2.2-5.1-0.9c-0.6-1.3-1.4-2.4-2.2-3.9
			C534.2,359.9,534.5,354.7,539.1,350.8z M658.5,352c-0.2,4.8-0.2,9.7-2.7,13.9c-0.7,1.2-2.3,2.3-3.5,2.5c-0.8,0.1-2.2-1.5-2.7-2.7
			c-2.1-4.6,0.1-9.1,1.2-13.5c0.5-1.8,1.9-3.4,2.7-4.9C657.2,347.2,658.6,349.4,658.5,352z M620.7,327.9c4.5,3.4,5.3,5.9,4.1,10.3
			c-1.7,6.1-3.3,12.2-4.5,18.3c-0.6,3.3-2.3,5.8-4.2,8.2c-0.6-0.2-1.1-0.3-1.2-0.5c-2-4.5-2.1-14.3-0.9-18.6
			c1.1-3.7,1.7-7.6,1.9-11.4C616.1,330.9,618.6,329.8,620.7,327.9z M701.3,329.3c0.5,1.7,1.6,3.6,1.3,5.2c-1.4,5.9-3,11.8-5,17.6
			c-0.7,1.9-2.5,3.5-4.2,5.9c-1.2-1.4-2.6-2.3-2.7-3.3c-0.4-3.6-1.5-7.2,0.7-10.9c1.5-2.5,1.7-5.8,2.7-8.7
			C695.1,332.3,696.2,329.3,701.3,329.3z M566.1,331c2.1,0.7,3.8,1.3,6.3,2.1c-0.7,3.5-1.3,6.8-2.1,10.1c-0.5,2.1-1.3,4.1-1.7,6.2
			c-0.5,2.6-2,3.7-4.4,3.8c-3.6-1.9-2.9-5.6-3.3-7.4C562.8,340.4,564.3,336,566.1,331z M503.7,331.8c3.5,0.2,4.6,3.1,4.5,5.2
			c-0.2,4.7-1.5,9.4-2.4,14.1c-0.6,0.1-1.1,0.3-1.7,0.4c-1.2-1.7-2.9-3.1-3.6-5c-1-2.6-1.5-5.4-1.8-8.2
			C498.5,334.8,502,333.9,503.7,331.8z M737.4,328.6l0.1,0.1c0.4,1,0.7,2,0.8,2.1c-0.4,4.8-0.5,8.5-1,12.3c-0.4,3.2-2.4,5.5-5.4,6.8
			c-2.2,0.9-3.9,0-4.5-2.3c-0.9-3.8,0.9-7.2,1.7-10.8c0.5-2.1,1-4.1,1.6-6.2c0.2-0.7,0.2-1.6,0.7-2c1-0.9,2-2,3.3-2.4
			C736.4,325.7,736.8,327.4,737.4,328.6z M777,316c-0.7,10.3-0.3,21-7.9,30.3c-5.2-6.8-4.1-13.1-1.3-19.7c1.3-3.1,1.1-6.7,3.4-9.5
			C772.7,315.2,774.2,314.6,777,316z M659.6,311.8c5.1,3.3,5.4,4.3,3.5,9.3c-0.6,1.5-1.4,3.2-1.2,4.7c0.7,4.9-1.7,7.6-6.4,9.4
			c-2.8-4.8-4.6-9.1-0.7-14.1c0.8-1.1,0.1-3.3,0.1-6C656,314.3,657.9,313,659.6,311.8z M603.4,296.8c0.7,0.2,1.3,0.5,2.6,1
			c-2.5,6.8-2.6,14.3-7,20.9c-0.7-0.7-1.6-1.3-1.9-2.1l-0.3-0.6c-1.3-3.3-2.4-6.7-1-10.4c0.5-1.3,0.5-2.8,0.6-4.2
			C596.5,296,598.2,294.9,603.4,296.8z M536.9,300.1c-0.3,6-2.1,11.2-6.2,16.2c-5.3-7.6-1.3-14.8-0.7-21.9
			C536,292.3,537.3,293.7,536.9,300.1z M690,276.9c0.9,0.4,2.2,1.8,2.1,2.7c-0.7,6.6-0.7,13.3-3.4,19.6c-1.7,3.9-4.8,6.2-8.3,9.8
			c0-5.6-1.1-10.2,0.3-13.9c1.9-4.9,2.2-10.2,4.2-15c0.4-1,1-2.1,1.9-2.6C687.6,276.9,689.1,276.5,690,276.9z M631.4,280
			c1.3,0.5,3.1,1.2,5,2c-0.6,5.2-0.9,10.1-1.8,15c-0.4,1.8-2.3,3.4-3.7,5.3c-1.8-0.9-3.3-1.5-5.2-2.5c0.3-1.8,0.3-3.9,1.1-5.4
			c1.6-2.9,2-5.6,0.5-8.1C628.7,284.1,629.9,282.3,631.4,280z M739,278.3c-0.4,4.9-1.2,9.7-2.5,14.4c-0.7,2.4-2.8,4.3-4.4,6.7
			c-3.8-5.3-3.8-10.8-0.4-28.1C737,270.5,739.5,272.6,739,278.3z M570.5,278.6c3.8,0.1,5.2,2.1,5.3,5.3c0.2,5.9-0.6,11.4-6.4,14.8
			C563.3,292.4,563.7,286.7,570.5,278.6z M662.9,268.5c4.4,4.3,2,8.9,0.6,13.5c-1.4,0.6-2.8,1.3-4.8,2.1c-1.7-3.6-4-6.9-3-10.7
			C656.5,270.2,659.1,268.1,662.9,268.5z M774.2,246.9c0.3,6.2-2.7,11.4-4.2,17.1c-0.6,2.2-1.6,4.1-0.8,6.7c0.9,2.9-1,5.6-5.7,10.4
			c-2.2-4.4-3.3-8.1-2.1-13.1c1.3-5.2,2.7-10.7,2.6-16.3c0-2.9,1.8-5.7,2.8-8.7c0.8-0.1,1.8-0.2,2.9-0.2
			C773.3,242.5,774,243.4,774.2,246.9z M497.9,246.1c3.8,11.6-1.2,21.1-5.9,31.4c-3.1-2.7-2.8-6-3.5-8.7c-0.6-2.2,0.3-4.9,0.7-7.3
			c0.6-2.9,1.7-5.5,1.8-8.8C491,249.8,493.9,247.3,497.9,246.1z M615.2,238.2c7,1.1,7,5.4,5.1,10.3c-1.5,3.8-3.3,7.4-2.9,11.8
			c0.2,1.7-1.9,3.7-2.9,5.5c-1.3,2.2-2.6,4.4-4.3,7.3c-3.4-7.6-4.2-14.1-0.3-20.8c1.2-1.9,2.1-4.5,2-6.6
			C611.6,242.5,612.7,240.4,615.2,238.2z M641.9,234.4c0.8,0.6,1.5,1.5,2.2,2.3c-2,5.4-3.5,10.7-5.8,15.7c-1.1,2.4-3.5,4.2-5.7,6.6
			c-1.3-3-2.2-5-3.1-7.2c1.5-4.8,4.1-9.4,4.7-14.7C634.4,233.9,639.3,232.5,641.9,234.4z M539.5,231.1c0.9,1,2.5,1.8,2.7,2.9
			c1.7,7.8,2.8,15.6,0.5,23.4c-0.1,0.3-0.5,0.5-1,0.9C533.4,249.2,532.4,238,539.5,231.1z M674.1,218.7c0.5,0.1,1.2,0.4,1.9,0.4
			c3.2,0.1,4.4,1.2,4.7,4c1,7.9-1,15.3-3.7,22.4c-1.1,3.1-3.1,5.9-6.9,7.7c-0.3-1.5-0.9-2.6-0.8-3.7c0.1-4.6-2.3-9.5,1.5-13.8
			c0.6-0.7,0.8-2.1,0.5-3.1C670.2,227.6,672,223.2,674.1,218.7z M587.8,221.6c3.1,2.6,3.6,3.7,1.8,7.2c-1.9,3.7-3.5,7.4-3.9,11.6
			c-0.3,3.4-2.6,5.7-4.7,8.2c-4.6-3-3.5-7.7-3.2-11.3c0.4-5.2,2.4-10.3,3.8-15.6C583.4,221.1,585.3,219.5,587.8,221.6z M713.3,227.3
			c2,6-1.6,16.3-6.6,19.2c-3.3-5.3-1.8-10.8-0.5-16.2C707.2,226.4,710.4,227.1,713.3,227.3z M754.6,203.3c1.1,0.5,2.5,2.2,2.4,3.2
			c-0.7,5.5-0.4,11.2-3.4,16.2c-1.2,1.9-2.1,4-3.3,6.5c-3.4-6.7-3.4-13.2-2-19.8c0.4-1.8,1.8-3.6,3.1-5
			C752,203.6,753.8,202.9,754.6,203.3z M624.9,191.5c1.3,3.7,2.3,6.6,3.5,9.9c-1.7,4.5-3.5,9.5-5.6,14.4c-1.2,2.9-3.2,5.2-7.8,4.4
			c-0.1-1.8-0.7-3.9-0.4-5.8c0.7-3.8,2-7.5,3-11.2c0.3-1,1.1-2.2,0.9-3C617.3,194.7,622.1,194.4,624.9,191.5z M555.2,182
			c2.7,0.4,3.9,2,3.8,4.9c-0.1,3.9,0.2,7.8-0.3,11.7c-0.5,3.6-1.8,7.1-2.7,10.6c-0.6,0-1.2,0-1.8,0.1c-3.2-4.8-5.6-9.9-4.4-16.2
			c0.5-2.4,0.7-4.8,1.1-7.3C551.5,183.6,552.3,181.6,555.2,182z M603.4,180.4c2.2,7.1,1.5,13.3-5,22.7c-5-5.1-3-11.2-2.6-17
			C595.9,183.4,600.1,180.7,603.4,180.4z M718.8,180c2.5,0.8,2.5,2.1,1.8,4.5c-1.1,3.7-0.6,7.7-2.8,11.2c-0.9,1.3-1.6,2.7-2.9,4.9
			c-1.1-1.4-1.9-2-2.1-2.7c-1.7-5.3-1.2-10.5,0.7-15.6C714.3,180.2,716.4,179.3,718.8,180z M659.8,173.1c1.1,0.9,2.4,1.9,3.6,2.8
			c-1.7,7-1.4,14.5-6.4,21.2c-1.7-4.1-3.2-7.6-4.4-10.5c0.5-3,0.8-5.5,1.3-8c0.2-1,0.8-2,1.5-2.6C656.7,174.7,658.3,174,659.8,173.1
			z M592.3,149.3c-0.1,5.4,0.5,11.2-3.4,16c-1,1.2-1.1,3.3-1.8,5.7c-7.1-8.5-1.9-16.9-1.7-25.3C590.8,142.8,592.4,143.3,592.3,149.3
			z M633.1,142.4c2.8,0.2,5,2.4,4.3,5.1c-1.5,5.6-2.2,11.6-6.8,16.6c-5.9-7-2.1-14.3-2-21.5C630.3,142.5,631.7,142.2,633.1,142.4z
			 M697.1,133.6c2,2.1,2.4,4.6,1.7,7.4c-1.6,6.1-1.7,12.7-6.8,18c-2.6-5.5-4.4-10.7-2.4-16.7c0.9-2.6,1.1-5.5,1.8-8.7
			C692.9,133.2,695,131.4,697.1,133.6z M672.4,118.9c0.1,0,0.3,0.2,0.8,0.6c0.2,7.9-2.7,14.8-7.6,21.6c-3.1-3.6-3.3-7.6-2.9-11.7
			c0.1-1.4,0.7-2.8,0.9-4.2c0.8-5.2,1.6-6.1,6.7-6.3C671,118.8,671.7,118.9,672.4,118.9z"/>
	</g>
</g>
<path id="Path-12" blush:i="0.3.0" class="st5" d="M823.3,366c82-63.8,133-113.6,152.9-149.2c7.7-14.1,18.2-32.7,31.4-55.9
	c37.8,23.7,66.9,38.4,87.3,44.2s52.9,14.2,97.4,25.2c-16.4,45.6-41.3,90.8-74.8,135.7c-33.5,44.9-62.5,76.5-87,95
	c-41.1,15.7-79.2,15.7-114.1,0S850.4,413.6,823.3,366z"/>
<path id="Path-13" blush:i="0.3.1" class="st5" d="M535.7,123.6l459.9,734.2l7.5,13.1l14.9,42.3l-17.4,16.6l-44.3-26.8l-12.1-16.9
	L524.6,219.1l-39.4-62.3c-5.5-17.4-1.9-30.3,10.9-38.9S522.1,111.2,535.7,123.6z"/>
<path id="Path-11" blush:i="0.3.2" class="st5" d="M234.6,660.8c33.9,15.4,59.1,24.4,75.7,27.2s36.7,2.7,60.2,0l20.6-157.6
	l-79.3-1.7l-43.5-5.4l-10.5-2.3l-5.8,49.6l-6.9,44.7l-14,41.1L234.6,660.8z"/>
<path id="Fill-1_2_" blush:i="0.3.3" class="st2" d="M564.2,170.1c-4.9,3.4-9.2,6.2-13.4,9.1c-10.3,7.1-20.5,14.3-30.8,21.4
	c-1.1,0.7-2.3,1.7-2.3,1.7l2.5,3.8c15.7-10.3,31.3-20.5,47.1-30.8C566.3,173.6,565.4,172.2,564.2,170.1 M529.7,222.3
	c16-10.7,31.6-21,47.5-31.6c-2.5-3.9-4.6-7.2-7.1-11.3c-16,10.5-31.7,20.7-47.8,31.2C524.9,214.7,527.2,218.5,529.7,222.3
	 M549.2,145.9c-15.9,11.5-31.2,22.5-46.5,33.6c4.1,6.4,7.6,12.7,12,18.7c15.9-11,31.1-21.5,46.9-32.4
	C557.4,159,553.4,152.7,549.2,145.9 M1016.1,912c0,0-0.7-2.4-0.9-3.1c-3.8-10.6-8-21.1-11.4-31.8c-0.2-0.7-0.5-1.3-0.7-2
	c-1.7-4-4.5-7.5-8.1-10.1c-1.1-0.8-2-1.4-3.1-1.9c-7.3-4.3-15.9,1.1-16.5,9.6c-0.1,2.1,0.4,4.3,0.9,6.4c0.5,2.1,1.5,4.1,1.9,6.2
	c0.2,1-0.1,2.8-0.8,3.1c-1,0.5-2.6,0.5-3.8,0.1c-1.2-0.4-2.2-1.6-3.4-2.4c-1.6-1.1-3.2-2.4-4.9-3.3c-5.1-2.7-8.5-0.9-8.8,5
	c-0.2,2.7,0.2,5.5,0.5,8.3c0.1,1.4,0.6,3.3,0.6,3.3l10.1,6.9c8.2,4.9,19.1,12.9,22.4,15.3c2.2,1.6,4,2.6,6.6,4.1
	C1000.4,917.2,1006.1,911.7,1016.1,912 M499.6,175.6c16.2-11.7,31.4-22.7,46.8-33.8c-5.5-9.2-10.6-17.3-19.8-22.4
	c-11.6-6.3-24.8-3.6-33.8,4.1c-8.5,7.3-11.3,18-6.7,27.9C489.8,159.5,494.7,166.9,499.6,175.6 M960.7,876.9
	c-137.4-217.2-275.5-435.3-413-652.5c-3.6,3.3-7.1,6.5-10.7,9.8c3.7,5.8,7.3,11.6,11,17.4l11,17.4c3.7,5.8,7.3,11.6,11,17.4l11,17.4
	c3.7,5.8,7.3,11.6,11,17.4l11,17.4c3.7,5.8,7.3,11.6,11,17.4c3.7,5.8,7.3,11.6,11,17.4c3.7,5.8,7.3,11.6,11,17.4
	c3.7,5.8,7.3,11.6,11,17.4l11,17.4c3.7,5.8,7.3,11.6,11,17.4c3.7,5.8,7.3,11.6,11,17.4c3.7,5.8,7.3,11.6,11,17.4
	c3.7,5.8,7.3,11.6,11,17.4l11,17.4c3.7,5.8,7.3,11.6,11,17.4l11,17.4c3.7,5.8,7.3,11.6,11,17.4l11,17.4c3.7,5.8,7.3,11.6,11,17.4
	l11,17.4c3.7,5.8,7.3,11.6,11,17.4c3.7,5.8,7.3,11.6,11,17.4l11,17.4c3.6,5.8,7.2,11.5,10.8,17.3l11,17.4c3.7,5.8,7.3,11.6,11,17.4
	c3.7,5.8,7.3,11.6,11,17.4l11,17.4c3.7,5.8,7.3,11.6,11,17.4c3.7,5.8,7.3,11.6,11,17.4c3.7,5.8,7.3,11.6,11,17.4
	c3.7,5.8,7.3,11.6,11,17.4c3.7,5.8,7.3,11.6,11,17.4c3.7,5.8,7.3,11.6,11,17.4l11,17.4c1.4,2.2,2.8,4.4,4.2,6.6
	c0.7,1.1,1.4,2.2,2.1,3.3c0.3,0.6,0.7,1.1,1,1.7c0.2,0.4,1,1.2,1,1.7C949.4,881.2,955,877.5,960.7,876.9 M556.6,215.4
	c138,219,275.4,437.1,413.3,656c1.9-10,8.5-15.9,24.2-12.6c-138.4-220-279.1-440.7-417.1-660.2C569.8,204.5,563.4,209.8,556.6,215.4
	 M1034.4,948.3c0.8,3.1-2.8,5.6-5.4,3.8c-0.6-0.4-1.1-0.8-1.7-1.1c-22-13.9-43.9-27.9-66.1-41.6c-5.4-3.3-9.4-7.4-12.8-12.7
	C831.9,711.4,715.2,526.3,598.6,341.2c-35.1-55.7-70.2-111.5-105.4-167.1c-4.2-6.7-8.9-13.1-11.8-20.6c-5.5-14.3-0.2-29.9,13.2-37.4
	c16.6-9.2,29.7-5.8,43,4.9c2.6,2.1,4.7,4.8,6.5,7.6C663.2,319,782.2,509.5,901.2,699.9c32.6,52.1,65.1,104.4,97.9,156.4
	c5.8,9.2,9.2,19.3,12.8,29.3c6.8,18.6,13.5,37.3,20.2,56C1032.9,943.7,1033.9,945.9,1034.4,948.3"/>
<path id="Combined-Shape_2_" blush:i="0.3.4" class="st6" d="M257.7,516.8c0.2,0,0.4,0,0.6,0.1c13.3,5.4,27.4,7.3,41.4,8.1
	c24.6,1.4,49.3,1.8,74,2.5c5,0.1,10-0.6,14.9-0.6c3.6,0,6.1,3,5.4,6.5c-7.5,37.9-10.8,76.3-16.1,114.5c-1.7,12-2.5,24.1-3.7,36.2
	c-0.6,5.7-1.3,6.3-7.2,7.7c-2,0.5-4.1,0.8-6.2,0.8c-33.1,1-65.4-3.5-96.6-14.6c-10.8-3.9-20.8-9.8-31.2-14.9
	c-0.8-0.4-1.5-0.9-2.2-1.4c-1.7-1.3-2.2-3.5-1.4-5.4c11.8-28.3,16.7-57.5,20.3-87c1.9-16,3.3-32,4.9-48c0.1-0.7,0.2-1.4,0.3-2.2
	C255.3,517.9,256.4,516.8,257.7,516.8z M259.8,523.3l-0.6,6c-4.3,43.7-8.4,87.2-24.7,128.7c1.6,1,3.1,2,4.6,2.8
	c15.3,8.7,31.5,15.1,48.7,19.1c23.8,5.6,47.8,8.7,72.2,7.8c3.1-0.1,6.1-1,9-1.4c5.5-52.1,11.5-103.4,19.9-154.1
	C345.5,532.1,302.4,533.9,259.8,523.3z M310.9,561.8c12.3-0.1,18.2,8.5,14.2,20c-0.5,1.5-1.1,2.9-1.8,4.9c2.4,0.6,4.2,0.9,5.9,1.4
	c7.2,2.1,10.6,8.1,8.5,15.3c-0.8,2.8-2.2,5.5-3.7,8.1c-1.3,2.4-3.5,5.3-5.1,7.7c0.3,0.4,1.5,0.9,1.9,1.2c5.1,3.4,6.8,9.1,3.9,14.4
	c-4.5,8.4-10.2,16.2-15.4,24.2c-0.9,1.4-2.3,2.5-4,1.1c-1.7-1.4-0.6-2.9,0.3-4.2c3.9-5.8,7.9-11.5,11.7-17.3
	c1.5-2.3,2.7-4.9,3.6-7.5c0.8-2.4,0.6-4.7-2.1-6.2c-2.4-1.3-4.3-1.1-6.5,0.8c-2.7,2.3-5.5,4.3-8.4,6.5c-1.8,1.4-3.7,2.7-5.8,3.5
	c-1.9,0.8-4.5,1.7-6.5,0.6c-3.2-1.7-2.2-5.3-0.3-7.6c4-4.9,10.4-7.7,16.5-8.9c3.7-0.7,6.2-2.4,8.1-5.4c2.3-3.7,4.8-7.4,6.5-11.3
	c1.9-4.5,0.6-7.8-3-9.7c-4.1-2.2-8.4-1.3-10.5-0.1c0,0-1,1.3-1.4,1.6c-3.7,3.9-7.5,7.8-11.3,11.5c-3.3,3.1-6.9,6.3-11.6,6.9
	c-3.2,0.4-6.2-1.8-5.7-5.2c0.6-3.8,3.5-7.4,6.3-10c4.8-4.3,10.8-7.2,16.9-9.1c1.1-0.3,2.9-0.8,2.9-0.8c4.1-3.1,7.2-9.9,6.3-14.6
	c-0.6-3-2.5-4.8-5.3-6c-4.1-1.7-8.3-1.6-12.4-0.6c-11.2,2.9-20.5,8.7-27.8,17.6c-1.3,1.6-1.9,3.9-3.1,5.7c0,0-0.1,0.1-0.1,0.1
	c-1.3,1.6-4.1,1.1-4.5-0.9c0-0.1,0-0.2,0-0.4c0-1.5,0.7-3.2,1.6-4.4C280,571.1,293,562,310.9,561.8z M310.4,595.7
	c-7.3,1.9-12.5,5.5-14.7,10c-0.5,1.1,0.7,2.2,1.8,1.6C302.6,604.3,306.5,600.3,310.4,595.7z"/>
<path id="paper" blush:i="0.3.5" class="st3" d="M1010.9,159.1c9.9,8,20.6,14.8,32,20.6c35.4,18.1,72.4,31.4,111.4,39.1
	c11.9,2.4,23.7,5.2,35.5,7.9c6.2,1.4,6.6,2.2,4.5,8.1c-7.6,21.6-17.6,42.1-28.8,62c-31.2,55.7-70.8,105-115.1,150.6
	c-1.5,1.6-3.2,3-4.6,4.7c-10,12.1-23.8,16.9-38.4,19.3c-8.8,1.4-17.8,1.4-26.6,2c-14.4-1.1-28.7-1.6-42.9-3.3
	c-11.9-1.4-23.1-5.1-33.3-12c-17.9-12-34-26.1-49-41.5c-10.6-10.9-19.9-22.7-28.3-35.3c-1.3-2-2.6-4-3.8-6.1
	c-3.1-5.4-4-9.7,3.2-15.1c34.3-25.9,67-53.6,97.1-84.3c33.3-33.9,60.5-72,80.2-115.3C1006.2,156,1007,155.8,1010.9,159.1z
	 M967.7,447.2c-9.9,7.7-21.1,12.4-33.4,14.6c-1.4,0.2-2.7,0.5-4.1,0.8c-1.3,0.2-4.8-0.1-4.8,0.3c2.8,0.6,10.5,2.3,13.4,2.6
	c19.5,2.2,39.1,3.2,58.8,2.3c8.9-0.4,17.6-2.1,27-6.6c-2.6-0.6-3.9-1-5.3-1.1c-14.7-1.4-28.2-6.2-40.8-13.7
	C974.3,444,971.3,444.4,967.7,447.2z M1008,164.3c-1,2-2,4-3,5.9c-17.4,35.3-38.8,67.8-65.9,96.6c-26.9,28.5-55.4,55.3-86.3,79.4
	c-8.9,6.9-17.8,14-27.6,21.6c2,3.6,3.7,7,5.7,10.1c11.9,18.5,26.4,34.8,42.7,49.5c11.6,10.6,23.7,20.6,37.2,28.8
	c2.8,1.7,5.6,2.6,9,2.4c15.3-1,29.8-4.4,42.5-13.5c1.9-1.4,3.9-2.7,5.9-4c2.9-1.9,5.9-2.2,9-0.5c1.7,1,3.6,1.7,5.3,2.7
	c12.5,7.4,26.3,11,40.6,12.7c7.2,0.8,13-0.5,18.6-6.2c31.7-32.2,60.9-66.5,86.9-103.4c22.7-32.2,42.4-66.2,57.2-102.8
	c1.5-3.6,2.7-7.3,4.1-11.2c-1.6-0.5-2.7-1-3.8-1.3c-10.8-2.4-21.7-4.8-32.5-7.3c-23.8-5.3-47.6-10.9-70.2-20.3
	c-25.7-10.7-51.3-21.5-73.6-38.6C1009.4,164.4,1008.7,164.4,1008,164.3z M990.1,400c1.6,0.6,3.2,1.6,4.7,2.5
	c10.6,6.1,21.2,12.2,31.7,18.4c0,0,0,0,0,0c1.8,1,2.2,3.4,1.2,5.2c-1.9,3.1-4,6-6.1,8.4c-2.8,3.2-7.3,3.9-10.9,1.7
	c-10.7-6.5-21.5-13-32.3-19.4c-2.4-1.4-2.8-3.3-1.4-5.5c2.1-3.4,4.3-6.6,6.7-9.9C985.3,399,987.8,399.1,990.1,400z M987.7,404.1
	c-2.1,3-3.9,5.7-6,8.9c11.7,7,22.9,13.7,34,20.3c1.1-1,1.8-1.6,2.4-2.4c1.5-1.8,2.9-3.8,4.6-6.1
	C1010.8,417.8,999.5,411.1,987.7,404.1z M944,292.5c0.7,0,1.3,0.8,2,1.3c15.8,11.5,32.9,20.8,50.4,29.5c7.5,3.7,7.6,4.5,1.9,10.4
	c-17.1,17.7-34.2,35.4-51.4,53.1c-1.8,1.8-3.4,4-7.8,3.6c-1.8-0.6-4.9-1.3-7.7-2.7c-16.2-7.8-29.7-19-41.7-32.2
	c-0.9-1-1.5-2.4-2.3-3.5c-1.7-2.4-1.2-4.4,0.8-6.3c0.7-0.7,1.4-1.4,2.1-2.1c15.2-15.7,30.4-31.3,45.7-47c1.2-1.3,2.3-2.9,3.8-3.7
	C940.8,292.3,942.5,292.4,944,292.5z M937.3,343.2c-14.4,3-28.7,6-43.2,9c6.8,10.9,32.2,29.6,43.2,31.8V343.2z M992.8,332.5
	c0,0-4.3,0.7-5,0.8c-15.6,2.8-29,5.6-44.3,8.4c-1.9,12.3-2.1,36.5-0.2,41.6C959.2,366.9,977.2,348.8,992.8,332.5z M1007.2,342.4
	c1.1,0,2.2,0.8,3.2,1.4c18,10.4,35.9,20.8,53.8,31.2c1,0.6,2,1.3,2.7,2.2c0.4,0.5,0.4,1.6,0.1,2.2c-0.1,0.2-0.2,0.3-0.4,0.5
	c-0.8,0.7-1.9,0.8-2.8,0.4c-0.9-0.4-1.7-0.8-2.4-1.2c-18.1-10.5-36.3-20.9-54.4-31.4c-0.7-0.4-1.5-0.7-1.9-1.3
	c-0.5-0.7-1.1-2.1-0.7-2.5C1005,343,1006.2,342.4,1007.2,342.4z M998.2,360.2c9,5,18,10,27,15.1c0.2,0.1,0.5,0.3,0.7,0.4
	c2.7,1.4,0.9,5.6-1.9,4.5c-0.2-0.1-0.4-0.2-0.7-0.3c-9.2-5-18.4-10.2-27.5-15.4c-1.8-1-4.7-2-3.2-4.8
	C994.2,356.9,996.5,359.3,998.2,360.2z M938.4,301.7c-14.8,15.3-30.3,31.3-44.2,45.7c0.2,0.3,4.4-1.2,5.2-1.3
	c13.8-2.9,24.4-5.1,38.4-8.1C938.3,325.6,938.8,314.1,938.4,301.7z M943.8,299.4v37.2c15.9-2.9,32-5.7,49-8.8
	C976.1,318.1,960.3,309,943.8,299.4z M1067.5,298.4c10,4.4,20,8.6,30,12.9c2.9,1.3,5.8,2.5,8.7,3.9c4.2,2,4.8,3.4,3.1,8
	c-1.3,3.5-2.9,6.9-4.1,10.5c-1,3.1-2.8,3.4-5.5,2.2c-6.4-2.7-12.8-5.3-19.1-8.1c-8.7-3.9-17.3-7.9-25.9-11.9c-0.1,0-0.2-0.1-0.3-0.2
	c-1.2-0.9-1.5-2.6-0.8-3.9c2.4-4.2,4.7-8.2,7.1-12.2C1062.5,296.6,1064.9,297.2,1067.5,298.4z M1064.6,302.4
	c-1.9,3.4-3.6,6.3-5.4,9.6c14.1,6.6,27.4,13.5,41.8,18.8c1.5-3.6,2.8-6.9,4.5-10.8C1091.5,314,1078.3,308.3,1064.6,302.4z
	 M1009.7,203.8c14.8,6.1,29.5,12.3,44.3,18.5c6,2.5,6.7,4.2,3.3,9.8c-7.7,12.8-15.5,25.6-23.6,38.3c-5.2,8.1-10.9,16-16.3,24
	c-1.3,2-2.8,3.3-5.5,3.1c-5.6-2-11.5-3.4-16.6-6.1c-11.7-6.2-23-13-34.4-19.8c-4.4-2.6-4.6-4.5-1.5-8.7c5.1-6.8,10.5-13.4,15.5-20.2
	c8.5-11.8,16.9-23.8,25.2-35.8C1003.4,201.9,1004.2,201.5,1009.7,203.8z M1006.6,255.3c-13.1,4.9-25.8,9.7-39.2,14.6
	c14.2,8.7,27.4,18,43.9,21.6C1009.7,279.1,1008.1,267.2,1006.6,255.3z M1049.5,233.8c-12.6,6.3-25.2,12.6-38.1,19
	c1.4,11,2.8,24.2,4.1,35.1c0.6,0.1,1.6-2.2,1.6-2.2C1028.7,269.1,1040.3,252.4,1049.5,233.8z M1064.6,258.9
	c11.4,4.1,22.7,8.4,34.1,12.6c1.5,0.6,3,1.1,4.4,1.8c0.2,0.1,0.4,0.3,0.5,0.4c1,1.1,0.9,2.8-0.5,3.5c-0.2,0.1-0.3,0.1-0.5,0.1
	c-1.5-0.1-3.1-0.4-4.6-1c-11.7-4.3-23.5-8.6-35.2-13c-2.1-0.8-5.6-1.3-4.3-4.3C1059.8,255.8,1062.7,258.2,1064.6,258.9z
	 M1073.2,242.2c19.5,5.9,39.1,11.9,58.6,17.9c0.6,0.2,1.3,0.3,1.6,0.7c0,0.1,0.1,0.1,0.1,0.2c1.1,1.4,0.7,3.6-0.9,4.5l0,0
	c-3.1-0.9-5.4-1.6-7.6-2.2c-18.2-5.5-36.4-11.1-54.6-16.6c-0.8-0.2-1.7-0.3-2.2-0.8c-0.2-0.2-0.3-0.3-0.5-0.5c-1-1.3-0.5-3.3,1-3.8
	c0.1,0,0.2-0.1,0.4-0.1C1070.5,241.3,1071.9,241.8,1073.2,242.2z M1003.3,212c-13.2,17.9-25.6,34.8-39,52.9c15.6-4,29-9.6,42.5-15.7
	C1005.7,236.8,1004.6,224.9,1003.3,212z M1009.3,209c-1.2,4.8,1.5,35.1,2.1,37.8c12.7-6.4,26.5-12.8,40.5-19.8
	C1036.8,220.6,1023.1,214.8,1009.3,209z"/>
<g id="Master_x2F_Character_x2F_Standing_1_" transform="translate(339.000000, 85.000000) scale(1 1)" blush:component="Master/Character/Standing" blush:height="961" blush:i="0.4" blush:width="596">
	<g id="Master_x2F_Character_x2F_Standing" blush:i="0.4.0">
		
			<g id="Bottom_x2F_Standing" transform="translate(39.000000, 389.000000) scale(1 1)" blush:component="Bottom/Standing" blush:height="572" blush:i="0.4.0.0" blush:width="558">
			<g id="Bottom_x2F_Standing_x2F_Leg_up" blush:i="0.4.0.0.0">
				<polygon id="Fill" blush:i="0.4.0.0.0.0" class="st5" points="-0.8,-43.1 40.3,-43.1 96.9,51.9 127.1,101.3 130.3,24.1 
					141.9,-45.8 150.9,-63.2 287.9,-63.2 297.2,5.9 300.2,106.3 302.6,208.2 303.4,368.2 306.2,435.5 292,473.8 265.8,448.1 
					258.8,417.1 247.8,336.8 238.1,235 230.7,153.2 224.9,101.3 220.6,114.5 206.7,167.1 187.8,212.8 166.7,237.7 144.2,245.1 
					118.6,237.7 89.2,205.3 66.4,160.1 45.7,106.3 20.9,34.3 5.7,-12.1 				">
				</polygon>
				<path id="Stroke" blush:i="0.4.0.0.0.1" class="st2" d="M14.5-30.2c0,4,0,8.4,0,12.7c0,4.8-0.8,9.4-5.2,12.5
					c1.4,3.8,2.7,7.2,4.1,10.8c13.6-8.2,26.6-16,39.9-24.1c-2.5-4.2-4.8-8.1-7.1-11.9H14.5z M260.2,401.8c1.8,13.5,2.8,26,4.5,38.6
					c0.9,1.3,1.5,2.3,2.2,3.1c5.2,6.2,10.5,12.5,15.8,18.6c0.8,1,1.9,1.7,2.9,2.7c4.9-7.5,9.3-14.9,14.3-21.7
					c1.2-1.7,2.3-3.1,3.1-4.7c0,0,0.1-2.5-0.1-5.1c-0.4-6.5-0.5-13.1-0.7-19.6c-0.1-2.5-0.3-5.1-0.5-8.1
					C288,404.3,274.6,403.1,260.2,401.8L260.2,401.8z M55.6-14.2C42-6,28.2,2.4,15.1,10.3c0,0,0.7,1.7,0.9,2.4
					C29.1,50.8,41.8,89,55.5,126.9c9.2,25.6,20.3,50.5,34.4,73.9c8.2,13.5,17.8,25.8,31.2,34.8c12.8,8.7,25.8,9.4,39.2,1.7
					c6-3.4,10.9-7.9,15.3-13.1c8.8-10.4,15.2-22.3,20.3-34.9c10.9-26.8,18.8-54.5,23.7-82.9c6.6-37.9,13.2-75.9,14.7-114.5
					c0.2-4.2,0.6-8.3,0.8-12.5c0.1-2.5,1-4.2,3.3-5.2c3.3-1.5,6.4-3.1,9.8-4.3c0.2-0.1,0.5-0.1,0.8,0c1.4,0.4,2.1,2,1.4,3.3
					c-0.1,0.3-0.3,0.5-0.6,0.6c-3.1,1.8-6.3,3.2-9.7,4.9c-0.7,9.6-1.5,19.1-2.1,28.6c-1.8,27.8-5.3,55.3-10.1,82.7
					c-0.4,2.1-0.3,4.3-0.1,6.5c2.5,27.3,5.1,54.6,7.6,81.9c1.9,20.8,3.5,41.6,5.4,62.3c2.5,26.7,4.9,53.4,7.8,80
					c2.2,20.5,3.3,41.2,7.3,61.5c1.4,7,1.4,6.3,2.2,10.4c0.2,0.9,0.7,4.3,0.7,4.3s2.6,0.6,4,0.8c12.5,1.1,26.3,2.4,39.5,3.6
					c0.2-4.9,0-8.5-0.1-12.6c-0.6-46.5-1.5-92.9-2.2-139.4c-0.2-15.7-0.4-31.4-0.6-47.1c-0.8-47.1-1.4-94.1-2.5-141.2
					c-0.8-35.6-3.4-71-8.7-106.2c-0.9-6.3-1.3-12.6-2-19c-0.2-1.8-0.7-3.9,1.9-4.2c2.5-0.2,2.6,2.1,2.8,3.8c1,7.7,1.8,15.4,2.7,23.1
					C295.5-24.1,298-7,299,10.3c1.7,28.1,2.7,56.3,3.3,84.5c1.1,53.2,1.7,106.5,2.5,159.7c0.7,46.5,1.4,92.9,2.2,139.4
					c0.4,20.6,1.1,41.2,1.7,61.9c0,1.2,0.3,2.3,0.4,3.5c16.4,5.9,32.7,11.6,48.9,17.5c8.9,3.3,17.8,6.9,26.6,10.5
					c3.1,1.3,6.4,2.6,5.5,7.4c-0.8,4.3-5.3,7.9-9.6,8.2c-3.2,0.2-6.4,0.2-9.6,0.3c-13.9,0.3-27.8,0.6-41.8,0.7c-5,0-9.9-0.4-14.9-1
					c-1.7-0.2-3.4-1.8-4.8-3.1c-1.5-1.5-2.6-3.4-4.1-5.2c0.2-0.2-1.4,1.4-2.3,2.7c-3.6,5.1-8.7,6-14.2,5.6c-5-0.3-10.4-0.5-15.2-1.7
					c-1.4-0.3-2.7-0.8-3.9-1.6c-2.8-1.9-3.4-6-3.7-9.1c-0.4-3.8-0.7-7.5-1.1-11.3c-3.2-24.9-6.1-49.8-9.6-74.7
					c-2.2-15.3-5.5-30.5-7.4-45.8c-3-23.8-5.5-47.7-7.8-71.7c-2.5-25.5-4.6-51-6.8-76.5c-2.1-24.5-4.2-49.1-6.3-73.6
					c-0.7-8.1-1.6-16.2-3.3-24.4c-0.5,2-1,3.9-1.4,5.9c-5.8,26.6-13.2,52.8-23.9,77.9c-5.1,11.9-11.7,23-20.3,32.8
					c-7.8,8.8-17.2,15.3-28.9,17.9c-10.6,2.3-20.1-0.5-29-6.1c-11.1-7-20.3-16.1-27.4-27.1c-7-10.8-13.6-22-19.4-33.5
					c-16.1-32-28.2-65.7-39.7-99.5c-6.9-20.3-13.5-40.7-20.4-61C9.5,8.8,5.4-1.9,1.4-12.6c-0.2-0.6-0.5-1.2-0.7-1.8
					c-3-6.4-3.8-6.9-11.2-5.1C-26.2-15.8-41.8-11.8-57.4-8c-2.3,0.6-4.6,1.3-7,1.5c-4,0.5-6.4-1-6.9-4.8c-0.6-3.7-0.5-7.5-0.4-11.3
					c0.1-3.1,2.3-5,4.7-6.5c5.6-3.4,11.1-7,17-9.9c8.9-4.4,18.1-8.3,27.1-12.4c5.9-2.7,10.5-0.5,16.1,1.4c0.4-2.7,0.8-5.1,1.2-8.3
					C3.1-60.9,12-64,21.1-66.7c4.2-1.3,8,0.2,10.4,3.9c5.3,8.1,10.6,16.3,15.8,24.5c2.5,4,4.6,8.4,7.1,12.4
					c17.5,27.5,32.9,56.2,48.5,84.8c6,11,12.7,21.6,19.1,32.3l3,4.8c0.2-2.5,0.5-7,0.6-9.5c0.4-16.3,0.3-32.6,1.3-48.8
					c1.9-31,5.9-61.7,15.7-91.3c0.6-1.9,0.8-5.1,3.8-4.3c3.1,0.9,1.4,3.7,0.8,5.6c-9.2,27.7-12.8,56.5-15.3,85.4
					c-0.7,8.3-0.7,16.7-1,25c-0.4,13.1-0.7,26.2-1.2,39.3c0,6.1-0.6,3.9,2.9,10.5c0.7,0.7,1.4,1.6,1.6,2.5c0,0.2,0.1,0.3,0.1,0.5
					c0.1,1.5-1.4,2.8-2.9,2.5c-0.2-0.1-0.4-0.1-0.6-0.3c-1.2-0.9-2.2-2.3-3-3.7c-9.9-16.3-20-32.5-29.6-49
					c-13-22.5-25.5-45.3-38.3-68C58.7-9.6,57.3-11.6,55.6-14.2L55.6-14.2z"/>
			</g>
		</g>
		
			<g id="Head" transform="translate(195.000000, 0.000000) scale(1 1)" blush:component="Head" blush:height="192" blush:i="0.4.0.1" blush:width="206">
			<g id="Head_x2F_Dreadlocks_in_Ponytail" blush:i="0.4.0.1.0">
				<path id="Fill_1_" blush:i="0.4.0.1.0.0" class="st5" d="M-25.5-62.9c28.5,3.4,48.1,19.5,61,44.4c3.3,6.5,5.5,10.6,4.4,20
					c-0.1,1.3-0.5,2.4-0.4,2.9c0.1,0.9,2.6,3.5,3.2,4.2c2,2.7,4.9,6.1,5.6,5.9c1.5-0.3,4-0.7,7.1-0.9c10.4-1,20.4,0.4,29.2,6.4
					c2,1.4,6.4,3.8,6.6,4.9c0.1,0.3,0,0.7-0.1,1c16,13.5,22.5,29.7,19.4,48.6c-2.9,17.7-19.6,29.1-50.2,34.2l0,0l2.6,28.6H36.8
					c-0.8-32-2.3-49.4-4.5-52.2c-24.2,0-24.2-12.3-22.9-19c1.3-6.7,7.2-5,13.7-10.5c0.2-0.3,0.4-0.6,0.6-0.8
					c-0.2-0.5-0.4-1.2-0.5-1.9c-1.6-8.5,1.3-16,5.5-23.2c2.8-4.8,4.9-6.1,6-7c-2.3-1.8-3.7-4.6-5.7-7.3c-1.7,2.1-3.9,6.7-5.1,8.1
					c-6.1,7-8.6,10.4-15,17.1C2.6,47.1-7.5,53.9-15.8,57.4c-3.6,1.5-7.6,2.4-11.4,3.3c-1.9,0.4-4,0.2-5.9-0.2
					C-39,59.1-41,54-38.9,48.2c1-2.6,2.7-5.1,4.9-7c1.9-1.5,2.7-2.3,4.6-3.8c-2.5,0-6.9-0.6-8.9-1.1c-10.4-2.7-13.5-10.4-5.6-17.9
					c3.9-3.7,8.6-5.8,10.8-7.5c-0.6,0.5-3.3,0.6-4,0.6c-1.1,0.1-2.3,0.4-3.4,0.5c-4.9,0.5-9.8,0.1-14.7-0.5
					c-3.6-0.4-7.3-0.7-10.6-2.3c-6.4-3.2-7.9-9.4-3.2-14.8c2.5-2.9,3.9-3.5,7.2-5.6c1.6-1,6.7-3.2,9.3-4.2c-2.3-1.6-3.3-2.1-4.4-3.1
					c-4.5-4.4-4-9.4,1.6-12.5c2.5-1.4,6.8-2.6,10.4-3c-2.2-1.2-3.2-2-5.5-4.1c-6-6.2-5.6-13.4,1.2-18.8
					C-42.2-62.4-33.9-63.9-25.5-62.9z"/>
				<path id="Stroke_1_" blush:i="0.4.0.1.0.1" class="st2" d="M-25.5-62.9c28.5,3.4,48.1,19.5,61,44.4c3.3,6.5,5.5,10.6,4.4,20
					c-0.1,1.3-0.5,2.4-0.4,2.9c0.1,0.9,2.6,3.5,3.2,4.2c2,2.7,4.9,6.1,5.6,5.9c1.5-0.3,4-0.7,7.1-0.9c10.4-1,20.4,0.4,29.2,6.4
					c2,1.4,6.4,3.8,6.6,4.9l0,0c1.8,1.5,4.3,3.6,5.7,5c5.7,5.5,9.9,11.9,13.6,19c5.9,11.4,5,22.4-1.2,33.3
					c-4.5,7.9-10.8,14.1-18.4,19c-7.7,4.9-16.2,8.2-25.1,10.1c-1,0.2-2.1,0.5-3.5,0.8c1,5.4,1.9,10.5,2.8,15.6
					c0.4,2.1,0.8,4.3,1.1,6.4c0.3,1.8,1,4.1-1.3,4.6c-2.2,0.5-2.6-2.5-3.1-5.1c-1-5.3-0.5-4.9-1.6-9.2c-1.7-6.6-1.5-6.6-4.3-8.4
					c-0.7-0.3-2.6-1.8-4-2.7c-0.6-0.4-1.2-0.9-1.7-1.5c-0.4-0.5-0.5-0.8-0.5-1.7c0.1-2.6,2.9-2.2,4.7-2.5c2.3-0.3,4.7-0.4,7-0.7
					c16.9-2.3,31.2-9.5,41.4-23.4c7.8-10.7,9.4-22.1,2.7-34.2c-4-7.2-9.3-15.5-15.8-20.7c-0.5-0.4-1-0.8-1.4-1.1
					c-4,1.4-7.6,2-11.9,2.8c-5,0.9-12.5,1.3-17.6,0.5c-4.6-0.7-7.6-1.4-12-2.8c-0.6,1.6-1.1,2.9-1.5,4.3c-3,9.2-8.2,16.9-15.8,23
					c-1.3,1-2.4,1.6-3.3,1.6c-0.1,0.2-0.3,0.5-0.5,0.6c-1.3,1-2.9,1.4-4.4,2.2c-2.6,1.4-5.3,2.4-7.5,4.3c-7.2,5.9-5.8,15.2,2.9,18.6
					c2.3,0.9,4.9,1.2,7.4,1.5c1.6,0.2,3.3,0,4.9-0.1c5.4-0.3,5.8,0.1,6,5.6c0.2,4.9,0.4,9.8,0.8,14.7c0.8,10.3,1.8,20.6,2.7,30.9
					c0.1,1,0.3,2,0.1,2.9c-0.4,1.8-3,1.9-3.6,0.1c-0.4-1.3-0.8-2.4-0.9-3.6C33,120.8,32,107,30.9,93.3c-0.1-1.4-0.2-2.8-0.4-4.9
					c-2.1,0-4,0-5.9,0c-4.3,0-8.4-0.9-12.1-3.2C5.2,80.7,3,71.6,7.8,64.5c3.8-5.7,9.8-7.9,15.7-10.2c-0.1-0.4-0.2-0.8-0.3-1.3
					c-1.6-8.5,1.3-16,5.5-23.2c2.8-4.8,4.9-6.1,6-7c-2.3-1.8-3.7-4.6-5.7-7.3c-1.7,2.1-3.9,6.7-5.1,8.1c-6.1,7-8.6,10.4-15,17.1
					C2.6,47.1-7.5,53.9-15.8,57.4c-3.6,1.5-7.6,2.4-11.4,3.3c-1.9,0.4-4,0.2-5.9-0.2C-39,59.1-41,54-38.9,48.2c1-2.6,2.7-5.1,4.9-7
					c1.9-1.5,2.7-2.3,4.6-3.8c-2.5,0-6.9-0.6-8.9-1.1c-10.4-2.7-13.5-10.4-5.6-17.9c3.9-3.7,8.6-5.8,10.8-7.5
					c-0.6,0.5-3.3,0.6-4,0.6c-1.1,0.1-2.3,0.4-3.4,0.5c-4.9,0.5-9.8,0.1-14.7-0.5c-3.6-0.4-7.3-0.7-10.6-2.3
					c-6.4-3.2-7.9-9.4-3.2-14.8c2.5-2.9,3.9-3.5,7.2-5.6c1.6-1,6.7-3.2,9.3-4.2c-2.3-1.6-3.3-2.1-4.4-3.1c-4.5-4.4-4-9.4,1.6-12.5
					c2.5-1.4,6.8-2.6,10.4-3c-2.2-1.2-3.2-2-5.5-4.1c-6-6.2-5.6-13.4,1.2-18.8C-42.2-62.4-33.9-63.9-25.5-62.9z M23.6,16.6
					c-0.9,0-3.7,1.9-3.9,2.1c-1.4,0.8-2.9,1.5-4.2,2.4c-10.5,6.9-21.7,12.3-34,15.1c-2.7,0.8-6.9,1.9-7.2,2.1
					c-1.6,1-3.9,3.3-6.3,5.8c-2.4,2.7-5.2,6.5-3,10.3c2.2,3.7,5.2,3.4,9.8,2.4c9.5-3,11.3-4,16.3-7.1c12-7.4,21.9-17.8,30.3-29.1
					C21.6,20.2,25,16.7,23.6,16.6z M35,27.7c-5.3,5.4-7.8,12-8.3,19.5c-0.1,1.2-0.2,2.5,0.5,4.7c1.9-1.1,2.6-1.6,3.3-2.2
					c5.6-4.9,9.2-11.1,11.3-18.1c0.6-2,1.9-6.4,0.2-7.5C40.2,22.5,36.6,26.1,35,27.7z M-23.3,9.5c-4.7,1.7-8.6,4.8-12.9,7.4
					c-1.9,1.2-3.3,2.8-5.4,4.6c-4.5,5.6-2,8.8,3.4,10.6c2.4,0.8,5,1.1,7.5,1.2c9.4,0.4,18.5-1.6,26.8-5.8
					c10-5.1,19.5-11.1,29.1-16.8c1.6-1,5.9-3,7.4-4.4c-0.8-0.7-3.2-0.9-4.2-1.2c-1.1-0.2-2.8-0.5-3.9-0.7C8,1.6-7.8,3.9-23.3,9.5z
					 M52.3,17.7c-1.9,0.5-6.1,1.7-6.5,3.3c-0.7,2.6,2.7,3.5,4.8,4.4c11.1,2.4,22.8,3.1,34.6-1.1c-1.6-1.1-4.8-2.6-5.4-2.9
					C69.8,15.7,63.3,14.9,52.3,17.7z M37.3,8.4c-1.9,1.3-2.9,2.7-5.2,4.3c1.7,2.5,2,3.9,3.6,6c1.5,1.9,1.5,3,6.4,0.3
					c0.7-0.7,2-2.1,2-2.1C42.1,14.4,41.1,11.5,37.3,8.4z M-47.2-12.7c-2.4,0.2-7.6,2.4-12.8,5.5c-1.8,1.1-3.6,2.5-4.9,4.2
					c-2.8,3.6-2.1,7,2,8.9c2.8,1.3,7.2,2.6,10.2,3C-34.7,11-23.2,4.5-7,0C-17-1-29.8-10.9-29.8-10.9C-33.1-10-40.8-11.4-47.2-12.7z
					 M-19-26.8c-3.7,0.9-7.8,2.7-8.5,7.2c-0.7,4.3,2.1,7,5.4,8.9c4.3,2.3,10.1,5.6,14.8,6.7c10,2.3,20.9,3.1,31,4.8
					c2.7,0.4,5,1,7.6,1.6c0,0,3.2,0.1,3-0.7c-1.3-3.1-3-5.6-4.1-7.5c-7.8-8.4-12.8-10.9-23.9-17.7C-1.8-26.5-10.4-28.9-19-26.8z
					 M-31.3-58.6c-5.2,0.3-10,1.6-14.2,4.8c-5.4,4.1-5.7,9.4-0.5,13.6c2.5,2,5.4,4,8.5,4.6c9.4,2,18.8,4,28.3,4.7
					c16,1.1,25.5,7.5,39.6,19.2C33-8.3,35.2-5,35.8-3.9c0.3,0.9,1.4,2.2,1.5,2c0.5-1.1-0.2-4.4-0.7-5.8c-0.6-3.9-4-9.1-5.7-12.1
					C24-32.2,14.6-42.4,2.3-49.7C-8-55.8-19.1-59.3-31.3-58.6z M-47.5-29.6c-2.3,0.7-6.3,2.2-7.2,4.8c-1.2,3.7,5,6.6,7.5,7.5
					c4.7,1.8,11,3,16,2.5c-0.2,0-1.1-2.2-0.9-4c0.2-1.2,0.6-2.4,1.1-3.4c1.2-2.6,3.1-4.7,5.3-6.5c-4.8-1-8.5-1.8-12.9-2
					C-41.6-30.9-44.7-30.5-47.5-29.6z"/>
			</g>
		</g>
		
			<g id="Body" transform="translate(28.000000, 114.000000) scale(1.0103092783505154 1)" blush:component="Body" blush:height="438" blush:i="0.4.0.2" blush:width="588">
			<g id="Body_x2F_Drawings" blush:i="0.4.0.2.0">
				<path id="Fill_2_" blush:i="0.4.0.2.0.0" class="st5" d="M11.9-7.2l-72.9,192l10.3,9.1l9.7,4.2l-3,10.3l297.1,171.5L340,190.5
					l-22.3-14.9c0-85.5-23.3-134.7-69.9-147.6c-11.5-3.2-40.3-3.9-49.2-3.9c-16.2,0-39.9,10.9-71.1,32.7L11.9-7.2z"/>
				<path id="Stroke_2_" blush:i="0.4.0.2.0.1" class="st2" d="M8.9-8.3c0.8-1.9,2.3-2.3,4-1.6c1.3,0.5,2.6,1.3,3.9,2
					c35.6,20,71.3,39.9,106.9,59.9c0.9,0.5,1.9,1,2.8,1.6c1.6-1.2,3.2-2.3,4.8-3.5c17.4-12.2,36.1-21.6,57.1-25.9
					c4.3-0.9,8.6-1.2,12.9-1.7c2.5-0.3,3.9,0.7,4.9,3.1c6.1,13.9,16.4,27,26,39.5c-0.4-2.4-0.4-9.9-0.5-14.1c-0.1-6.3,0-15,0-21.3
					c0-5.5,0.7-5.9,5.9-6.2c16.5-0.9,30.3,6.8,41.9,18.5c15.2,15.3,25.5,33.4,31.2,54.1c6.7,24.2,9.4,48.8,8,73.8
					c-0.1,1.3,0,2.6-0.4,3.8c0,0.1-0.1,0.2-0.1,0.2l3.3,1.8c5.6,3.1,11.1,6.1,16.7,9.2c5.5,3.1,5.6,3.2,3.1,8.8
					c-8.7,19.4-17.5,38.7-26.2,58.1c-18.8,41.5-37.6,83-56.4,124.5c-0.1,0.3-0.3,0.7-0.4,1c-2.5,5.4-2.9,5.6-8.1,2.6
					c-30.9-17.6-61.8-35.3-92.7-52.9C91.3,289.3,25.1,251.5-41.1,213.7c-1.1-0.6-2.2-1.3-3.4-2c-1.4-0.8-2-2.5-1.5-4.1
					c0.9-2.9,1.8-5.6,2.7-8.6c-5.7-2.9-11.1-5.6-16.4-8.3c-4.9-2.5-5.1-2.8-3.1-7.9c23.5-62.7,47.1-125.4,70.6-188
					C8.1-6.2,8.5-7.3,8.9-8.3z M33.1,22.2C7.8,84.5-17.3,146.1-42.4,208c98.9,56.4,197.4,112.6,296.1,169
					c28.3-62.6,56.4-124.5,84.7-186.9c-16.1-8.9-32.3-17.7-48.4-26.6l1.3,0.7c-0.5,3.9-1.5,7.8-2.7,11.6c-0.7,2.4-2.4,4.4-4.1,5.1
					c0.4,0.4,0.8,0.9,1.1,1.4c6.2,8.2,11.9,16.8,17.9,25.2c1.1,1.6,2.6,4,3.8,5.7c0.2-0.2,0.4-0.4,0.5-0.5c0.5-0.7,1-1.4,1.6-2
					c1.1-1.1,2.1-2.2,3.7-0.7c0.8,0.7,0.4,3.3-0.3,4.7c-2.1,4.4-4.5,8.6-7,12.7c-0.2,0.3-0.6,0.6-1,0.8c-1.5,0.7-3.3-0.3-3.3-2
					c0-0.2,0-0.4,0.1-0.6c0.4-0.8,1-2.4,1.1-3.1c0,0-2.6-3-4.6-4.7c0.4,2.9,0.9,5.7,1.2,8.6c0.6,5.1-0.8,9.6-4.3,13.4
					c-5,5.4-11.7,5.6-16.9,0.5c-6.3-6.1-7.7-13.8-6.1-22c1.6-8.2,5-15.5,13-20.6c-4.2-5.2-8.1-10.5-13.7-14.1
					c-3.6-2.3-5.5-1.8-7.5,1.9c-3.9,7.2-3.2,14.6-0.8,22c0.3,0.9,0.8,1.8,1.2,2.6c0.8,1.6,1.8,3.5-0.5,4.3c-0.8,0.3-2.8-1-3.5-2.1
					c-6.6-9.9-4.1-28.8,4.8-36.6c0.7-0.6,1.4-1.1,2.1-1.6c-0.1-0.1-0.2-0.1-0.3-0.2c-0.2-0.1-1-1.1-1-1.1c-5,0.5-7.8-1-7.3-6.9
					c0.2-2.3,0.8-4.6,1.4-7.9c-2.7,2.3-4.6,4.1-6.6,5.7c-2.1,1.6-4.4,3.5-7.4,1.8c-2.1-1.2-2.6-4.2-1.2-8c2.3-6.2,4.7-8.4,9.1-13.3
					c0.1-0.2,0.4-0.4,0.6-0.6c-30.9-17-61.9-34-92.8-51l6.8,3.7c-1.2,1.4-2.2,2.7-3.4,3.8c-14.9,13.9-29.9,27.5-44.6,41.6
					c-6.3,6.1-12,12.9-17.9,19.4c9.5,8.7,19.4,16.9,29.6,24.7c0.1-0.3,0.3-0.6,0.4-0.9c0.4-1,0.8-2,1.3-2.9
					c9.7-17.2,19.5-34.5,29.2-51.7c0.9-1.6,1.9-3.1,3-4.5l0,0l0,0c1.4-1.8,4.2-0.1,3.3,2c-0.3,0.8-0.7,1.6-1.1,2.3
					c-10.5,18.6-21,37.2-31.5,55.9c-0.2,0.3-0.3,0.7-0.5,1c-0.3,0.5-0.5,1-0.8,1.4c12.9,9.7,26.2,18.9,39.8,27.7
					c0.3-0.7,0.8-1.4,1.2-2.1c9.2-15.4,18.5-30.7,27.7-46.1c0.7-1.1,1.2-2.3,2.1-3.1c0.5-0.5,1.8-0.7,2.4-0.4c0.6,0.3,1,1.5,0.9,2.2
					c-0.3,1.2-0.9,2.4-1.6,3.4c-9.1,15.2-18.3,30.4-27.5,45.6c-0.5,0.9-1.2,1.7-2,2.5l0,0c2.5,1.6,5,3.2,7.6,4.8
					c3.8,2.4,7.8,4.6,11.6,7.1c1.5,1,4.3,2,4.3,2c1.1-0.7,2.5-1.4,3.9-2.5c5-3.8,10.2-7.4,15.6-10.8c-0.7-3.4-1.3-6.8-2-10.2
					c-1-5-0.8-9.6,3.4-13.3c2.1-1.8,4.1-2.3,6.2-0.5c2.1,1.8,4.2,3.6,5.9,5.7c8.3,10.2,16.5,20.4,24.8,30.6l-2.9-3.6
					c1.4,0.2,2.8,0.5,4.2,0.8c2.8,0.7,6,2.4,6,5.9c0,1.7-0.7,2.9-1.7,3.8c4.4,5.4,8.8,10.9,13.1,16.3c1.8,2.3,4.1,5.3,6.2,8
					c1.1-1.2,1.8-2.7,2.5-4c0.6-1.1,2.1-1.4,3-0.5c0.8,0.7,0.7,1.8,0.2,3c-3.1,6.9-6.3,13.8-9.6,20.6c-0.1,0.2-0.2,0.3-0.3,0.4
					c-1.2,0.9-2.9,0.3-3.4-1.2c-0.1-0.4-0.2-0.8-0.2-1.1c0.1-1.3,0.9-2.5,1.5-3.9c-2.8-3.4-5.5-6.8-8.3-10.2
					c-0.3,1.6-1.3,3.1-3.1,4.1c4.3,3.8,3.2,7-2.2,9.1c-0.7,0.3-1.4,0.5-2.1,0.7c-0.1,1.7-1.7,2.1-3.1,2.7c-5.4,2.3-11,3.7-16.8,4.2
					l-0.3,0.5c-0.3,0.4-1,1.5-1,1.5s0.5,1.7,0.7,2.3c2.6,8.3,6,17.7,8.7,26c0.1,0.2,0.8-0.8,0.8-0.9c0-0.1,0.1-0.2,0.1-0.2
					c0.2-0.5,0.4-0.9,0.7-1.4c0.9-1.8,1.8-3.6,3-5.1c0.2-0.3,0.5-0.5,0.9-0.6c1.4-0.5,3.1,0.4,3.1,1.9c0,0.2,0,0.4-0.1,0.5
					c-3.3,6.4-6.7,12.7-10.3,18.9c-0.5,0.8-2.6,1.6-3.3,1.2c-1.9-0.9-1.1-2.6-0.2-3.9c1.3-2,2.6-4.9,2.6-4.9s-1.2-3.7-2.1-5.8
					c-4.1-9.7-7.4-19.7-10.2-29.9c-0.2,0-0.5,0-0.7,0c-13.9-0.5-27.2-4.2-40.2-8.8c-4-1.4-8-3-11.9-4.6
					c-6.6,8.8-13.2,17.6-19.9,26.4c-2.4,3.2-3.1,3.3-6.8,1c-7.6-4.6-15.1-9.4-22.6-14.1c-14.3-8.9-28.6-17.8-42.9-26.7
					c-4.7-3-4.9-3.5-1.8-8c4.5-6.7,9-13.3,13.5-20L102,233c-5.6-2.9-11.2-5.9-16.8-9c-4.8-2.6-9.3-5.6-13.4-8.8
					c-0.6-0.2-1.2-0.5-1.7-1.1c-0.2-0.2-0.4-0.5-0.5-0.7c-11.1-9.1-19.8-20.5-26.2-33.9c-2.3-4.8-3.9-10.2-4.8-15.5
					c0-0.2-0.1-0.4-0.1-0.6c-3,2.3-5.2,5.4-6.9,8.8c-0.6,1.2-0.2,3.1,0.3,4.6c2,5.9,2.9,12,2.3,18.2c-0.2,2.1-0.7,4.3-1.5,6.3
					c-0.8,2.1-2.4,3.7-4.9,3.6c-2.6-0.1-4-1.7-4.7-3.9c-0.7-2-1.1-4.2-1.3-6.3c-0.4-5.9,0.4-11.6,2.6-17.1c1.2-3,1-5.4-0.8-8.1
					c-8-12.4-19.9-12.7-27.6-0.1c-7,11.3-9.1,23.5-4.9,36.5c0.4,1.3,0.9,4.6-1.7,3.8c-1.5-0.5-2.9-3.5-3.3-5
					c-3.3-15-0.9-29,8.7-41.1c8.5-10.7,20.9-10.5,29.8,0c1.2,1.4,2.2,2.9,3.6,4.7c3-4.3,6.4-7.6,9.9-9.8c-0.4-9.7,2.6-18.5,9-26.6
					c4.7-5.9,9.5-11.7,14.5-17.4c-0.2-1.4-0.5-2.9-0.7-4.4c-4.5,0.5-8.6,1.1-12.8,1.4c-2.1,0.2-4.4,0.3-6.4-0.2
					c-3.1-0.7-3.9-2.9-1.7-5.2c3.3-3.3,7.1-6.1,10.8-9.1c1.1-0.9,2.4-1.5,4.1-2.5c-1.3-7.1-2.6-14.2-3.9-21.3c-0.4-2.3-1-4.6-1.1-7
					c-0.1-0.9,0.7-2.2,1.5-2.6c0.7-0.3,2.3,0,2.9,0.6c1.4,1.4,2.6,3,3.7,4.7c3.5,5.3,6.9,10.6,10.7,16.5c1.8-1.3,3.4-2.4,4.8-3.6
					c2.4-1.9,4.6-4.1,7.2-5.8c1.2-0.8,3.1-1.1,4.4-0.7c0.8,0.3,1.5,2.4,1.4,3.7c-0.2,2.7-0.9,5.4-1.6,8c-0.4,1.6-0.9,3.2-1.3,4.8
					l0.7-0.6l0,0c9.2-8.7,18.3-17.5,27.9-25.8C85.7,51.1,59.4,36.7,33.1,22.2z M145.1,256.6c4.6,13.2,9.6,26.1,15.2,39
					c3.6-3.5,12.3-14.9,18.7-23.9c-10-4.3-19.7-9.3-29.1-14.8C147.9,256.8,146.3,256.7,145.1,256.6z M140.2,256.4
					c-11.6-1.7-39-0.8-44.3,1.6c19.9,12.4,39.5,24.6,59.1,36.8C150,282.1,145.1,269.4,140.2,256.4z M237.5,216.9
					c-3.1,0.2-5.8,1.2-8.2,2.7c-5.5,3.2-11,6.4-16.2,10.1c-9.2,6.4-9.1,6.5-11.2,17.7c-0.2,1.2-0.6,2.5-0.8,3.7
					c-0.9,5.7-1.7,11.3-2.7,17.7c9.4,1.9,18.1,3.8,26.8,5.3c10,1.7,20.1,3.3,30.3,2.6c2.3-0.2,6.6-0.5,9.3-1.8
					c0.7-0.4,0.3-1.7-0.5-1.8c-2.1-0.5-5.4-0.6-7-0.8c-9.4-1-18.8-1.9-28.2-2.8c-1.3-0.1-2.6-0.1-3.8-0.5c-0.4-0.1-0.7-0.4-1-0.7
					c-0.7-0.7-0.7-1.8,0-2.5c0.3-0.3,0.6-0.6,1-0.8c0.5-0.3,1.4-0.1,2.1,0c9.6,0.9,19.2,1.8,28.7,2.8c2.4,0.3,5.6,0.2,7.9-0.8
					c1.6-0.7,2-2.9,0.5-3.8c-0.8-0.5-2.9-1.1-3.8-1.2c-5.1-1.1-10.3-1.9-15.5-2.5c-5.6-0.6-11.2-0.7-16.8-1.1
					c-1.5-0.1-3.4-0.2-2.9-2.2c0.2-1,2.5-1.9,3.4-2c0.9-0.2,2.1,0.1,3,0.2c1.3,0.1,2.6,0.2,3.9,0.3c2.5,0.2,5.1,0.5,7.6,0.7
					c5.1,0.4,10.1,0.9,15.2,1.3c3.5,0.3,7.8,0.8,11.4-0.5c1.7-0.6,2-2.9,0.6-3.9c-1.9-1.4-4.7-1.6-6.9-1.8
					c-10.5-0.8-21-1.4-31.5-2.1c-1.1-0.1-2.2-0.1-3.3,0c-1.9,0-3.2-2-2.2-3.6c0.7-1.2,2.2-1.6,3.8-2c8.4-1.7,16.7-3.4,25-5.2
					c1.8-0.4,3.5-0.5,5.8-1.3c0.9-0.3,1.2-1,1.1-1.6c-0.9-1.1-1.7-2.1-2.6-3.2l1.5,1.8l-0.1,0c-4.4-1.8-8.6-1.6-12.4-1.2
					c-7,0.6-14,1.8-21,2.8c-0.8,0.1-1.6,0.3-2.4,0.3c-1.7-0.1-2.4-2.3-1.2-3.5c2.2-2,4.5-4,6.8-6.2c2.4-2.2,5.4-3.7,7.5-6.7
					C239.1,217.9,238.4,216.9,237.5,216.9z M185.4,227.5l-0.1,0.2c-0.3,1-0.9,1.9-1.4,2.8c-5,8.4-10.1,16.8-15.1,25.2
					c-0.5,0.8-1,1.6-1.5,2.6c5.5,2,11,3.9,16.6,5.7c2.1,0.6,4.1,1.3,6.7,2.1c3-10,5.9-19.6,8.8-29.2c-0.6-0.6-1-1-1.4-1.3
					C193.8,232.9,189.6,230.2,185.4,227.5z M161,211.8L161,211.8c-0.3,0.6-0.6,1.1-0.9,1.6c-7.6,10.4-15.2,20.8-22.9,31.2
					c-0.2,0.3-0.4,0.5-0.6,0.7c2.5,1.1,4.9,2.3,7.4,3.4c0.2,0,0.5,0.1,0.7,0.1c2.2,0.9,4.5,2,6.7,3c2.9,1.2,5.8,2.4,8.7,3.6
					l-0.2,0.3c3.1-4.9,6.3-9.7,9.3-14.6c3-5,5.8-10.1,8.7-15.1c0.5-0.8,1-1.7,1.6-2.4C173.3,219.8,167.2,215.9,161,211.8z
					 M105.9,235l-1.9,2.7c-3.2,4.8-6.5,9.6-9.8,14.4c14.9-0.4,29-0.7,43.1-1.1c0-0.2-0.1-0.5-0.1-0.8c-1.6-0.8-3.3-1.5-4.9-2.3
					C123.4,243.9,114.6,239.5,105.9,235z M252.2,242.6L252.2,242.6c-2.6,0.6-5,1.1-6.8,1.6c1.5,0.3,6.8,0.4,8.4,0.6
					C253.2,244.1,252.7,243.4,252.2,242.6z M138.7,196.6l-0.2,0.3c-0.4,0.6-0.9,1.1-1.4,1.7c-9.2,10.6-18.3,21.1-27.5,31.7
					c-0.4,0.5-0.9,0.9-1.3,1.3c7.3,3.7,14.6,7.4,22,10.9c0.1-0.5,0.4-1.1,0.7-1.6c0.6-1.1,1.3-2.2,2.1-3.2
					c6.7-9.1,13.3-18.1,20-27.2c0.6-0.8,1.3-1.7,2-2.4c-1.7-1.1-3.4-2.3-5.1-3.4C146.2,201.9,142.4,199.3,138.7,196.6z M286.3,202.3
					c-1.8,1.7-3.4,2.8-4.4,4.3c-4,6.2-5.3,12.9-3.1,20c0.5,1.8,1.6,3.6,2.9,5c2.1,2.3,4.8,4.6,8.1,3.5c3.6-1.1,3.8-4.8,3.8-7.8
					C293.4,218.6,290.9,210.6,286.3,202.3z M238.4,224.8l-0.2,0.2c-1.9,1.5-3.9,3.2-5.7,4.8c2.8-1,6.4-1.5,8.1-1.7l0.4,0
					C240.1,226.9,239.2,225.9,238.4,224.8z M117.5,180.3l-0.1,0.1c-0.7,0.8-1.5,1.9-2.5,2.8c-5,4-10,7.8-15,11.7
					c-7.3,5.7-14.5,11.5-21.8,17.3c-0.5,0.4-0.9,0.7-1.4,1.1l-0.1,0.1c3,2.2,6.1,4.3,9.4,6.2c5.3,3.1,10.8,6,16.2,8.8l0-0.1l0,0
					c0.6-1.5,1.7-2.8,2.7-4c9-10.4,18.1-20.9,27.1-31.3c0.2-0.2,0.4-0.5,0.7-0.7C127.6,188.4,122.5,184.4,117.5,180.3z M224.3,209.1
					c0.4,2.5,0.9,5,1.3,7.6c1.4-0.7,2.9-1.3,4.4-1.9C227.3,211.7,225.2,209.7,224.3,209.1z M99.3,164.5l-0.1,0.1
					c-0.6,0.4-1.2,0.7-1.8,0.9c-14.8,6-29.6,12-44.4,18c-0.8,0.3-1.5,0.6-2.3,0.9c5.4,9.3,12,17.4,20,24.3c0.5-0.6,1.2-1.1,1.8-1.6
					c12.3-9.7,24.5-19.3,36.8-29c1-0.8,2-1.5,3.2-2C108,172.4,103.6,168.5,99.3,164.5z M28.4,180.9c-2.6,6.4-3.2,12-1.6,16.3
					c0.5,1.3,2.4,1.2,2.7-0.2C30.5,191.8,29.9,186.7,28.4,180.9z M12.4-5c-23.9,63.6-47.6,126.9-71.6,190.8c1.7,0.9,3.2,1.8,4.7,2.6
					c1.4,0.7,2.9,1.4,4.7,2.2c0.7-1.6,1.5-3,2-4.5c10.3-29.9,23.2-58.7,35.5-87.8C-4.9,81,2.3,63.5,9.9,46.2
					c3.2-7.3,6.6-14.5,10.7-21.4c1.4-2.4,3-3.6,7.5-2.6c0.9,0.2,2.4-3.8,4-5.2c1.9,0.9,4,1.9,6,3C65,34.8,91.8,49.5,118.6,64.3
					l-3.2-1.8c2.4-2,4.8-3.9,7.2-5.9c-0.4-0.3-0.9-0.5-1.3-0.8C87,36.6,52.6,17.4,18.2-1.9C16.5-2.8,14.7-3.7,12.4-5z M174.7,142.6
					c1-1.8,1.8-5.5,4.7-3.7c2.4,1.4,0,3.9-1,5.7c-7.2,13.8-14.5,27.5-21.8,41.3c-0.7,1.3-1.3,2.6-2.2,3.8c-0.1,0.1-0.2,0.3-0.4,0.4
					c-1.1,1-2.9,0.6-3.4-0.8c-0.1-0.2-0.1-0.4-0.1-0.5c0-1,0.7-2,1.2-3C159.4,171.3,167,156.9,174.7,142.6z M191.5,149.8
					c0.5-0.5,1.8-0.6,2.4-0.3c0.5,0.3,0.9,1.6,0.7,2.3c-0.3,1.2-1,2.3-1.6,3.4c-6.1,10.5-12.2,21-18.4,31.4c-0.6,1-1.3,1.9-2.1,2.8
					c-1,1.2-2.9,1.1-3.6-0.3c-0.1-0.2-0.1-0.3-0.2-0.5c-0.1-0.7,0.7-1.6,1.1-2.4c6.5-11.1,13-22.2,19.5-33.3
					C190,151.8,190.6,150.6,191.5,149.8z M286.3,154.4c-0.5,1.7-2.8,12.8-5.4,16.7c-0.7,1,0.7,7.8,3,6.8c0.2-0.1,0.3-0.2,0.4-0.4
					c3.9-8.1,4.1-13,4-18.8C288.3,157.4,287.6,154.7,286.3,154.4z M59.8,123.1L59,124c-3.6,4.4-7.2,8.9-10.6,13.5
					c-4.8,6.5-6.5,13.6-6.1,21.5c0.3,6.3,1.8,12.2,4.4,17.8c0.2,0.3,0.3,0.6,0.5,1l0,0c0.9-0.5,2-0.9,3-1.3
					c13.9-5.7,27.8-11.5,41.9-16.9c0.5-0.2,0.9-0.4,1.3-0.6c-1.2-1.1-2.3-2.4-2.3-4.2c0.3-0.6,0.5-0.9,0.7-1.2l2.1-2l-2.9-2.4
					c-9.8-8.1-19.6-16.2-29.3-24.3C61,124.4,60.4,123.8,59.8,123.1z M277.8,172.6c-0.6,0.3-1.2,0.7-1.9,1.1c0.4,0.2,0.9,0.5,1.3,0.8
					c0.3,0.2,0.6,0.4,0.9,0.6C278.1,174.4,278,173.3,277.8,172.6z M279.3,147.6l0,1.2c-0.9,6.8-4.6,12.2-8.4,17.5
					c-0.8,1.1-2.3,3.6-2.1,4.7c0.1,0.9,0.9,1.6,1.9,1.8c0.7-0.1,1.5-0.1,2.3,0c0.3-0.1,0.7-0.3,0.9-0.5c5.1-4.4,9.5-18.2,8.8-21.2
					C282.3,149.5,280.9,148.8,279.3,147.6z M291.4,156.5L291.4,156.5L291.4,156.5c0.1,1,0.2,1.9,0.2,2.9c10,5.5,20,11,30,16.5
					l-7.2-3.9c0-0.9,0-1.7,0.1-2.6c0.2-4.2,0.4-8.5,0.4-12.7c-0.3,0.1-0.7,0.1-1.1,0.1C306.4,156.8,298.9,156.6,291.4,156.5z
					 M267.4,152.1c-2,3.9-5.3,10.3-5.3,14.8c0,2.9,1.9,3,2.7,2c5.1-6.2,12.6-19.9,10.2-21.5C271.4,144.4,268.6,149.5,267.4,152.1z
					 M263.5,143.1c-5.6,1.2-12.1,9.6-15.6,16.3c-0.7,1.4,0.7,2.7,2.1,1.9c6.2-3.4,11.7-9.4,14.2-15.8
					C265.2,143.4,264.8,143.4,263.5,143.1z M312.6,125.2L312.6,125.2c-0.9,0.5-2,0.7-3,0.8c-7,1.1-14,2.1-20.9,3.1
					c0-0.3-0.1-0.5-0.1-0.8c-2.9,0-5.8,0.1-8.7,0c-0.2,0-0.4,0-0.6-0.1c-0.2,3.1-0.3,6.3-0.5,9.4c-0.1,1.8,0,3.6,0,4.7
					c3.6,2.7,7,4.8,9.8,7.4c0.1,0,0.3,0,0.4,0c2.9,0,5.8,0.4,8.6,0.7c1.4,0.1,2.9,0.2,5.2,0.3c3-0.1,6.8-0.3,10.5-0.5
					c0.5,0,1,0,1.4,0C314.5,141.8,313.8,133.5,312.6,125.2z M82.5,99.6l-1.4,1.3c-1,0.9-1.9,1.8-2.9,2.7c-4.8,4.5-9.3,9.2-13.7,14
					c0.9,0.6,1.7,1.3,2.5,2c10.7,8.9,21.3,17.7,32.3,26.9l13.4-12.7l-1-1.1c-9-10.2-18.4-20.9-27.9-31.6
					C83.4,100.6,82.9,100.1,82.5,99.6z M201.3,26.7c-6.3,1.1-12.5,2.1-18.5,3.1c-0.6,7.4-1,14.1-1.6,20.7
					c-1.1,13.3-5.9,25.4-12.7,36.7c-0.7,1.1-1.7,2-2.7,3c31.4,17.3,62.8,34.5,94.3,51.8l-1.7-0.9c1-0.6,1.9-1.1,2.4-1.3
					c5.2-1.8,8.1,0,8.1,4c1-1,2.6-1.3,5.3-0.5c0.2-2.8,0.6-5.7,0.7-8.5c0.2-12.5,0.5-25,0.3-37.5c-0.1-4.1-1.3-8.3-2.9-12.1
					c-7-17.1-14.3-34.1-21.3-51.3c-0.4-1-0.8-1.8-1.4-2.8c-1-1.8-2.6-2.6-4.2-2.6c-1.4,0-2.1,0-4.2,0c-0.7,5.7-1.3,13.4-2,19.1
					c-0.8,6.8-1.6,13.7-2.5,20.5c-0.2,1.8-0.5,4.1-2.7,4.2c-1.5,0-3.5-1.1-4.4-2.3c-8.6-11.3-17.2-22.5-23.7-35.2
					C204.5,32.2,203,29.7,201.3,26.7z M105.1,77.6l-1.3,1.2c-5.4,5.1-10.7,10.4-16,15.6c1.2,1.3,2.4,2.6,3.6,3.9
					c8.5,9.7,17.1,19.3,25.6,29c0.4,0.4,0.7,0.8,1.2,1.3l16.3-15.5c-5.4-6.2-10.6-12.2-15.6-18.3c-4.4-5.3-8.6-10.8-12.9-16.2
					C105.7,78.3,105.4,78,105.1,77.6z M303.8,88.6L303.8,88.6c-0.4,0.2-0.8,0.4-1.3,0.5c-7.7,2-15.4,3.7-23.2,5.6
					c-0.1,0-0.2,0-0.3-0.1c1,6.3,1.2,12.7,1,19.2c-0.1,2.7-0.2,5.4-0.4,8.1c0.2,0,0.4,0,0.5,0c6.5-0.2,13-0.4,19.5-0.9
					c3.1-0.2,6.1-1,9.1-1.6c0.9-0.2,1.9-0.8,2.6-0.5l0.1,0c-1.7-9.6-4.1-19.1-7.1-28.5C304.2,89.8,304,89.2,303.8,88.6z M55.7,74.2
					L55.7,74.2c1,6.6,2.5,14.9,3.6,21.9c0.1,0.8-0.3,1.7-1.1,2c-4.8,2.4-9.2,4.8-13.1,9.5c5.1-0.7,9.2-1.1,13.2-1.7
					c4.7-0.7,6.1,0,7,4.5c3.8-4.2,7.7-8.3,11.8-12.3c1.4-5.4,2.9-11.1,4.4-16.4c-2.8,1.5-4.6,3.1-6.4,4.6c-6.6,5.4-8,5.2-12.5-1.9
					c-1.9-2.9-3.8-5.8-5.7-8.7C56.8,75.7,55.9,74,55.7,74.2L55.7,74.2z M131.5,55.4L131.5,55.4c-7.3,5.3-14.3,11.1-21,17.2
					c0.8,0.8,1.4,1.8,2.2,2.7c9.1,10.9,18.1,21.8,27.2,32.7l0.1,0.1c7-6.7,14.1-13.4,21.1-20.1c-0.1-0.1-0.2-0.2-0.2-0.2
					c-9.4-10.1-18.7-20.2-28-30.4C132.3,56.7,131.9,56.1,131.5,55.4z M288.7,59.6L288.7,59.6c-0.3,0.3-0.6,0.5-1,0.6
					c-6,2.4-12,4.7-18.3,7.2c1.2,2.8,2.5,5.5,3.8,8.2c1.9,4,3.4,8,4.4,12.2c0.3-0.1,0.6-0.1,0.9-0.2c7.4-1.6,14.8-3.3,22.2-4.8
					c0.3-0.1,0.5-0.1,0.8-0.1C298.1,74.3,293.9,66.7,288.7,59.6z M178,31.5c-4.1,1.5-7.4,2.5-10.6,3.8c-10.7,4.3-20.6,9.7-30,15.9
					l-0.2-0.2c9.6,10.4,19.2,20.9,28.8,31.4l-0.1,0.1C175.7,67.1,177.9,50.1,178,31.5z M254.5,31.9c0.8,2.1,2.4,5.6,3.3,7.7
					c3,7.1,5.8,14.2,8.8,21.3l-0.1,0c6-2.1,12-4.2,17.9-6.3c0.1,0,0.2-0.1,0.4-0.1c-2.2-2.7-4.6-5.4-7-8
					c-6.1-6.4-11.8-10.8-20.2-13.7C256.6,32.4,255.2,32.2,254.5,31.9z"/>
			</g>
		</g>
		
			<g id="Face" transform="translate(324.000000, 111.000000) scale(1 1)" blush:component="Face" blush:height="48" blush:i="0.4.0.3" blush:width="63">
			<g id="Face_x2F_Pleased" blush:i="0.4.0.3.0">
				<path id="Stroke_3_" blush:i="0.4.0.3.0.0" class="st2" d="M-56.5-36.4c0.7,0.7,0.9,1.9,1.4,2.8c2.1,4.1,3.1,4.5,7.6,3.4
					c1.4-0.3,3.2-0.9,3.5,1c0.2,0.9-1.2,2.4-2.2,3.1c-0.4,0.3-0.9,0.5-1.3,0.6c-1.7,0.5-3.6,0.3-5.2-0.4c-4.1-1.7-7.8-5.9-7.3-9.5
					c0.1-0.6,0.6-1.5,1.1-1.6C-58.1-37.1-56.9-36.9-56.5-36.4z M-19.9-51.1c1.9,0.7,1.1,2.3,0.4,3.7c-2,3.9-6.3,5.9-10.5,4.5
					c-1.4-0.4-3-1.4-4.7-2.2c0.6,1.8,0.2,3-0.1,4.2c-1.2,5-7.1,7.1-11.2,4.1c-0.7-0.5-1.3-1.8-1.1-2.6c0.3-1.1,1-1.2,1.8-1.1
					c1,0.1,1.8,0.3,2.5,0.5c1.5,0.3,3.3,0.2,3.4-1.5c0.1-1.3,0.2-3.1-0.8-3.8c-1.2-0.8-4.1-0.5-5.6-0.9c0,0-0.1,0-0.1,0
					c-1.6-0.5-2.1-2.7-0.8-3.7c0.1-0.1,0.2-0.1,0.3-0.2c2.3-1.2,7.5-0.4,10,2.1c1.5-2.3,2.8-2.6,4.9-0.9c4.2,3.3,4.5,3.1,8.4-0.7
					C-22.2-50.6-20.7-51.4-19.9-51.1z M-54.4-49.3c0.9,0.7,0.9,2.2,0.5,2.8c-2,3.3-4.8,5.4-8.9,5.3c-3.4,0-5.9-1.6-7.9-4.2
					c-0.9-1.2-1.8-2.7-0.1-3.7c0.7-0.4,2.2,0.3,3.2,0.7c0.6,0.3,1,1,1.6,1.5c2.4,1.8,4.6,1.8,6.9,0c0.9-0.7,1.5-1.7,2.4-2.2
					C-56-49.5-54.7-49.5-54.4-49.3z"/>
			</g>
		</g>
	</g>
</g>
</svg>
